%TF.GenerationSoftware,KiCad,Pcbnew,10.0.5*%
%TF.CreationDate,2026-09-04T14:01:11+05:30*%
%TF.ProjectId,Rocket_solder,526f636b-6574-45f7-936f-6c6465722e6b,rev?*%
%TF.SameCoordinates,Original*%
%TF.FileFunction,Legend,Top*%
%TF.FilePolarity,Positive*%
%FSLAX46Y46*%
G04 Gerber Fmt 4.6, Leading zero omitted, Abs format (unit mm)*
G04 Created by KiCad (PCBNEW 10.0.5) date 2026-09-04 14:01:11*
%MOMM*%
%LPD*%
G01*
G04 APERTURE LIST*
%ADD10C,0.100000*%
%ADD11C,0.150000*%
%ADD12C,0.120000*%
%ADD13C,0.000000*%
G04 APERTURE END LIST*
D10*
X197199122Y-50875800D02*
X197299122Y-50909133D01*
X197299122Y-50909133D02*
X197465789Y-50909133D01*
X197465789Y-50909133D02*
X197532455Y-50875800D01*
X197532455Y-50875800D02*
X197565789Y-50842466D01*
X197565789Y-50842466D02*
X197599122Y-50775800D01*
X197599122Y-50775800D02*
X197599122Y-50709133D01*
X197599122Y-50709133D02*
X197565789Y-50642466D01*
X197565789Y-50642466D02*
X197532455Y-50609133D01*
X197532455Y-50609133D02*
X197465789Y-50575800D01*
X197465789Y-50575800D02*
X197332455Y-50542466D01*
X197332455Y-50542466D02*
X197265789Y-50509133D01*
X197265789Y-50509133D02*
X197232455Y-50475800D01*
X197232455Y-50475800D02*
X197199122Y-50409133D01*
X197199122Y-50409133D02*
X197199122Y-50342466D01*
X197199122Y-50342466D02*
X197232455Y-50275800D01*
X197232455Y-50275800D02*
X197265789Y-50242466D01*
X197265789Y-50242466D02*
X197332455Y-50209133D01*
X197332455Y-50209133D02*
X197499122Y-50209133D01*
X197499122Y-50209133D02*
X197599122Y-50242466D01*
X197799122Y-50442466D02*
X198065789Y-50442466D01*
X197899122Y-50209133D02*
X197899122Y-50809133D01*
X197899122Y-50809133D02*
X197932456Y-50875800D01*
X197932456Y-50875800D02*
X197999122Y-50909133D01*
X197999122Y-50909133D02*
X198065789Y-50909133D01*
X198599122Y-50909133D02*
X198599122Y-50542466D01*
X198599122Y-50542466D02*
X198565789Y-50475800D01*
X198565789Y-50475800D02*
X198499122Y-50442466D01*
X198499122Y-50442466D02*
X198365789Y-50442466D01*
X198365789Y-50442466D02*
X198299122Y-50475800D01*
X198599122Y-50875800D02*
X198532456Y-50909133D01*
X198532456Y-50909133D02*
X198365789Y-50909133D01*
X198365789Y-50909133D02*
X198299122Y-50875800D01*
X198299122Y-50875800D02*
X198265789Y-50809133D01*
X198265789Y-50809133D02*
X198265789Y-50742466D01*
X198265789Y-50742466D02*
X198299122Y-50675800D01*
X198299122Y-50675800D02*
X198365789Y-50642466D01*
X198365789Y-50642466D02*
X198532456Y-50642466D01*
X198532456Y-50642466D02*
X198599122Y-50609133D01*
X198932455Y-50909133D02*
X198932455Y-50442466D01*
X198932455Y-50575800D02*
X198965789Y-50509133D01*
X198965789Y-50509133D02*
X198999122Y-50475800D01*
X198999122Y-50475800D02*
X199065789Y-50442466D01*
X199065789Y-50442466D02*
X199132455Y-50442466D01*
X199665788Y-50909133D02*
X199665788Y-50209133D01*
X199665788Y-50875800D02*
X199599122Y-50909133D01*
X199599122Y-50909133D02*
X199465788Y-50909133D01*
X199465788Y-50909133D02*
X199399122Y-50875800D01*
X199399122Y-50875800D02*
X199365788Y-50842466D01*
X199365788Y-50842466D02*
X199332455Y-50775800D01*
X199332455Y-50775800D02*
X199332455Y-50575800D01*
X199332455Y-50575800D02*
X199365788Y-50509133D01*
X199365788Y-50509133D02*
X199399122Y-50475800D01*
X199399122Y-50475800D02*
X199465788Y-50442466D01*
X199465788Y-50442466D02*
X199599122Y-50442466D01*
X199599122Y-50442466D02*
X199665788Y-50475800D01*
X200299121Y-50909133D02*
X200299121Y-50542466D01*
X200299121Y-50542466D02*
X200265788Y-50475800D01*
X200265788Y-50475800D02*
X200199121Y-50442466D01*
X200199121Y-50442466D02*
X200065788Y-50442466D01*
X200065788Y-50442466D02*
X199999121Y-50475800D01*
X200299121Y-50875800D02*
X200232455Y-50909133D01*
X200232455Y-50909133D02*
X200065788Y-50909133D01*
X200065788Y-50909133D02*
X199999121Y-50875800D01*
X199999121Y-50875800D02*
X199965788Y-50809133D01*
X199965788Y-50809133D02*
X199965788Y-50742466D01*
X199965788Y-50742466D02*
X199999121Y-50675800D01*
X199999121Y-50675800D02*
X200065788Y-50642466D01*
X200065788Y-50642466D02*
X200232455Y-50642466D01*
X200232455Y-50642466D02*
X200299121Y-50609133D01*
X200632454Y-50442466D02*
X200632454Y-50909133D01*
X200632454Y-50509133D02*
X200665788Y-50475800D01*
X200665788Y-50475800D02*
X200732454Y-50442466D01*
X200732454Y-50442466D02*
X200832454Y-50442466D01*
X200832454Y-50442466D02*
X200899121Y-50475800D01*
X200899121Y-50475800D02*
X200932454Y-50542466D01*
X200932454Y-50542466D02*
X200932454Y-50909133D01*
X201565787Y-50875800D02*
X201499121Y-50909133D01*
X201499121Y-50909133D02*
X201365787Y-50909133D01*
X201365787Y-50909133D02*
X201299121Y-50875800D01*
X201299121Y-50875800D02*
X201265787Y-50842466D01*
X201265787Y-50842466D02*
X201232454Y-50775800D01*
X201232454Y-50775800D02*
X201232454Y-50575800D01*
X201232454Y-50575800D02*
X201265787Y-50509133D01*
X201265787Y-50509133D02*
X201299121Y-50475800D01*
X201299121Y-50475800D02*
X201365787Y-50442466D01*
X201365787Y-50442466D02*
X201499121Y-50442466D01*
X201499121Y-50442466D02*
X201565787Y-50475800D01*
X202132454Y-50875800D02*
X202065787Y-50909133D01*
X202065787Y-50909133D02*
X201932454Y-50909133D01*
X201932454Y-50909133D02*
X201865787Y-50875800D01*
X201865787Y-50875800D02*
X201832454Y-50809133D01*
X201832454Y-50809133D02*
X201832454Y-50542466D01*
X201832454Y-50542466D02*
X201865787Y-50475800D01*
X201865787Y-50475800D02*
X201932454Y-50442466D01*
X201932454Y-50442466D02*
X202065787Y-50442466D01*
X202065787Y-50442466D02*
X202132454Y-50475800D01*
X202132454Y-50475800D02*
X202165787Y-50542466D01*
X202165787Y-50542466D02*
X202165787Y-50609133D01*
X202165787Y-50609133D02*
X201832454Y-50675800D01*
D11*
X227698694Y-112671884D02*
X227276076Y-111765576D01*
X227276076Y-111765576D02*
X227491864Y-111664953D01*
X227491864Y-111664953D02*
X227641461Y-111647736D01*
X227641461Y-111647736D02*
X227768025Y-111693802D01*
X227768025Y-111693802D02*
X227851432Y-111759992D01*
X227851432Y-111759992D02*
X227975088Y-111912498D01*
X227975088Y-111912498D02*
X228035462Y-112041970D01*
X228035462Y-112041970D02*
X228072804Y-112234725D01*
X228072804Y-112234725D02*
X228069895Y-112341165D01*
X228069895Y-112341165D02*
X228023830Y-112467729D01*
X228023830Y-112467729D02*
X227914482Y-112571260D01*
X227914482Y-112571260D02*
X227698694Y-112671884D01*
X228570801Y-111161836D02*
X228398171Y-111242334D01*
X228398171Y-111242334D02*
X228331981Y-111325741D01*
X228331981Y-111325741D02*
X228308948Y-111389023D01*
X228308948Y-111389023D02*
X228283007Y-111558745D01*
X228283007Y-111558745D02*
X228320348Y-111751500D01*
X228320348Y-111751500D02*
X228481346Y-112096760D01*
X228481346Y-112096760D02*
X228564753Y-112162951D01*
X228564753Y-112162951D02*
X228628035Y-112185983D01*
X228628035Y-112185983D02*
X228734475Y-112188892D01*
X228734475Y-112188892D02*
X228907105Y-112108393D01*
X228907105Y-112108393D02*
X228973295Y-112024986D01*
X228973295Y-112024986D02*
X228996328Y-111961704D01*
X228996328Y-111961704D02*
X228999236Y-111855264D01*
X228999236Y-111855264D02*
X228898613Y-111639477D01*
X228898613Y-111639477D02*
X228815206Y-111573286D01*
X228815206Y-111573286D02*
X228751924Y-111550253D01*
X228751924Y-111550253D02*
X228645484Y-111547345D01*
X228645484Y-111547345D02*
X228472854Y-111627844D01*
X228472854Y-111627844D02*
X228406663Y-111711251D01*
X228406663Y-111711251D02*
X228383631Y-111774533D01*
X228383631Y-111774533D02*
X228380722Y-111880973D01*
X203190476Y-86034819D02*
X203190476Y-85034819D01*
X203190476Y-85034819D02*
X203523809Y-85749104D01*
X203523809Y-85749104D02*
X203857142Y-85034819D01*
X203857142Y-85034819D02*
X203857142Y-86034819D01*
X204857142Y-86034819D02*
X204285714Y-86034819D01*
X204571428Y-86034819D02*
X204571428Y-85034819D01*
X204571428Y-85034819D02*
X204476190Y-85177676D01*
X204476190Y-85177676D02*
X204380952Y-85272914D01*
X204380952Y-85272914D02*
X204285714Y-85320533D01*
X213930682Y-107609580D02*
X213883063Y-107657200D01*
X213883063Y-107657200D02*
X213740206Y-107704819D01*
X213740206Y-107704819D02*
X213644968Y-107704819D01*
X213644968Y-107704819D02*
X213502111Y-107657200D01*
X213502111Y-107657200D02*
X213406873Y-107561961D01*
X213406873Y-107561961D02*
X213359254Y-107466723D01*
X213359254Y-107466723D02*
X213311635Y-107276247D01*
X213311635Y-107276247D02*
X213311635Y-107133390D01*
X213311635Y-107133390D02*
X213359254Y-106942914D01*
X213359254Y-106942914D02*
X213406873Y-106847676D01*
X213406873Y-106847676D02*
X213502111Y-106752438D01*
X213502111Y-106752438D02*
X213644968Y-106704819D01*
X213644968Y-106704819D02*
X213740206Y-106704819D01*
X213740206Y-106704819D02*
X213883063Y-106752438D01*
X213883063Y-106752438D02*
X213930682Y-106800057D01*
X214883063Y-107704819D02*
X214311635Y-107704819D01*
X214597349Y-107704819D02*
X214597349Y-106704819D01*
X214597349Y-106704819D02*
X214502111Y-106847676D01*
X214502111Y-106847676D02*
X214406873Y-106942914D01*
X214406873Y-106942914D02*
X214311635Y-106990533D01*
X222344761Y-104944819D02*
X222011428Y-104468628D01*
X221773333Y-104944819D02*
X221773333Y-103944819D01*
X221773333Y-103944819D02*
X222154285Y-103944819D01*
X222154285Y-103944819D02*
X222249523Y-103992438D01*
X222249523Y-103992438D02*
X222297142Y-104040057D01*
X222297142Y-104040057D02*
X222344761Y-104135295D01*
X222344761Y-104135295D02*
X222344761Y-104278152D01*
X222344761Y-104278152D02*
X222297142Y-104373390D01*
X222297142Y-104373390D02*
X222249523Y-104421009D01*
X222249523Y-104421009D02*
X222154285Y-104468628D01*
X222154285Y-104468628D02*
X221773333Y-104468628D01*
X222630476Y-103944819D02*
X222963809Y-104944819D01*
X222963809Y-104944819D02*
X223297142Y-103944819D01*
X224154285Y-104944819D02*
X223582857Y-104944819D01*
X223868571Y-104944819D02*
X223868571Y-103944819D01*
X223868571Y-103944819D02*
X223773333Y-104087676D01*
X223773333Y-104087676D02*
X223678095Y-104182914D01*
X223678095Y-104182914D02*
X223582857Y-104230533D01*
X202916667Y-96407200D02*
X203059524Y-96454819D01*
X203059524Y-96454819D02*
X203297619Y-96454819D01*
X203297619Y-96454819D02*
X203392857Y-96407200D01*
X203392857Y-96407200D02*
X203440476Y-96359580D01*
X203440476Y-96359580D02*
X203488095Y-96264342D01*
X203488095Y-96264342D02*
X203488095Y-96169104D01*
X203488095Y-96169104D02*
X203440476Y-96073866D01*
X203440476Y-96073866D02*
X203392857Y-96026247D01*
X203392857Y-96026247D02*
X203297619Y-95978628D01*
X203297619Y-95978628D02*
X203107143Y-95931009D01*
X203107143Y-95931009D02*
X203011905Y-95883390D01*
X203011905Y-95883390D02*
X202964286Y-95835771D01*
X202964286Y-95835771D02*
X202916667Y-95740533D01*
X202916667Y-95740533D02*
X202916667Y-95645295D01*
X202916667Y-95645295D02*
X202964286Y-95550057D01*
X202964286Y-95550057D02*
X203011905Y-95502438D01*
X203011905Y-95502438D02*
X203107143Y-95454819D01*
X203107143Y-95454819D02*
X203345238Y-95454819D01*
X203345238Y-95454819D02*
X203488095Y-95502438D01*
X203821429Y-95454819D02*
X204059524Y-96454819D01*
X204059524Y-96454819D02*
X204250000Y-95740533D01*
X204250000Y-95740533D02*
X204440476Y-96454819D01*
X204440476Y-96454819D02*
X204678572Y-95454819D01*
X205583333Y-96454819D02*
X205011905Y-96454819D01*
X205297619Y-96454819D02*
X205297619Y-95454819D01*
X205297619Y-95454819D02*
X205202381Y-95597676D01*
X205202381Y-95597676D02*
X205107143Y-95692914D01*
X205107143Y-95692914D02*
X205011905Y-95740533D01*
X204031906Y-109994818D02*
X204031906Y-108994818D01*
X204031906Y-108994818D02*
X204270001Y-108994818D01*
X204270001Y-108994818D02*
X204412858Y-109042437D01*
X204412858Y-109042437D02*
X204508096Y-109137675D01*
X204508096Y-109137675D02*
X204555715Y-109232913D01*
X204555715Y-109232913D02*
X204603334Y-109423389D01*
X204603334Y-109423389D02*
X204603334Y-109566246D01*
X204603334Y-109566246D02*
X204555715Y-109756722D01*
X204555715Y-109756722D02*
X204508096Y-109851960D01*
X204508096Y-109851960D02*
X204412858Y-109947199D01*
X204412858Y-109947199D02*
X204270001Y-109994818D01*
X204270001Y-109994818D02*
X204031906Y-109994818D01*
X205508096Y-108994818D02*
X205031906Y-108994818D01*
X205031906Y-108994818D02*
X204984287Y-109471008D01*
X204984287Y-109471008D02*
X205031906Y-109423389D01*
X205031906Y-109423389D02*
X205127144Y-109375770D01*
X205127144Y-109375770D02*
X205365239Y-109375770D01*
X205365239Y-109375770D02*
X205460477Y-109423389D01*
X205460477Y-109423389D02*
X205508096Y-109471008D01*
X205508096Y-109471008D02*
X205555715Y-109566246D01*
X205555715Y-109566246D02*
X205555715Y-109804341D01*
X205555715Y-109804341D02*
X205508096Y-109899579D01*
X205508096Y-109899579D02*
X205460477Y-109947199D01*
X205460477Y-109947199D02*
X205365239Y-109994818D01*
X205365239Y-109994818D02*
X205127144Y-109994818D01*
X205127144Y-109994818D02*
X205031906Y-109947199D01*
X205031906Y-109947199D02*
X204984287Y-109899579D01*
X204199285Y-62431009D02*
X204342142Y-62478628D01*
X204342142Y-62478628D02*
X204389761Y-62526247D01*
X204389761Y-62526247D02*
X204437380Y-62621485D01*
X204437380Y-62621485D02*
X204437380Y-62764342D01*
X204437380Y-62764342D02*
X204389761Y-62859580D01*
X204389761Y-62859580D02*
X204342142Y-62907200D01*
X204342142Y-62907200D02*
X204246904Y-62954819D01*
X204246904Y-62954819D02*
X203865952Y-62954819D01*
X203865952Y-62954819D02*
X203865952Y-61954819D01*
X203865952Y-61954819D02*
X204199285Y-61954819D01*
X204199285Y-61954819D02*
X204294523Y-62002438D01*
X204294523Y-62002438D02*
X204342142Y-62050057D01*
X204342142Y-62050057D02*
X204389761Y-62145295D01*
X204389761Y-62145295D02*
X204389761Y-62240533D01*
X204389761Y-62240533D02*
X204342142Y-62335771D01*
X204342142Y-62335771D02*
X204294523Y-62383390D01*
X204294523Y-62383390D02*
X204199285Y-62431009D01*
X204199285Y-62431009D02*
X203865952Y-62431009D01*
X204723095Y-61954819D02*
X205294523Y-61954819D01*
X205008809Y-62954819D02*
X205008809Y-61954819D01*
X206151666Y-62954819D02*
X205580238Y-62954819D01*
X205865952Y-62954819D02*
X205865952Y-61954819D01*
X205865952Y-61954819D02*
X205770714Y-62097676D01*
X205770714Y-62097676D02*
X205675476Y-62192914D01*
X205675476Y-62192914D02*
X205580238Y-62240533D01*
X187133333Y-106554819D02*
X186800000Y-106078628D01*
X186561905Y-106554819D02*
X186561905Y-105554819D01*
X186561905Y-105554819D02*
X186942857Y-105554819D01*
X186942857Y-105554819D02*
X187038095Y-105602438D01*
X187038095Y-105602438D02*
X187085714Y-105650057D01*
X187085714Y-105650057D02*
X187133333Y-105745295D01*
X187133333Y-105745295D02*
X187133333Y-105888152D01*
X187133333Y-105888152D02*
X187085714Y-105983390D01*
X187085714Y-105983390D02*
X187038095Y-106031009D01*
X187038095Y-106031009D02*
X186942857Y-106078628D01*
X186942857Y-106078628D02*
X186561905Y-106078628D01*
X188085714Y-106554819D02*
X187514286Y-106554819D01*
X187800000Y-106554819D02*
X187800000Y-105554819D01*
X187800000Y-105554819D02*
X187704762Y-105697676D01*
X187704762Y-105697676D02*
X187609524Y-105792914D01*
X187609524Y-105792914D02*
X187514286Y-105840533D01*
X205031905Y-50994819D02*
X205031905Y-49994819D01*
X205031905Y-49994819D02*
X205270000Y-49994819D01*
X205270000Y-49994819D02*
X205412857Y-50042438D01*
X205412857Y-50042438D02*
X205508095Y-50137676D01*
X205508095Y-50137676D02*
X205555714Y-50232914D01*
X205555714Y-50232914D02*
X205603333Y-50423390D01*
X205603333Y-50423390D02*
X205603333Y-50566247D01*
X205603333Y-50566247D02*
X205555714Y-50756723D01*
X205555714Y-50756723D02*
X205508095Y-50851961D01*
X205508095Y-50851961D02*
X205412857Y-50947200D01*
X205412857Y-50947200D02*
X205270000Y-50994819D01*
X205270000Y-50994819D02*
X205031905Y-50994819D01*
X205984286Y-50090057D02*
X206031905Y-50042438D01*
X206031905Y-50042438D02*
X206127143Y-49994819D01*
X206127143Y-49994819D02*
X206365238Y-49994819D01*
X206365238Y-49994819D02*
X206460476Y-50042438D01*
X206460476Y-50042438D02*
X206508095Y-50090057D01*
X206508095Y-50090057D02*
X206555714Y-50185295D01*
X206555714Y-50185295D02*
X206555714Y-50280533D01*
X206555714Y-50280533D02*
X206508095Y-50423390D01*
X206508095Y-50423390D02*
X205936667Y-50994819D01*
X205936667Y-50994819D02*
X206555714Y-50994819D01*
X180531393Y-110842664D02*
X180873413Y-109902972D01*
X180873413Y-109902972D02*
X181097150Y-109984405D01*
X181097150Y-109984405D02*
X181215105Y-110078012D01*
X181215105Y-110078012D02*
X181272026Y-110200080D01*
X181272026Y-110200080D02*
X181284200Y-110305861D01*
X181284200Y-110305861D02*
X181263800Y-110501137D01*
X181263800Y-110501137D02*
X181214940Y-110635379D01*
X181214940Y-110635379D02*
X181105046Y-110798081D01*
X181105046Y-110798081D02*
X181027726Y-110871289D01*
X181027726Y-110871289D02*
X180905658Y-110928210D01*
X180905658Y-110928210D02*
X180755129Y-110924098D01*
X180755129Y-110924098D02*
X180531393Y-110842664D01*
X182101824Y-110704803D02*
X181873811Y-111331265D01*
X182008382Y-110265391D02*
X181540345Y-110855167D01*
X181540345Y-110855167D02*
X182122060Y-111066894D01*
X196430682Y-107109580D02*
X196383063Y-107157200D01*
X196383063Y-107157200D02*
X196240206Y-107204819D01*
X196240206Y-107204819D02*
X196144968Y-107204819D01*
X196144968Y-107204819D02*
X196002111Y-107157200D01*
X196002111Y-107157200D02*
X195906873Y-107061961D01*
X195906873Y-107061961D02*
X195859254Y-106966723D01*
X195859254Y-106966723D02*
X195811635Y-106776247D01*
X195811635Y-106776247D02*
X195811635Y-106633390D01*
X195811635Y-106633390D02*
X195859254Y-106442914D01*
X195859254Y-106442914D02*
X195906873Y-106347676D01*
X195906873Y-106347676D02*
X196002111Y-106252438D01*
X196002111Y-106252438D02*
X196144968Y-106204819D01*
X196144968Y-106204819D02*
X196240206Y-106204819D01*
X196240206Y-106204819D02*
X196383063Y-106252438D01*
X196383063Y-106252438D02*
X196430682Y-106300057D01*
X196811635Y-106300057D02*
X196859254Y-106252438D01*
X196859254Y-106252438D02*
X196954492Y-106204819D01*
X196954492Y-106204819D02*
X197192587Y-106204819D01*
X197192587Y-106204819D02*
X197287825Y-106252438D01*
X197287825Y-106252438D02*
X197335444Y-106300057D01*
X197335444Y-106300057D02*
X197383063Y-106395295D01*
X197383063Y-106395295D02*
X197383063Y-106490533D01*
X197383063Y-106490533D02*
X197335444Y-106633390D01*
X197335444Y-106633390D02*
X196764016Y-107204819D01*
X196764016Y-107204819D02*
X197383063Y-107204819D01*
%TO.C,D6*%
D12*
X226875895Y-115218382D02*
X228181787Y-118018873D01*
X226875968Y-115218536D02*
G75*
G02*
X232558849Y-114273096I2973021J-318189D01*
G01*
X232558850Y-114273096D02*
G75*
G02*
X228181714Y-118018718I-2709860J-1263629D01*
G01*
X232348988Y-115536724D02*
G75*
G02*
X227348988Y-115536724I-2500000J0D01*
G01*
X227348988Y-115536724D02*
G75*
G02*
X232348988Y-115536724I2500000J0D01*
G01*
D13*
%TO.C,G\u002A\u002A\u002A*%
G36*
X196403297Y-55913567D02*
G01*
X196409864Y-55923370D01*
X196411253Y-55956554D01*
X196393751Y-55981988D01*
X196365875Y-55995397D01*
X196336141Y-55992502D01*
X196314260Y-55971382D01*
X196305332Y-55941210D01*
X196315043Y-55920515D01*
X196342523Y-55903719D01*
X196376210Y-55901532D01*
X196403297Y-55913567D01*
G37*
G36*
X199821438Y-53700000D02*
G01*
X199812843Y-53771765D01*
X199797584Y-53840139D01*
X199777913Y-53897542D01*
X199756084Y-53936398D01*
X199748978Y-53943704D01*
X199742643Y-53942139D01*
X199748825Y-53918034D01*
X199764450Y-53879568D01*
X199786403Y-53819128D01*
X199805205Y-53748777D01*
X199813817Y-53702835D01*
X199827344Y-53607142D01*
X199821438Y-53700000D01*
G37*
G36*
X198376677Y-55574226D02*
G01*
X198404946Y-55588342D01*
X198411948Y-55616471D01*
X198398069Y-55653985D01*
X198366758Y-55693241D01*
X198330856Y-55726635D01*
X198306699Y-55740419D01*
X198287708Y-55736906D01*
X198274285Y-55725714D01*
X198260039Y-55705053D01*
X198261797Y-55681912D01*
X198281360Y-55649607D01*
X198301677Y-55623909D01*
X198339591Y-55586236D01*
X198371189Y-55573867D01*
X198376677Y-55574226D01*
G37*
G36*
X196285028Y-54964068D02*
G01*
X196305297Y-54976259D01*
X196312035Y-54998207D01*
X196304571Y-55033497D01*
X196282231Y-55085718D01*
X196250790Y-55146564D01*
X196198530Y-55254092D01*
X196155029Y-55364847D01*
X196121284Y-55474275D01*
X196098290Y-55577822D01*
X196087044Y-55670934D01*
X196088541Y-55749056D01*
X196103777Y-55807634D01*
X196105473Y-55811057D01*
X196134330Y-55849413D01*
X196171051Y-55878373D01*
X196171670Y-55878696D01*
X196206081Y-55904291D01*
X196212205Y-55931310D01*
X196197142Y-55954285D01*
X196162174Y-55970208D01*
X196115466Y-55962756D01*
X196070231Y-55938893D01*
X196023332Y-55890659D01*
X195991949Y-55822019D01*
X195975738Y-55736332D01*
X195974358Y-55636957D01*
X195987468Y-55527257D01*
X196014725Y-55410590D01*
X196055788Y-55290317D01*
X196110315Y-55169798D01*
X196156981Y-55085981D01*
X196194622Y-55025799D01*
X196222810Y-54987282D01*
X196245365Y-54966793D01*
X196266108Y-54960696D01*
X196285028Y-54964068D01*
G37*
G36*
X198231706Y-55805109D02*
G01*
X198238400Y-55817526D01*
X198243905Y-55843890D01*
X198237004Y-55878316D01*
X198217565Y-55925852D01*
X198196408Y-55988258D01*
X198188611Y-56057891D01*
X198193970Y-56141241D01*
X198208132Y-56224835D01*
X198209429Y-56261121D01*
X198193495Y-56279639D01*
X198158125Y-56281151D01*
X198101112Y-56266419D01*
X198094357Y-56264157D01*
X198016306Y-56246513D01*
X197950042Y-56252723D01*
X197889940Y-56283986D01*
X197854427Y-56315338D01*
X197822998Y-56346152D01*
X197800451Y-56366525D01*
X197793325Y-56371428D01*
X197780101Y-56362620D01*
X197765306Y-56348979D01*
X197747536Y-56329396D01*
X197742857Y-56321890D01*
X197748557Y-56307780D01*
X197763760Y-56274161D01*
X197785616Y-56227286D01*
X197794856Y-56207755D01*
X197820046Y-56153239D01*
X197834045Y-56116369D01*
X197838482Y-56089257D01*
X197834988Y-56064015D01*
X197828786Y-56043509D01*
X197819269Y-56005612D01*
X197817891Y-55978890D01*
X197819242Y-55974965D01*
X197837112Y-55965850D01*
X197874237Y-55956840D01*
X197907798Y-55951765D01*
X198007205Y-55928465D01*
X198088446Y-55884507D01*
X198138649Y-55835749D01*
X198176505Y-55797902D01*
X198207565Y-55787681D01*
X198231706Y-55805109D01*
G37*
G36*
X196002155Y-54999621D02*
G01*
X196008977Y-55024365D01*
X195995845Y-55064786D01*
X195962544Y-55123047D01*
X195962236Y-55123528D01*
X195892248Y-55248857D01*
X195838544Y-55378790D01*
X195801047Y-55510166D01*
X195779682Y-55639823D01*
X195774372Y-55764599D01*
X195785042Y-55881332D01*
X195811617Y-55986861D01*
X195854019Y-56078023D01*
X195912173Y-56151656D01*
X195986003Y-56204599D01*
X195988225Y-56205718D01*
X196077897Y-56236281D01*
X196172696Y-56240286D01*
X196275399Y-56217811D01*
X196285714Y-56214285D01*
X196345383Y-56195050D01*
X196384229Y-56187702D01*
X196407318Y-56192041D01*
X196419717Y-56207865D01*
X196420146Y-56208953D01*
X196422068Y-56233760D01*
X196405114Y-56256826D01*
X196365977Y-56281319D01*
X196324550Y-56300606D01*
X196265040Y-56319642D01*
X196193180Y-56332847D01*
X196119300Y-56339228D01*
X196053732Y-56337798D01*
X196014193Y-56330358D01*
X195919113Y-56284551D01*
X195835856Y-56214968D01*
X195766938Y-56124844D01*
X195714875Y-56017418D01*
X195683943Y-55905631D01*
X195675321Y-55824323D01*
X195675150Y-55725963D01*
X195682766Y-55620576D01*
X195697503Y-55518188D01*
X195714616Y-55442857D01*
X195744152Y-55353686D01*
X195783978Y-55256944D01*
X195829430Y-55162654D01*
X195875840Y-55080841D01*
X195899546Y-55045531D01*
X195932410Y-55006282D01*
X195959297Y-54989357D01*
X195975593Y-54988388D01*
X196002155Y-54999621D01*
G37*
G36*
X197430952Y-55052560D02*
G01*
X197439999Y-55060000D01*
X197453603Y-55081899D01*
X197454448Y-55111643D01*
X197441568Y-55154279D01*
X197414000Y-55214854D01*
X197408138Y-55226593D01*
X197359480Y-55335022D01*
X197331055Y-55430151D01*
X197322206Y-55518174D01*
X197332279Y-55605284D01*
X197358784Y-55692857D01*
X197380164Y-55761662D01*
X197384218Y-55811672D01*
X197370756Y-55846955D01*
X197350703Y-55865138D01*
X197325674Y-55877894D01*
X197297888Y-55880918D01*
X197256775Y-55874755D01*
X197239013Y-55870918D01*
X197183926Y-55862848D01*
X197116005Y-55858757D01*
X197056166Y-55859325D01*
X196936680Y-55879541D01*
X196821453Y-55926190D01*
X196715472Y-55997142D01*
X196697807Y-56012290D01*
X196640796Y-56054602D01*
X196594013Y-56070647D01*
X196556728Y-56060545D01*
X196536154Y-56038390D01*
X196527885Y-56022968D01*
X196525302Y-56005817D01*
X196529751Y-55981799D01*
X196542580Y-55945772D01*
X196565135Y-55892595D01*
X196587636Y-55841961D01*
X196620719Y-55765504D01*
X196642992Y-55706290D01*
X196656848Y-55656228D01*
X196664683Y-55607225D01*
X196667733Y-55571312D01*
X196669521Y-55499348D01*
X196663326Y-55445718D01*
X196651635Y-55408853D01*
X196631491Y-55341371D01*
X196629468Y-55282785D01*
X196645245Y-55238434D01*
X196662933Y-55221001D01*
X196688275Y-55207525D01*
X196712065Y-55207019D01*
X196747412Y-55219431D01*
X196750392Y-55220671D01*
X196797167Y-55233371D01*
X196859553Y-55241228D01*
X196902936Y-55242857D01*
X197007252Y-55231025D01*
X197115313Y-55198078D01*
X197216917Y-55147839D01*
X197284006Y-55100054D01*
X197342707Y-55059336D01*
X197392184Y-55043378D01*
X197430952Y-55052560D01*
G37*
G36*
X196846242Y-51619076D02*
G01*
X196855243Y-51622659D01*
X196887997Y-51642666D01*
X196899560Y-51670476D01*
X196899999Y-51680330D01*
X196887333Y-51720244D01*
X196853205Y-51764467D01*
X196803423Y-51808777D01*
X196743791Y-51848953D01*
X196680118Y-51880772D01*
X196618209Y-51900013D01*
X196593214Y-51903394D01*
X196566453Y-51907496D01*
X196541496Y-51918331D01*
X196513061Y-51939777D01*
X196475866Y-51975713D01*
X196432879Y-52021126D01*
X196352220Y-52115918D01*
X196294461Y-52203981D01*
X196256804Y-52291078D01*
X196236453Y-52382974D01*
X196231722Y-52435714D01*
X196234763Y-52545791D01*
X196257966Y-52639990D01*
X196303768Y-52724843D01*
X196367643Y-52799948D01*
X196445548Y-52878468D01*
X196464273Y-52824002D01*
X196488614Y-52767647D01*
X196519643Y-52727903D01*
X196561650Y-52703034D01*
X196618927Y-52691305D01*
X196695765Y-52690982D01*
X196775946Y-52697962D01*
X196850289Y-52705538D01*
X196900888Y-52707916D01*
X196932298Y-52703837D01*
X196949073Y-52692042D01*
X196955768Y-52671271D01*
X196956924Y-52647933D01*
X196961141Y-52619232D01*
X196971995Y-52573290D01*
X196987147Y-52519990D01*
X196987341Y-52519361D01*
X197028226Y-52405482D01*
X197072514Y-52319049D01*
X197121003Y-52259053D01*
X197174491Y-52224489D01*
X197229170Y-52214285D01*
X197286572Y-52226511D01*
X197340967Y-52263760D01*
X197393038Y-52326885D01*
X197443466Y-52416743D01*
X197492932Y-52534189D01*
X197500322Y-52554267D01*
X197519910Y-52603583D01*
X197535439Y-52629551D01*
X197549889Y-52636513D01*
X197555739Y-52635070D01*
X197578993Y-52627662D01*
X197622561Y-52615358D01*
X197679043Y-52600213D01*
X197712546Y-52591516D01*
X197827088Y-52566983D01*
X197920816Y-52558309D01*
X197996935Y-52565882D01*
X198058651Y-52590091D01*
X198109171Y-52631324D01*
X198117313Y-52640572D01*
X198144389Y-52680517D01*
X198162397Y-52721011D01*
X198163880Y-52726725D01*
X198177396Y-52758439D01*
X198205811Y-52773430D01*
X198218662Y-52776025D01*
X198258905Y-52779406D01*
X198322010Y-52780709D01*
X198402357Y-52780137D01*
X198494329Y-52777895D01*
X198592306Y-52774188D01*
X198690670Y-52769221D01*
X198783802Y-52763199D01*
X198866083Y-52756327D01*
X198919321Y-52750482D01*
X198994017Y-52740326D01*
X199046472Y-52731023D01*
X199082897Y-52720805D01*
X199109501Y-52707907D01*
X199132494Y-52690562D01*
X199133737Y-52689479D01*
X199191439Y-52647216D01*
X199249215Y-52619127D01*
X199302043Y-52606205D01*
X199344899Y-52609439D01*
X199372762Y-52629822D01*
X199378062Y-52641254D01*
X199384041Y-52655200D01*
X199394883Y-52660503D01*
X199417283Y-52656987D01*
X199457936Y-52644474D01*
X199475443Y-52638691D01*
X199548825Y-52620655D01*
X199633720Y-52609700D01*
X199722379Y-52605834D01*
X199807053Y-52609070D01*
X199879993Y-52619416D01*
X199933449Y-52636884D01*
X199935714Y-52638075D01*
X200021935Y-52700594D01*
X200092088Y-52784848D01*
X200146172Y-52888944D01*
X200184187Y-53010993D01*
X200206130Y-53149102D01*
X200212003Y-53301380D01*
X200201802Y-53465935D01*
X200175528Y-53640876D01*
X200133179Y-53824313D01*
X200074755Y-54014352D01*
X200000254Y-54209103D01*
X199936604Y-54351293D01*
X199906922Y-54414105D01*
X199882281Y-54466951D01*
X199864980Y-54504845D01*
X199857320Y-54522804D01*
X199857142Y-54523517D01*
X199869444Y-54527269D01*
X199894223Y-54528571D01*
X199946909Y-54542537D01*
X199997051Y-54583159D01*
X200042481Y-54648525D01*
X200052700Y-54668210D01*
X200068995Y-54703002D01*
X200080140Y-54733624D01*
X200087085Y-54766673D01*
X200090780Y-54808748D01*
X200092174Y-54866444D01*
X200092229Y-54942857D01*
X200091447Y-55024284D01*
X200088932Y-55085495D01*
X200083512Y-55134841D01*
X200074017Y-55180672D01*
X200059273Y-55231337D01*
X200046116Y-55271428D01*
X199979355Y-55446118D01*
X199901842Y-55599987D01*
X199809270Y-55740052D01*
X199697328Y-55873328D01*
X199640308Y-55932142D01*
X199573226Y-55996593D01*
X199521482Y-56040490D01*
X199482105Y-56065212D01*
X199452120Y-56072138D01*
X199428553Y-56062646D01*
X199409158Y-56039285D01*
X199398877Y-56009537D01*
X199389538Y-55958107D01*
X199382276Y-55891884D01*
X199380298Y-55864285D01*
X199373934Y-55788183D01*
X199363814Y-55697413D01*
X199351530Y-55605374D01*
X199342939Y-55550000D01*
X199331703Y-55479290D01*
X199322539Y-55415341D01*
X199316422Y-55365407D01*
X199314326Y-55337619D01*
X199311323Y-55309299D01*
X199297827Y-55302601D01*
X199282142Y-55306078D01*
X199254055Y-55311119D01*
X199205741Y-55316740D01*
X199145508Y-55322043D01*
X199114285Y-55324244D01*
X198978571Y-55333000D01*
X198847995Y-55484357D01*
X198744144Y-55604751D01*
X198657331Y-55705242D01*
X198585867Y-55787504D01*
X198528064Y-55853213D01*
X198482234Y-55904043D01*
X198446689Y-55941672D01*
X198419740Y-55967773D01*
X198399699Y-55984022D01*
X198384878Y-55992095D01*
X198373589Y-55993667D01*
X198364144Y-55990414D01*
X198354853Y-55984010D01*
X198348967Y-55979582D01*
X198331285Y-55960352D01*
X198334596Y-55936066D01*
X198338906Y-55926564D01*
X198352474Y-55907177D01*
X198382420Y-55869644D01*
X198426084Y-55817124D01*
X198480808Y-55752775D01*
X198543932Y-55679758D01*
X198612796Y-55601231D01*
X198613161Y-55600818D01*
X198871068Y-55308779D01*
X198781962Y-55284737D01*
X198728962Y-55269676D01*
X198682300Y-55255114D01*
X198657142Y-55246148D01*
X198639201Y-55241146D01*
X198621507Y-55244335D01*
X198599123Y-55258915D01*
X198567108Y-55288090D01*
X198521411Y-55334152D01*
X198388681Y-55457307D01*
X198254622Y-55554844D01*
X198114894Y-55629555D01*
X197988548Y-55677163D01*
X197894900Y-55702442D01*
X197823754Y-55712076D01*
X197773510Y-55705767D01*
X197742569Y-55683216D01*
X197729330Y-55644123D01*
X197728571Y-55628584D01*
X197737206Y-55512864D01*
X197761761Y-55382161D01*
X197800213Y-55243726D01*
X197850537Y-55104810D01*
X197910709Y-54972664D01*
X197912812Y-54968557D01*
X197948513Y-54899069D01*
X199560645Y-54899069D01*
X199562599Y-54900000D01*
X199575636Y-54889943D01*
X199578571Y-54885714D01*
X199582211Y-54872358D01*
X199580257Y-54871428D01*
X199567220Y-54881485D01*
X199564285Y-54885714D01*
X199560645Y-54899069D01*
X197948513Y-54899069D01*
X197981063Y-54835714D01*
X198842857Y-54835714D01*
X198850000Y-54842857D01*
X198857142Y-54835714D01*
X198850000Y-54828571D01*
X198842857Y-54835714D01*
X197981063Y-54835714D01*
X197983216Y-54831523D01*
X197940507Y-54790761D01*
X197897797Y-54750000D01*
X197861810Y-54792857D01*
X197803431Y-54862140D01*
X197760108Y-54912478D01*
X197728628Y-54946892D01*
X197705776Y-54968401D01*
X197688339Y-54980027D01*
X197673104Y-54984791D01*
X197656857Y-54985714D01*
X197656648Y-54985714D01*
X197613828Y-54973733D01*
X197592256Y-54951088D01*
X197577930Y-54923307D01*
X197580105Y-54898563D01*
X197590721Y-54875558D01*
X197609666Y-54847177D01*
X197642785Y-54805252D01*
X197684406Y-54756794D01*
X197706712Y-54732219D01*
X197801551Y-54629785D01*
X197768632Y-54572145D01*
X197747761Y-54538022D01*
X197732418Y-54517296D01*
X197728571Y-54514411D01*
X197716683Y-54523762D01*
X197686757Y-54550184D01*
X197641553Y-54591159D01*
X197583828Y-54644167D01*
X197516342Y-54706689D01*
X197441853Y-54776204D01*
X197438375Y-54779461D01*
X197348378Y-54863303D01*
X197276470Y-54928805D01*
X197220234Y-54977525D01*
X197177254Y-55011018D01*
X197145113Y-55030841D01*
X197121395Y-55038552D01*
X197103683Y-55035705D01*
X197089560Y-55023858D01*
X197080030Y-55010263D01*
X197076565Y-55001765D01*
X197077440Y-54991313D01*
X197084440Y-54977032D01*
X197099350Y-54957045D01*
X197123955Y-54929477D01*
X197160039Y-54892451D01*
X197209388Y-54844092D01*
X197273786Y-54782523D01*
X197355018Y-54705869D01*
X197454870Y-54612254D01*
X197489893Y-54579488D01*
X197564692Y-54508467D01*
X197619248Y-54454076D01*
X197655174Y-54414538D01*
X197674078Y-54388077D01*
X197677572Y-54372916D01*
X197677449Y-54372600D01*
X197670281Y-54345261D01*
X197663205Y-54302508D01*
X197660738Y-54282142D01*
X197653613Y-54239096D01*
X197642316Y-54218560D01*
X197628267Y-54214285D01*
X197585252Y-54216306D01*
X197520373Y-54221880D01*
X197440012Y-54230272D01*
X197350553Y-54240747D01*
X197258379Y-54252572D01*
X197169874Y-54265013D01*
X197117743Y-54273016D01*
X197024632Y-54286570D01*
X196957094Y-54291888D01*
X196912855Y-54287131D01*
X196889642Y-54270460D01*
X196885181Y-54240034D01*
X196897199Y-54194014D01*
X196923422Y-54130562D01*
X196928299Y-54119738D01*
X196996590Y-53994848D01*
X197072263Y-53889360D01*
X198859008Y-53889360D01*
X198862856Y-53919953D01*
X198875593Y-53972231D01*
X198875798Y-53973006D01*
X198897378Y-54035079D01*
X198924614Y-54073744D01*
X198959785Y-54093695D01*
X198985794Y-54106345D01*
X199025908Y-54130570D01*
X199069210Y-54159590D01*
X199150000Y-54216395D01*
X199292857Y-54211769D01*
X199364153Y-54208370D01*
X199415629Y-54202470D01*
X199456025Y-54192340D01*
X199494081Y-54176251D01*
X199507747Y-54169271D01*
X199562619Y-54145679D01*
X199605969Y-54137389D01*
X199615481Y-54138223D01*
X199632198Y-54138884D01*
X199650196Y-54132364D01*
X199672748Y-54115757D01*
X199703126Y-54086155D01*
X199744600Y-54040651D01*
X199800443Y-53976337D01*
X199809409Y-53965882D01*
X199824050Y-53936505D01*
X199839791Y-53883806D01*
X199855475Y-53812942D01*
X199869945Y-53729072D01*
X199880896Y-53647380D01*
X199883505Y-53599706D01*
X199877516Y-53555444D01*
X199860826Y-53502773D01*
X199850380Y-53475952D01*
X199830433Y-53423246D01*
X199815140Y-53377131D01*
X199807689Y-53347250D01*
X199807591Y-53346461D01*
X199794136Y-53315193D01*
X199767098Y-53285374D01*
X199738618Y-53257619D01*
X199722033Y-53231770D01*
X199703030Y-53205109D01*
X199665737Y-53172442D01*
X199617928Y-53139474D01*
X199567373Y-53111910D01*
X199546880Y-53103198D01*
X199488217Y-53086788D01*
X199415499Y-53074730D01*
X199340392Y-53068242D01*
X199274560Y-53068538D01*
X199247009Y-53071940D01*
X199223401Y-53077306D01*
X199221493Y-53080727D01*
X199243538Y-53082775D01*
X199291790Y-53084020D01*
X199294900Y-53084071D01*
X199353007Y-53086726D01*
X199387622Y-53093079D01*
X199403700Y-53104167D01*
X199405166Y-53107142D01*
X199405015Y-53118576D01*
X199390234Y-53125149D01*
X199355745Y-53128063D01*
X199314680Y-53128571D01*
X199264124Y-53130499D01*
X199225600Y-53135558D01*
X199207269Y-53142666D01*
X199207142Y-53142857D01*
X199186885Y-53155086D01*
X199172113Y-53157142D01*
X199145523Y-53168225D01*
X199137036Y-53180276D01*
X199135194Y-53195564D01*
X199151275Y-53196837D01*
X199167651Y-53193029D01*
X199267810Y-53176757D01*
X199371188Y-53177556D01*
X199468081Y-53194688D01*
X199537305Y-53221133D01*
X199588498Y-53257488D01*
X199642427Y-53311734D01*
X199692217Y-53375229D01*
X199730998Y-53439329D01*
X199750537Y-53489285D01*
X199764075Y-53517742D01*
X199781082Y-53528571D01*
X199795058Y-53520554D01*
X199791931Y-53496428D01*
X199779993Y-53469674D01*
X199771056Y-53460029D01*
X199764798Y-53444833D01*
X199766475Y-53431457D01*
X199761228Y-53404900D01*
X199739436Y-53365602D01*
X199706170Y-53319505D01*
X199666503Y-53272551D01*
X199625506Y-53230682D01*
X199588252Y-53199840D01*
X199559811Y-53185964D01*
X199556698Y-53185714D01*
X199529888Y-53178849D01*
X199521428Y-53171428D01*
X199501686Y-53160269D01*
X199478571Y-53157142D01*
X199448657Y-53151750D01*
X199435714Y-53142857D01*
X199437840Y-53131197D01*
X199462564Y-53129908D01*
X199505984Y-53138684D01*
X199548487Y-53151694D01*
X199598085Y-53176790D01*
X199652187Y-53216964D01*
X199704105Y-53265658D01*
X199747147Y-53316316D01*
X199774624Y-53362383D01*
X199779836Y-53378415D01*
X199790145Y-53414013D01*
X199801023Y-53436423D01*
X199810245Y-53458965D01*
X199819208Y-53497877D01*
X199821955Y-53514994D01*
X199825810Y-53552117D01*
X199822911Y-53563934D01*
X199815658Y-53557142D01*
X199803307Y-53544677D01*
X199800218Y-53554414D01*
X199792050Y-53566250D01*
X199785714Y-53564285D01*
X199777333Y-53571846D01*
X199772456Y-53604808D01*
X199771428Y-53640741D01*
X199762416Y-53735058D01*
X199737619Y-53830075D01*
X199700397Y-53915205D01*
X199669319Y-53962527D01*
X199640780Y-53996720D01*
X199618598Y-54020266D01*
X199610988Y-54026275D01*
X199591758Y-54039730D01*
X199581189Y-54049423D01*
X199536943Y-54082868D01*
X199479133Y-54105883D01*
X199402651Y-54119987D01*
X199323965Y-54125901D01*
X199238419Y-54126980D01*
X199171219Y-54119884D01*
X199112656Y-54101839D01*
X199053020Y-54070073D01*
X198997736Y-54032719D01*
X198954259Y-53994128D01*
X198919988Y-53949796D01*
X198900169Y-53907638D01*
X198897956Y-53882142D01*
X198888353Y-53872680D01*
X198878571Y-53871428D01*
X198864196Y-53875003D01*
X198859008Y-53889360D01*
X197072263Y-53889360D01*
X197090646Y-53863735D01*
X197140159Y-53807142D01*
X198857142Y-53807142D01*
X198864285Y-53814285D01*
X198871428Y-53807142D01*
X198864285Y-53800000D01*
X198857142Y-53807142D01*
X197140159Y-53807142D01*
X197208918Y-53728551D01*
X197212305Y-53725000D01*
X197254409Y-53680153D01*
X197268687Y-53664285D01*
X198800000Y-53664285D01*
X198801378Y-53712048D01*
X198804961Y-53747546D01*
X198809135Y-53761516D01*
X198825543Y-53766528D01*
X198836691Y-53744310D01*
X198842258Y-53695775D01*
X198842857Y-53665823D01*
X198841335Y-53614774D01*
X198835918Y-53586820D01*
X198825324Y-53576603D01*
X198821428Y-53576190D01*
X198809132Y-53582636D01*
X198802449Y-53605554D01*
X198800074Y-53650311D01*
X198800000Y-53664285D01*
X197268687Y-53664285D01*
X197286916Y-53644027D01*
X197306165Y-53620793D01*
X197309489Y-53614285D01*
X197290559Y-53622303D01*
X197254826Y-53643924D01*
X197207325Y-53675495D01*
X197153090Y-53713368D01*
X197097155Y-53753890D01*
X197044554Y-53793410D01*
X197000320Y-53828279D01*
X196969489Y-53854845D01*
X196957093Y-53869457D01*
X196957046Y-53869888D01*
X196948670Y-53896967D01*
X196925228Y-53943248D01*
X196889039Y-54005262D01*
X196842422Y-54079538D01*
X196787696Y-54162607D01*
X196727181Y-54250999D01*
X196663197Y-54341244D01*
X196598063Y-54429872D01*
X196534098Y-54513413D01*
X196490180Y-54568329D01*
X196426958Y-54627383D01*
X196346176Y-54676356D01*
X196258471Y-54709769D01*
X196192762Y-54721460D01*
X196132727Y-54720737D01*
X196098248Y-54707721D01*
X196088933Y-54682079D01*
X196103256Y-54645343D01*
X196147150Y-54596761D01*
X196211864Y-54564444D01*
X196299205Y-54547536D01*
X196311369Y-54546496D01*
X196373826Y-54538219D01*
X196419140Y-54524979D01*
X196434336Y-54516050D01*
X196461321Y-54487636D01*
X196500553Y-54439042D01*
X196549142Y-54374321D01*
X196604202Y-54297528D01*
X196662845Y-54212716D01*
X196722183Y-54123941D01*
X196779329Y-54035255D01*
X196797716Y-54005892D01*
X196826613Y-53957603D01*
X196839789Y-53929892D01*
X196837884Y-53919914D01*
X196821537Y-53924824D01*
X196815224Y-53928068D01*
X196783368Y-53937590D01*
X196739106Y-53942621D01*
X196728082Y-53942857D01*
X196670756Y-53930683D01*
X196620913Y-53898453D01*
X196585496Y-53852607D01*
X196571448Y-53799582D01*
X196571428Y-53797570D01*
X196577707Y-53740789D01*
X196595082Y-53665944D01*
X196621364Y-53580262D01*
X196654359Y-53490972D01*
X196669654Y-53455704D01*
X198844458Y-53455704D01*
X198851081Y-53456924D01*
X198870588Y-53447515D01*
X198897221Y-53424353D01*
X198899317Y-53422155D01*
X198918901Y-53391361D01*
X198923178Y-53362657D01*
X198911836Y-53344911D01*
X198902114Y-53342857D01*
X198888605Y-53355014D01*
X198874899Y-53383995D01*
X198866185Y-53418566D01*
X198865838Y-53421428D01*
X198854144Y-53442615D01*
X198850000Y-53446209D01*
X198844458Y-53455704D01*
X196669654Y-53455704D01*
X196687616Y-53414285D01*
X196728839Y-53326491D01*
X198131917Y-53326491D01*
X198172627Y-53343353D01*
X198207787Y-53362236D01*
X198230526Y-53380926D01*
X198245101Y-53391928D01*
X198262638Y-53384974D01*
X198283538Y-53365812D01*
X198307050Y-53333976D01*
X198313755Y-53314285D01*
X198921428Y-53314285D01*
X198924667Y-53326515D01*
X198934871Y-53328571D01*
X198954417Y-53321112D01*
X198957142Y-53314285D01*
X198946889Y-53300408D01*
X198943700Y-53300000D01*
X198924352Y-53310384D01*
X198921428Y-53314285D01*
X198313755Y-53314285D01*
X198321934Y-53290262D01*
X198327232Y-53257142D01*
X198964285Y-53257142D01*
X198964938Y-53270327D01*
X198969742Y-53271428D01*
X198989937Y-53261003D01*
X198992857Y-53257142D01*
X198992237Y-53244622D01*
X199028571Y-53244622D01*
X199037057Y-53251964D01*
X199056374Y-53244027D01*
X199077308Y-53225892D01*
X199086613Y-53212605D01*
X199094055Y-53191459D01*
X199090913Y-53185714D01*
X199071964Y-53195154D01*
X199048088Y-53216117D01*
X199030964Y-53237564D01*
X199028571Y-53244622D01*
X198992237Y-53244622D01*
X198992204Y-53243957D01*
X198987400Y-53242857D01*
X198967205Y-53253282D01*
X198964285Y-53257142D01*
X198327232Y-53257142D01*
X198329967Y-53240042D01*
X198334722Y-53192770D01*
X198336641Y-53158359D01*
X198335526Y-53145050D01*
X198323697Y-53151960D01*
X198296017Y-53174658D01*
X198257234Y-53209133D01*
X198231198Y-53233247D01*
X198131917Y-53326491D01*
X196728839Y-53326491D01*
X196744632Y-53292857D01*
X196697316Y-53257438D01*
X196612142Y-53179360D01*
X197831489Y-53179360D01*
X197834743Y-53192605D01*
X197847664Y-53223406D01*
X197859335Y-53248272D01*
X197887346Y-53294601D01*
X197913420Y-53313645D01*
X197919048Y-53314285D01*
X197939833Y-53305035D01*
X197976179Y-53279829D01*
X198023022Y-53242481D01*
X198075298Y-53196809D01*
X198076916Y-53195333D01*
X198133321Y-53144949D01*
X198188075Y-53098027D01*
X198234577Y-53060110D01*
X198264030Y-53038190D01*
X198326491Y-53006591D01*
X198378607Y-53001266D01*
X198418770Y-53021289D01*
X198445375Y-53065732D01*
X198456815Y-53133667D01*
X198457142Y-53149676D01*
X198457142Y-53215517D01*
X198553571Y-53138440D01*
X198604143Y-53100448D01*
X199100000Y-53100448D01*
X199111577Y-53112726D01*
X199121428Y-53114285D01*
X199140488Y-53111229D01*
X199142857Y-53108671D01*
X199131686Y-53099459D01*
X199121428Y-53094833D01*
X199103033Y-53094536D01*
X199100000Y-53100448D01*
X198604143Y-53100448D01*
X198677110Y-53045632D01*
X198813495Y-52953211D01*
X198948505Y-52870718D01*
X198975357Y-52855545D01*
X199018231Y-52830821D01*
X199045174Y-52813475D01*
X199052401Y-52806043D01*
X199048430Y-52806549D01*
X198981958Y-52824071D01*
X198920511Y-52837590D01*
X198858533Y-52847691D01*
X198790469Y-52854961D01*
X198710764Y-52859986D01*
X198613862Y-52863355D01*
X198494207Y-52865653D01*
X198487952Y-52865744D01*
X198154477Y-52870554D01*
X198113258Y-52932783D01*
X198064432Y-52992860D01*
X197995627Y-53058301D01*
X197913155Y-53123288D01*
X197885714Y-53142492D01*
X197853955Y-53164075D01*
X197834095Y-53177582D01*
X197831489Y-53179360D01*
X196612142Y-53179360D01*
X196598020Y-53166415D01*
X196517850Y-53058208D01*
X196505301Y-53036021D01*
X196937125Y-53036021D01*
X196948906Y-53062837D01*
X196965153Y-53080738D01*
X197005679Y-53105806D01*
X197048095Y-53102462D01*
X197084523Y-53077718D01*
X197094040Y-53058883D01*
X197176021Y-53058883D01*
X197189015Y-53094834D01*
X197212155Y-53128024D01*
X197241862Y-53151032D01*
X197266517Y-53157142D01*
X197289918Y-53147698D01*
X197319399Y-53124699D01*
X197322077Y-53122077D01*
X197346680Y-53086144D01*
X197356706Y-53047567D01*
X197350600Y-53016065D01*
X197346201Y-53011510D01*
X197443535Y-53011510D01*
X197450671Y-53055572D01*
X197471428Y-53085714D01*
X197506414Y-53110150D01*
X197540194Y-53108426D01*
X197578223Y-53080213D01*
X197579220Y-53079220D01*
X197607912Y-53036459D01*
X197614261Y-52993555D01*
X197600159Y-52957099D01*
X197567494Y-52933683D01*
X197536021Y-52928571D01*
X197489361Y-52940342D01*
X197457482Y-52970544D01*
X197443535Y-53011510D01*
X197346201Y-53011510D01*
X197340689Y-53005803D01*
X197320933Y-53008351D01*
X197297695Y-53031327D01*
X197279984Y-53062740D01*
X197268320Y-53064605D01*
X197249552Y-53049757D01*
X197231708Y-53025718D01*
X197225242Y-53011442D01*
X197210579Y-53005016D01*
X197194781Y-53008381D01*
X197176750Y-53027591D01*
X197176021Y-53058883D01*
X197094040Y-53058883D01*
X197100504Y-53046091D01*
X197103710Y-53003055D01*
X197093937Y-52962857D01*
X197086346Y-52950761D01*
X197061051Y-52936081D01*
X197023993Y-52929258D01*
X196987711Y-52931053D01*
X196964746Y-52942228D01*
X196963998Y-52943322D01*
X196953797Y-52966793D01*
X196942356Y-53001744D01*
X196937125Y-53036021D01*
X196505301Y-53036021D01*
X196502219Y-53030572D01*
X196471504Y-52981183D01*
X196440421Y-52944821D01*
X196421962Y-52931413D01*
X196376709Y-52902806D01*
X196325019Y-52858337D01*
X196275434Y-52806474D01*
X196236495Y-52755686D01*
X196225188Y-52736356D01*
X196179171Y-52621236D01*
X196159290Y-52505903D01*
X196165829Y-52389295D01*
X196199076Y-52270349D01*
X196259316Y-52148003D01*
X196346836Y-52021195D01*
X196450000Y-51901481D01*
X196536827Y-51809840D01*
X196607649Y-51737977D01*
X196665140Y-51684052D01*
X196711974Y-51646224D01*
X196750826Y-51622653D01*
X196784372Y-51611498D01*
X196815286Y-51610919D01*
X196846242Y-51619076D01*
G37*
%TO.C,M1*%
D12*
X202620000Y-86580000D02*
X204000000Y-86580000D01*
X202620000Y-87960000D02*
X202620000Y-86580000D01*
X202620000Y-89230000D02*
X202620000Y-91880000D01*
X202620000Y-89230000D02*
X205380000Y-89230000D01*
X202620000Y-91880000D02*
X205380000Y-91880000D01*
X205380000Y-89230000D02*
X205380000Y-91880000D01*
%TO.C,C1*%
X209687651Y-110185000D02*
X210487651Y-110185000D01*
X210087651Y-109785000D02*
X210087651Y-110585000D01*
X214097349Y-108420000D02*
X214097349Y-116580000D01*
X214137349Y-108420000D02*
X214137349Y-116580000D01*
X214177349Y-108421000D02*
X214177349Y-116579000D01*
X214217349Y-108422000D02*
X214217349Y-116578000D01*
X214257349Y-108423000D02*
X214257349Y-116577000D01*
X214297349Y-108425000D02*
X214297349Y-116575000D01*
X214337349Y-108427000D02*
X214337349Y-116573000D01*
X214377349Y-108430000D02*
X214377349Y-116570000D01*
X214417349Y-108432000D02*
X214417349Y-116568000D01*
X214457349Y-108436000D02*
X214457349Y-116564000D01*
X214497349Y-108439000D02*
X214497349Y-116561000D01*
X214537349Y-108444000D02*
X214537349Y-116556000D01*
X214577349Y-108448000D02*
X214577349Y-116552000D01*
X214617349Y-108453000D02*
X214617349Y-116547000D01*
X214657349Y-108458000D02*
X214657349Y-116542000D01*
X214697349Y-108464000D02*
X214697349Y-116536000D01*
X214737349Y-108470000D02*
X214737349Y-116530000D01*
X214777349Y-108477000D02*
X214777349Y-116523000D01*
X214817349Y-108483000D02*
X214817349Y-116517000D01*
X214857349Y-108491000D02*
X214857349Y-116509000D01*
X214897349Y-108498000D02*
X214897349Y-116502000D01*
X214937349Y-108507000D02*
X214937349Y-116493000D01*
X214977349Y-108515000D02*
X214977349Y-116485000D01*
X215017349Y-108524000D02*
X215017349Y-116476000D01*
X215057349Y-108533000D02*
X215057349Y-116467000D01*
X215097349Y-108543000D02*
X215097349Y-116457000D01*
X215137349Y-108553000D02*
X215137349Y-116447000D01*
X215177349Y-108564000D02*
X215177349Y-116436000D01*
X215217349Y-108575000D02*
X215217349Y-116425000D01*
X215257349Y-108587000D02*
X215257349Y-116413000D01*
X215297349Y-108599000D02*
X215297349Y-116401000D01*
X215337349Y-108611000D02*
X215337349Y-116389000D01*
X215377349Y-108624000D02*
X215377349Y-116376000D01*
X215417349Y-108637000D02*
X215417349Y-116363000D01*
X215457349Y-108651000D02*
X215457349Y-116349000D01*
X215497349Y-108665000D02*
X215497349Y-116335000D01*
X215537349Y-108680000D02*
X215537349Y-116320000D01*
X215577349Y-108695000D02*
X215577349Y-111460000D01*
X215577349Y-113540000D02*
X215577349Y-116305000D01*
X215617349Y-108711000D02*
X215617349Y-111460000D01*
X215617349Y-113540000D02*
X215617349Y-116289000D01*
X215657349Y-108727000D02*
X215657349Y-111460000D01*
X215657349Y-113540000D02*
X215657349Y-116273000D01*
X215697349Y-108743000D02*
X215697349Y-111460000D01*
X215697349Y-113540000D02*
X215697349Y-116257000D01*
X215737349Y-108760000D02*
X215737349Y-111460000D01*
X215737349Y-113540000D02*
X215737349Y-116240000D01*
X215777349Y-108778000D02*
X215777349Y-111460000D01*
X215777349Y-113540000D02*
X215777349Y-116222000D01*
X215817349Y-108796000D02*
X215817349Y-111460000D01*
X215817349Y-113540000D02*
X215817349Y-116204000D01*
X215857349Y-108815000D02*
X215857349Y-111460000D01*
X215857349Y-113540000D02*
X215857349Y-116185000D01*
X215897349Y-108834000D02*
X215897349Y-111460000D01*
X215897349Y-113540000D02*
X215897349Y-116166000D01*
X215937349Y-108854000D02*
X215937349Y-111460000D01*
X215937349Y-113540000D02*
X215937349Y-116146000D01*
X215977349Y-108874000D02*
X215977349Y-111460000D01*
X215977349Y-113540000D02*
X215977349Y-116126000D01*
X216017349Y-108895000D02*
X216017349Y-111460000D01*
X216017349Y-113540000D02*
X216017349Y-116105000D01*
X216057349Y-108916000D02*
X216057349Y-111460000D01*
X216057349Y-113540000D02*
X216057349Y-116084000D01*
X216097349Y-108938000D02*
X216097349Y-111460000D01*
X216097349Y-113540000D02*
X216097349Y-116062000D01*
X216137349Y-108961000D02*
X216137349Y-111460000D01*
X216137349Y-113540000D02*
X216137349Y-116039000D01*
X216177349Y-108984000D02*
X216177349Y-111460000D01*
X216177349Y-113540000D02*
X216177349Y-116016000D01*
X216217349Y-109007000D02*
X216217349Y-111460000D01*
X216217349Y-113540000D02*
X216217349Y-115993000D01*
X216257349Y-109032000D02*
X216257349Y-111460000D01*
X216257349Y-113540000D02*
X216257349Y-115968000D01*
X216297349Y-109057000D02*
X216297349Y-111460000D01*
X216297349Y-113540000D02*
X216297349Y-115943000D01*
X216337349Y-109082000D02*
X216337349Y-111460000D01*
X216337349Y-113540000D02*
X216337349Y-115918000D01*
X216377349Y-109108000D02*
X216377349Y-111460000D01*
X216377349Y-113540000D02*
X216377349Y-115892000D01*
X216417349Y-109135000D02*
X216417349Y-111460000D01*
X216417349Y-113540000D02*
X216417349Y-115865000D01*
X216457349Y-109163000D02*
X216457349Y-111460000D01*
X216457349Y-113540000D02*
X216457349Y-115837000D01*
X216497349Y-109191000D02*
X216497349Y-111460000D01*
X216497349Y-113540000D02*
X216497349Y-115809000D01*
X216537349Y-109220000D02*
X216537349Y-111460000D01*
X216537349Y-113540000D02*
X216537349Y-115780000D01*
X216577349Y-109250000D02*
X216577349Y-111460000D01*
X216577349Y-113540000D02*
X216577349Y-115750000D01*
X216617349Y-109281000D02*
X216617349Y-111460000D01*
X216617349Y-113540000D02*
X216617349Y-115719000D01*
X216657349Y-109312000D02*
X216657349Y-111460000D01*
X216657349Y-113540000D02*
X216657349Y-115688000D01*
X216697349Y-109344000D02*
X216697349Y-111460000D01*
X216697349Y-113540000D02*
X216697349Y-115656000D01*
X216737349Y-109377000D02*
X216737349Y-111460000D01*
X216737349Y-113540000D02*
X216737349Y-115623000D01*
X216777349Y-109411000D02*
X216777349Y-111460000D01*
X216777349Y-113540000D02*
X216777349Y-115589000D01*
X216817349Y-109445000D02*
X216817349Y-111460000D01*
X216817349Y-113540000D02*
X216817349Y-115555000D01*
X216857349Y-109481000D02*
X216857349Y-111460000D01*
X216857349Y-113540000D02*
X216857349Y-115519000D01*
X216897349Y-109518000D02*
X216897349Y-111460000D01*
X216897349Y-113540000D02*
X216897349Y-115482000D01*
X216937349Y-109555000D02*
X216937349Y-111460000D01*
X216937349Y-113540000D02*
X216937349Y-115445000D01*
X216977349Y-109594000D02*
X216977349Y-111460000D01*
X216977349Y-113540000D02*
X216977349Y-115406000D01*
X217017349Y-109633000D02*
X217017349Y-111460000D01*
X217017349Y-113540000D02*
X217017349Y-115367000D01*
X217057349Y-109674000D02*
X217057349Y-111460000D01*
X217057349Y-113540000D02*
X217057349Y-115326000D01*
X217097349Y-109716000D02*
X217097349Y-111460000D01*
X217097349Y-113540000D02*
X217097349Y-115284000D01*
X217137349Y-109759000D02*
X217137349Y-111460000D01*
X217137349Y-113540000D02*
X217137349Y-115241000D01*
X217177349Y-109804000D02*
X217177349Y-111460000D01*
X217177349Y-113540000D02*
X217177349Y-115196000D01*
X217217349Y-109849000D02*
X217217349Y-111460000D01*
X217217349Y-113540000D02*
X217217349Y-115151000D01*
X217257349Y-109896000D02*
X217257349Y-111460000D01*
X217257349Y-113540000D02*
X217257349Y-115104000D01*
X217297349Y-109945000D02*
X217297349Y-111460000D01*
X217297349Y-113540000D02*
X217297349Y-115055000D01*
X217337349Y-109995000D02*
X217337349Y-111460000D01*
X217337349Y-113540000D02*
X217337349Y-115005000D01*
X217377349Y-110047000D02*
X217377349Y-111460000D01*
X217377349Y-113540000D02*
X217377349Y-114953000D01*
X217417349Y-110100000D02*
X217417349Y-111460000D01*
X217417349Y-113540000D02*
X217417349Y-114900000D01*
X217457349Y-110156000D02*
X217457349Y-111460000D01*
X217457349Y-113540000D02*
X217457349Y-114844000D01*
X217497349Y-110213000D02*
X217497349Y-111460000D01*
X217497349Y-113540000D02*
X217497349Y-114787000D01*
X217537349Y-110273000D02*
X217537349Y-111460000D01*
X217537349Y-113540000D02*
X217537349Y-114727000D01*
X217577349Y-110335000D02*
X217577349Y-111460000D01*
X217577349Y-113540000D02*
X217577349Y-114665000D01*
X217617349Y-110399000D02*
X217617349Y-111460000D01*
X217617349Y-113540000D02*
X217617349Y-114601000D01*
X217657349Y-110466000D02*
X217657349Y-114534000D01*
X217697349Y-110536000D02*
X217697349Y-114464000D01*
X217737349Y-110610000D02*
X217737349Y-114390000D01*
X217777349Y-110687000D02*
X217777349Y-114313000D01*
X217817349Y-110769000D02*
X217817349Y-114231000D01*
X217857349Y-110856000D02*
X217857349Y-114144000D01*
X217897349Y-110948000D02*
X217897349Y-114052000D01*
X217937349Y-111047000D02*
X217937349Y-113953000D01*
X217977349Y-111154000D02*
X217977349Y-113846000D01*
X218017349Y-111272000D02*
X218017349Y-113728000D01*
X218057349Y-111403000D02*
X218057349Y-113597000D01*
X218097349Y-111553000D02*
X218097349Y-113447000D01*
X218137349Y-111732000D02*
X218137349Y-113268000D01*
X218177349Y-111967000D02*
X218177349Y-113033000D01*
X218217349Y-112500000D02*
G75*
G02*
X209977349Y-112500000I-4120000J0D01*
G01*
X209977349Y-112500000D02*
G75*
G02*
X218217349Y-112500000I4120000J0D01*
G01*
%TO.C,RV1*%
X219330000Y-105630000D02*
X222618000Y-105630000D01*
X219330000Y-112450000D02*
X219330000Y-105630000D01*
X222618000Y-112450000D02*
X219330000Y-112450000D01*
X223382000Y-105630000D02*
X226550000Y-105630000D01*
X226550000Y-105630000D02*
X226550000Y-112450000D01*
X226550000Y-112450000D02*
X223382000Y-112450000D01*
%TO.C,SW1*%
X200750000Y-99500000D02*
X200750000Y-101000000D01*
X202000000Y-103500000D02*
X206500000Y-103500000D01*
X206500000Y-97000000D02*
X202000000Y-97000000D01*
X207750000Y-101000000D02*
X207750000Y-99500000D01*
%TO.C,D1*%
X218170000Y-83455000D02*
X218170000Y-86545000D01*
X218170000Y-83455170D02*
G75*
G02*
X223720000Y-85000000I2560000J-1544830D01*
G01*
X223720000Y-85000000D02*
G75*
G02*
X218170000Y-86544830I-2990000J0D01*
G01*
X223230000Y-85000000D02*
G75*
G02*
X218230000Y-85000000I-2500000J0D01*
G01*
X218230000Y-85000000D02*
G75*
G02*
X223230000Y-85000000I2500000J0D01*
G01*
%TO.C,D5*%
X202209999Y-111955001D02*
X202210000Y-115045000D01*
X202210000Y-111955169D02*
G75*
G02*
X207760000Y-113500000I2560000J-1544831D01*
G01*
X207760001Y-113500000D02*
G75*
G02*
X202209999Y-115044831I-2990001J0D01*
G01*
X207269999Y-113500000D02*
G75*
G02*
X202270001Y-113500000I-2499999J0D01*
G01*
X202270001Y-113500000D02*
G75*
G02*
X207269999Y-113500000I2499999J0D01*
G01*
%TO.C,BT1*%
X194205000Y-68540000D02*
X194205000Y-71000000D01*
X194205000Y-77000000D02*
X194205000Y-77630000D01*
X194205000Y-77630000D02*
X195645000Y-81580000D01*
X196285000Y-66460000D02*
X194205000Y-68540000D01*
X199785000Y-66460000D02*
X196285000Y-66460000D01*
X213685000Y-66460000D02*
X210185000Y-66460000D01*
X213685000Y-66460000D02*
X215765000Y-68540000D01*
X215765000Y-68540000D02*
X215765000Y-71000000D01*
X215765000Y-77000000D02*
X215765000Y-77630000D01*
X215765000Y-77630000D02*
X214325000Y-81580000D01*
X198981646Y-82566530D02*
G75*
G02*
X195645000Y-81580000I-1306646J1716531D01*
G01*
X214310243Y-81588169D02*
G75*
G02*
X210985000Y-82550000I-2015243J738169D01*
G01*
%TO.C,R1*%
X185750000Y-106850000D02*
X188800000Y-106850000D01*
X185750000Y-111150000D02*
X188800000Y-111150000D01*
X185750000Y-111150000D02*
G75*
G02*
X185771766Y-106834475I1550000J2150000D01*
G01*
X188800000Y-106850000D02*
G75*
G02*
X188844513Y-111118249I-1500000J-2150000D01*
G01*
%TO.C,D2*%
X203210000Y-52955000D02*
X203210000Y-56045000D01*
X203210000Y-52955170D02*
G75*
G02*
X208760000Y-54500000I2560000J-1544830D01*
G01*
X208760000Y-54500000D02*
G75*
G02*
X203210000Y-56044830I-2990000J0D01*
G01*
X208270000Y-54500000D02*
G75*
G02*
X203270000Y-54500000I-2500000J0D01*
G01*
X203270000Y-54500000D02*
G75*
G02*
X208270000Y-54500000I2500000J0D01*
G01*
%TO.C,D3*%
X187170000Y-82955000D02*
X187170000Y-86045000D01*
X187170000Y-82955170D02*
G75*
G02*
X192720000Y-84500000I2560000J-1544830D01*
G01*
X192720000Y-84500000D02*
G75*
G02*
X187170000Y-86044830I-2990000J0D01*
G01*
X192230000Y-84500000D02*
G75*
G02*
X187230000Y-84500000I-2500000J0D01*
G01*
X187230000Y-84500000D02*
G75*
G02*
X192230000Y-84500000I2500000J0D01*
G01*
%TO.C,D4*%
X178429399Y-112738238D02*
X177372556Y-115641888D01*
X178429340Y-112738398D02*
G75*
G02*
X183116273Y-116088275I1877251J-2327237D01*
G01*
X183116272Y-116088275D02*
G75*
G02*
X177372615Y-115641727I-2809681J1022640D01*
G01*
X182806590Y-115065635D02*
G75*
G02*
X177806592Y-115065635I-2499999J0D01*
G01*
X177806592Y-115065635D02*
G75*
G02*
X182806590Y-115065635I2499999J0D01*
G01*
%TO.C,C2*%
X192187651Y-109685000D02*
X192987651Y-109685000D01*
X192587651Y-109285000D02*
X192587651Y-110085000D01*
X196597349Y-107920000D02*
X196597349Y-116080000D01*
X196637349Y-107920000D02*
X196637349Y-116080000D01*
X196677349Y-107921000D02*
X196677349Y-116079000D01*
X196717349Y-107922000D02*
X196717349Y-116078000D01*
X196757349Y-107923000D02*
X196757349Y-116077000D01*
X196797349Y-107925000D02*
X196797349Y-116075000D01*
X196837349Y-107927000D02*
X196837349Y-116073000D01*
X196877349Y-107930000D02*
X196877349Y-116070000D01*
X196917349Y-107932000D02*
X196917349Y-116068000D01*
X196957349Y-107936000D02*
X196957349Y-116064000D01*
X196997349Y-107939000D02*
X196997349Y-116061000D01*
X197037349Y-107944000D02*
X197037349Y-116056000D01*
X197077349Y-107948000D02*
X197077349Y-116052000D01*
X197117349Y-107953000D02*
X197117349Y-116047000D01*
X197157349Y-107958000D02*
X197157349Y-116042000D01*
X197197349Y-107964000D02*
X197197349Y-116036000D01*
X197237349Y-107970000D02*
X197237349Y-116030000D01*
X197277349Y-107977000D02*
X197277349Y-116023000D01*
X197317349Y-107983000D02*
X197317349Y-116017000D01*
X197357349Y-107991000D02*
X197357349Y-116009000D01*
X197397349Y-107998000D02*
X197397349Y-116002000D01*
X197437349Y-108007000D02*
X197437349Y-115993000D01*
X197477349Y-108015000D02*
X197477349Y-115985000D01*
X197517349Y-108024000D02*
X197517349Y-115976000D01*
X197557349Y-108033000D02*
X197557349Y-115967000D01*
X197597349Y-108043000D02*
X197597349Y-115957000D01*
X197637349Y-108053000D02*
X197637349Y-115947000D01*
X197677349Y-108064000D02*
X197677349Y-115936000D01*
X197717349Y-108075000D02*
X197717349Y-115925000D01*
X197757349Y-108087000D02*
X197757349Y-115913000D01*
X197797349Y-108099000D02*
X197797349Y-115901000D01*
X197837349Y-108111000D02*
X197837349Y-115889000D01*
X197877349Y-108124000D02*
X197877349Y-115876000D01*
X197917349Y-108137000D02*
X197917349Y-115863000D01*
X197957349Y-108151000D02*
X197957349Y-115849000D01*
X197997349Y-108165000D02*
X197997349Y-115835000D01*
X198037349Y-108180000D02*
X198037349Y-115820000D01*
X198077349Y-108195000D02*
X198077349Y-110960000D01*
X198077349Y-113040000D02*
X198077349Y-115805000D01*
X198117349Y-108211000D02*
X198117349Y-110960000D01*
X198117349Y-113040000D02*
X198117349Y-115789000D01*
X198157349Y-108227000D02*
X198157349Y-110960000D01*
X198157349Y-113040000D02*
X198157349Y-115773000D01*
X198197349Y-108243000D02*
X198197349Y-110960000D01*
X198197349Y-113040000D02*
X198197349Y-115757000D01*
X198237349Y-108260000D02*
X198237349Y-110960000D01*
X198237349Y-113040000D02*
X198237349Y-115740000D01*
X198277349Y-108278000D02*
X198277349Y-110960000D01*
X198277349Y-113040000D02*
X198277349Y-115722000D01*
X198317349Y-108296000D02*
X198317349Y-110960000D01*
X198317349Y-113040000D02*
X198317349Y-115704000D01*
X198357349Y-108315000D02*
X198357349Y-110960000D01*
X198357349Y-113040000D02*
X198357349Y-115685000D01*
X198397349Y-108334000D02*
X198397349Y-110960000D01*
X198397349Y-113040000D02*
X198397349Y-115666000D01*
X198437349Y-108354000D02*
X198437349Y-110960000D01*
X198437349Y-113040000D02*
X198437349Y-115646000D01*
X198477349Y-108374000D02*
X198477349Y-110960000D01*
X198477349Y-113040000D02*
X198477349Y-115626000D01*
X198517349Y-108395000D02*
X198517349Y-110960000D01*
X198517349Y-113040000D02*
X198517349Y-115605000D01*
X198557349Y-108416000D02*
X198557349Y-110960000D01*
X198557349Y-113040000D02*
X198557349Y-115584000D01*
X198597349Y-108438000D02*
X198597349Y-110960000D01*
X198597349Y-113040000D02*
X198597349Y-115562000D01*
X198637349Y-108461000D02*
X198637349Y-110960000D01*
X198637349Y-113040000D02*
X198637349Y-115539000D01*
X198677349Y-108484000D02*
X198677349Y-110960000D01*
X198677349Y-113040000D02*
X198677349Y-115516000D01*
X198717349Y-108507000D02*
X198717349Y-110960000D01*
X198717349Y-113040000D02*
X198717349Y-115493000D01*
X198757349Y-108532000D02*
X198757349Y-110960000D01*
X198757349Y-113040000D02*
X198757349Y-115468000D01*
X198797349Y-108557000D02*
X198797349Y-110960000D01*
X198797349Y-113040000D02*
X198797349Y-115443000D01*
X198837349Y-108582000D02*
X198837349Y-110960000D01*
X198837349Y-113040000D02*
X198837349Y-115418000D01*
X198877349Y-108608000D02*
X198877349Y-110960000D01*
X198877349Y-113040000D02*
X198877349Y-115392000D01*
X198917349Y-108635000D02*
X198917349Y-110960000D01*
X198917349Y-113040000D02*
X198917349Y-115365000D01*
X198957349Y-108663000D02*
X198957349Y-110960000D01*
X198957349Y-113040000D02*
X198957349Y-115337000D01*
X198997349Y-108691000D02*
X198997349Y-110960000D01*
X198997349Y-113040000D02*
X198997349Y-115309000D01*
X199037349Y-108720000D02*
X199037349Y-110960000D01*
X199037349Y-113040000D02*
X199037349Y-115280000D01*
X199077349Y-108750000D02*
X199077349Y-110960000D01*
X199077349Y-113040000D02*
X199077349Y-115250000D01*
X199117349Y-108781000D02*
X199117349Y-110960000D01*
X199117349Y-113040000D02*
X199117349Y-115219000D01*
X199157349Y-108812000D02*
X199157349Y-110960000D01*
X199157349Y-113040000D02*
X199157349Y-115188000D01*
X199197349Y-108844000D02*
X199197349Y-110960000D01*
X199197349Y-113040000D02*
X199197349Y-115156000D01*
X199237349Y-108877000D02*
X199237349Y-110960000D01*
X199237349Y-113040000D02*
X199237349Y-115123000D01*
X199277349Y-108911000D02*
X199277349Y-110960000D01*
X199277349Y-113040000D02*
X199277349Y-115089000D01*
X199317349Y-108945000D02*
X199317349Y-110960000D01*
X199317349Y-113040000D02*
X199317349Y-115055000D01*
X199357349Y-108981000D02*
X199357349Y-110960000D01*
X199357349Y-113040000D02*
X199357349Y-115019000D01*
X199397349Y-109018000D02*
X199397349Y-110960000D01*
X199397349Y-113040000D02*
X199397349Y-114982000D01*
X199437349Y-109055000D02*
X199437349Y-110960000D01*
X199437349Y-113040000D02*
X199437349Y-114945000D01*
X199477349Y-109094000D02*
X199477349Y-110960000D01*
X199477349Y-113040000D02*
X199477349Y-114906000D01*
X199517349Y-109133000D02*
X199517349Y-110960000D01*
X199517349Y-113040000D02*
X199517349Y-114867000D01*
X199557349Y-109174000D02*
X199557349Y-110960000D01*
X199557349Y-113040000D02*
X199557349Y-114826000D01*
X199597349Y-109216000D02*
X199597349Y-110960000D01*
X199597349Y-113040000D02*
X199597349Y-114784000D01*
X199637349Y-109259000D02*
X199637349Y-110960000D01*
X199637349Y-113040000D02*
X199637349Y-114741000D01*
X199677349Y-109304000D02*
X199677349Y-110960000D01*
X199677349Y-113040000D02*
X199677349Y-114696000D01*
X199717349Y-109349000D02*
X199717349Y-110960000D01*
X199717349Y-113040000D02*
X199717349Y-114651000D01*
X199757349Y-109396000D02*
X199757349Y-110960000D01*
X199757349Y-113040000D02*
X199757349Y-114604000D01*
X199797349Y-109445000D02*
X199797349Y-110960000D01*
X199797349Y-113040000D02*
X199797349Y-114555000D01*
X199837349Y-109495000D02*
X199837349Y-110960000D01*
X199837349Y-113040000D02*
X199837349Y-114505000D01*
X199877349Y-109547000D02*
X199877349Y-110960000D01*
X199877349Y-113040000D02*
X199877349Y-114453000D01*
X199917349Y-109600000D02*
X199917349Y-110960000D01*
X199917349Y-113040000D02*
X199917349Y-114400000D01*
X199957349Y-109656000D02*
X199957349Y-110960000D01*
X199957349Y-113040000D02*
X199957349Y-114344000D01*
X199997349Y-109713000D02*
X199997349Y-110960000D01*
X199997349Y-113040000D02*
X199997349Y-114287000D01*
X200037349Y-109773000D02*
X200037349Y-110960000D01*
X200037349Y-113040000D02*
X200037349Y-114227000D01*
X200077349Y-109835000D02*
X200077349Y-110960000D01*
X200077349Y-113040000D02*
X200077349Y-114165000D01*
X200117349Y-109899000D02*
X200117349Y-110960000D01*
X200117349Y-113040000D02*
X200117349Y-114101000D01*
X200157349Y-109966000D02*
X200157349Y-114034000D01*
X200197349Y-110036000D02*
X200197349Y-113964000D01*
X200237349Y-110110000D02*
X200237349Y-113890000D01*
X200277349Y-110187000D02*
X200277349Y-113813000D01*
X200317349Y-110269000D02*
X200317349Y-113731000D01*
X200357349Y-110356000D02*
X200357349Y-113644000D01*
X200397349Y-110448000D02*
X200397349Y-113552000D01*
X200437349Y-110547000D02*
X200437349Y-113453000D01*
X200477349Y-110654000D02*
X200477349Y-113346000D01*
X200517349Y-110772000D02*
X200517349Y-113228000D01*
X200557349Y-110903000D02*
X200557349Y-113097000D01*
X200597349Y-111053000D02*
X200597349Y-112947000D01*
X200637349Y-111232000D02*
X200637349Y-112768000D01*
X200677349Y-111467000D02*
X200677349Y-112533000D01*
X200717349Y-112000000D02*
G75*
G02*
X192477349Y-112000000I-4120000J0D01*
G01*
X192477349Y-112000000D02*
G75*
G02*
X200717349Y-112000000I4120000J0D01*
G01*
%TD*%
M02*
