%TF.GenerationSoftware,KiCad,Pcbnew,10.0.5*%
%TF.CreationDate,2026-09-04T14:01:11+05:30*%
%TF.ProjectId,Rocket_solder,526f636b-6574-45f7-936f-6c6465722e6b,rev?*%
%TF.SameCoordinates,Original*%
%TF.FileFunction,Legend,Bot*%
%TF.FilePolarity,Positive*%
%FSLAX46Y46*%
G04 Gerber Fmt 4.6, Leading zero omitted, Abs format (unit mm)*
G04 Created by KiCad (PCBNEW 10.0.5) date 2026-09-04 14:01:11*
%MOMM*%
%LPD*%
G01*
G04 APERTURE LIST*
%ADD10C,0.150000*%
%ADD11C,0.120000*%
G04 APERTURE END LIST*
D10*
X222325238Y-113490057D02*
X222420476Y-113442438D01*
X222420476Y-113442438D02*
X222515714Y-113347200D01*
X222515714Y-113347200D02*
X222658571Y-113204342D01*
X222658571Y-113204342D02*
X222753809Y-113156723D01*
X222753809Y-113156723D02*
X222849047Y-113156723D01*
X222801428Y-113394819D02*
X222896666Y-113347200D01*
X222896666Y-113347200D02*
X222991904Y-113251961D01*
X222991904Y-113251961D02*
X223039523Y-113061485D01*
X223039523Y-113061485D02*
X223039523Y-112728152D01*
X223039523Y-112728152D02*
X222991904Y-112537676D01*
X222991904Y-112537676D02*
X222896666Y-112442438D01*
X222896666Y-112442438D02*
X222801428Y-112394819D01*
X222801428Y-112394819D02*
X222610952Y-112394819D01*
X222610952Y-112394819D02*
X222515714Y-112442438D01*
X222515714Y-112442438D02*
X222420476Y-112537676D01*
X222420476Y-112537676D02*
X222372857Y-112728152D01*
X222372857Y-112728152D02*
X222372857Y-113061485D01*
X222372857Y-113061485D02*
X222420476Y-113251961D01*
X222420476Y-113251961D02*
X222515714Y-113347200D01*
X222515714Y-113347200D02*
X222610952Y-113394819D01*
X222610952Y-113394819D02*
X222801428Y-113394819D01*
X222039523Y-112394819D02*
X221372857Y-112394819D01*
X221372857Y-112394819D02*
X221801428Y-113394819D01*
X189726666Y-91454819D02*
X190059999Y-90978628D01*
X190298094Y-91454819D02*
X190298094Y-90454819D01*
X190298094Y-90454819D02*
X189917142Y-90454819D01*
X189917142Y-90454819D02*
X189821904Y-90502438D01*
X189821904Y-90502438D02*
X189774285Y-90550057D01*
X189774285Y-90550057D02*
X189726666Y-90645295D01*
X189726666Y-90645295D02*
X189726666Y-90788152D01*
X189726666Y-90788152D02*
X189774285Y-90883390D01*
X189774285Y-90883390D02*
X189821904Y-90931009D01*
X189821904Y-90931009D02*
X189917142Y-90978628D01*
X189917142Y-90978628D02*
X190298094Y-90978628D01*
X188869523Y-90788152D02*
X188869523Y-91454819D01*
X189107618Y-90407200D02*
X189345713Y-91121485D01*
X189345713Y-91121485D02*
X188726666Y-91121485D01*
X210595238Y-58490057D02*
X210690476Y-58442438D01*
X210690476Y-58442438D02*
X210785714Y-58347200D01*
X210785714Y-58347200D02*
X210928571Y-58204342D01*
X210928571Y-58204342D02*
X211023809Y-58156723D01*
X211023809Y-58156723D02*
X211119047Y-58156723D01*
X211071428Y-58394819D02*
X211166666Y-58347200D01*
X211166666Y-58347200D02*
X211261904Y-58251961D01*
X211261904Y-58251961D02*
X211309523Y-58061485D01*
X211309523Y-58061485D02*
X211309523Y-57728152D01*
X211309523Y-57728152D02*
X211261904Y-57537676D01*
X211261904Y-57537676D02*
X211166666Y-57442438D01*
X211166666Y-57442438D02*
X211071428Y-57394819D01*
X211071428Y-57394819D02*
X210880952Y-57394819D01*
X210880952Y-57394819D02*
X210785714Y-57442438D01*
X210785714Y-57442438D02*
X210690476Y-57537676D01*
X210690476Y-57537676D02*
X210642857Y-57728152D01*
X210642857Y-57728152D02*
X210642857Y-58061485D01*
X210642857Y-58061485D02*
X210690476Y-58251961D01*
X210690476Y-58251961D02*
X210785714Y-58347200D01*
X210785714Y-58347200D02*
X210880952Y-58394819D01*
X210880952Y-58394819D02*
X211071428Y-58394819D01*
X210309523Y-57394819D02*
X209690476Y-57394819D01*
X209690476Y-57394819D02*
X210023809Y-57775771D01*
X210023809Y-57775771D02*
X209880952Y-57775771D01*
X209880952Y-57775771D02*
X209785714Y-57823390D01*
X209785714Y-57823390D02*
X209738095Y-57871009D01*
X209738095Y-57871009D02*
X209690476Y-57966247D01*
X209690476Y-57966247D02*
X209690476Y-58204342D01*
X209690476Y-58204342D02*
X209738095Y-58299580D01*
X209738095Y-58299580D02*
X209785714Y-58347200D01*
X209785714Y-58347200D02*
X209880952Y-58394819D01*
X209880952Y-58394819D02*
X210166666Y-58394819D01*
X210166666Y-58394819D02*
X210261904Y-58347200D01*
X210261904Y-58347200D02*
X210309523Y-58299580D01*
X197325238Y-85490057D02*
X197420476Y-85442438D01*
X197420476Y-85442438D02*
X197515714Y-85347200D01*
X197515714Y-85347200D02*
X197658571Y-85204342D01*
X197658571Y-85204342D02*
X197753809Y-85156723D01*
X197753809Y-85156723D02*
X197849047Y-85156723D01*
X197801428Y-85394819D02*
X197896666Y-85347200D01*
X197896666Y-85347200D02*
X197991904Y-85251961D01*
X197991904Y-85251961D02*
X198039523Y-85061485D01*
X198039523Y-85061485D02*
X198039523Y-84728152D01*
X198039523Y-84728152D02*
X197991904Y-84537676D01*
X197991904Y-84537676D02*
X197896666Y-84442438D01*
X197896666Y-84442438D02*
X197801428Y-84394819D01*
X197801428Y-84394819D02*
X197610952Y-84394819D01*
X197610952Y-84394819D02*
X197515714Y-84442438D01*
X197515714Y-84442438D02*
X197420476Y-84537676D01*
X197420476Y-84537676D02*
X197372857Y-84728152D01*
X197372857Y-84728152D02*
X197372857Y-85061485D01*
X197372857Y-85061485D02*
X197420476Y-85251961D01*
X197420476Y-85251961D02*
X197515714Y-85347200D01*
X197515714Y-85347200D02*
X197610952Y-85394819D01*
X197610952Y-85394819D02*
X197801428Y-85394819D01*
X196515714Y-84728152D02*
X196515714Y-85394819D01*
X196753809Y-84347200D02*
X196991904Y-85061485D01*
X196991904Y-85061485D02*
X196372857Y-85061485D01*
X205325238Y-104490057D02*
X205420476Y-104442438D01*
X205420476Y-104442438D02*
X205515714Y-104347200D01*
X205515714Y-104347200D02*
X205658571Y-104204342D01*
X205658571Y-104204342D02*
X205753809Y-104156723D01*
X205753809Y-104156723D02*
X205849047Y-104156723D01*
X205801428Y-104394819D02*
X205896666Y-104347200D01*
X205896666Y-104347200D02*
X205991904Y-104251961D01*
X205991904Y-104251961D02*
X206039523Y-104061485D01*
X206039523Y-104061485D02*
X206039523Y-103728152D01*
X206039523Y-103728152D02*
X205991904Y-103537676D01*
X205991904Y-103537676D02*
X205896666Y-103442438D01*
X205896666Y-103442438D02*
X205801428Y-103394819D01*
X205801428Y-103394819D02*
X205610952Y-103394819D01*
X205610952Y-103394819D02*
X205515714Y-103442438D01*
X205515714Y-103442438D02*
X205420476Y-103537676D01*
X205420476Y-103537676D02*
X205372857Y-103728152D01*
X205372857Y-103728152D02*
X205372857Y-104061485D01*
X205372857Y-104061485D02*
X205420476Y-104251961D01*
X205420476Y-104251961D02*
X205515714Y-104347200D01*
X205515714Y-104347200D02*
X205610952Y-104394819D01*
X205610952Y-104394819D02*
X205801428Y-104394819D01*
X204515714Y-103394819D02*
X204706190Y-103394819D01*
X204706190Y-103394819D02*
X204801428Y-103442438D01*
X204801428Y-103442438D02*
X204849047Y-103490057D01*
X204849047Y-103490057D02*
X204944285Y-103632914D01*
X204944285Y-103632914D02*
X204991904Y-103823390D01*
X204991904Y-103823390D02*
X204991904Y-104204342D01*
X204991904Y-104204342D02*
X204944285Y-104299580D01*
X204944285Y-104299580D02*
X204896666Y-104347200D01*
X204896666Y-104347200D02*
X204801428Y-104394819D01*
X204801428Y-104394819D02*
X204610952Y-104394819D01*
X204610952Y-104394819D02*
X204515714Y-104347200D01*
X204515714Y-104347200D02*
X204468095Y-104299580D01*
X204468095Y-104299580D02*
X204420476Y-104204342D01*
X204420476Y-104204342D02*
X204420476Y-103966247D01*
X204420476Y-103966247D02*
X204468095Y-103871009D01*
X204468095Y-103871009D02*
X204515714Y-103823390D01*
X204515714Y-103823390D02*
X204610952Y-103775771D01*
X204610952Y-103775771D02*
X204801428Y-103775771D01*
X204801428Y-103775771D02*
X204896666Y-103823390D01*
X204896666Y-103823390D02*
X204944285Y-103871009D01*
X204944285Y-103871009D02*
X204991904Y-103966247D01*
X176271068Y-123688085D02*
X176120548Y-123126647D01*
X176638375Y-123250345D02*
X175872331Y-122607558D01*
X175872331Y-122607558D02*
X175627459Y-122899384D01*
X175627459Y-122899384D02*
X175602720Y-123002950D01*
X175602720Y-123002950D02*
X175608589Y-123070037D01*
X175608589Y-123070037D02*
X175650937Y-123167733D01*
X175650937Y-123167733D02*
X175760372Y-123259560D01*
X175760372Y-123259560D02*
X175863937Y-123284299D01*
X175863937Y-123284299D02*
X175931025Y-123278430D01*
X175931025Y-123278430D02*
X176028721Y-123236082D01*
X176028721Y-123236082D02*
X176273592Y-122944256D01*
X175466021Y-123758517D02*
X175490761Y-123654952D01*
X175490761Y-123654952D02*
X175484891Y-123587865D01*
X175484891Y-123587865D02*
X175442544Y-123490168D01*
X175442544Y-123490168D02*
X175406065Y-123459559D01*
X175406065Y-123459559D02*
X175302500Y-123434820D01*
X175302500Y-123434820D02*
X175235413Y-123440689D01*
X175235413Y-123440689D02*
X175137716Y-123483037D01*
X175137716Y-123483037D02*
X175015281Y-123628950D01*
X175015281Y-123628950D02*
X174990541Y-123732516D01*
X174990541Y-123732516D02*
X174996410Y-123799603D01*
X174996410Y-123799603D02*
X175038758Y-123897299D01*
X175038758Y-123897299D02*
X175075236Y-123927908D01*
X175075236Y-123927908D02*
X175178802Y-123952648D01*
X175178802Y-123952648D02*
X175245889Y-123946778D01*
X175245889Y-123946778D02*
X175343585Y-123904431D01*
X175343585Y-123904431D02*
X175466021Y-123758517D01*
X175466021Y-123758517D02*
X175563717Y-123716170D01*
X175563717Y-123716170D02*
X175630805Y-123710300D01*
X175630805Y-123710300D02*
X175734370Y-123735040D01*
X175734370Y-123735040D02*
X175880283Y-123857476D01*
X175880283Y-123857476D02*
X175922631Y-123955172D01*
X175922631Y-123955172D02*
X175928500Y-124022259D01*
X175928500Y-124022259D02*
X175903761Y-124125825D01*
X175903761Y-124125825D02*
X175781325Y-124271738D01*
X175781325Y-124271738D02*
X175683629Y-124314085D01*
X175683629Y-124314085D02*
X175616542Y-124319955D01*
X175616542Y-124319955D02*
X175512976Y-124295215D01*
X175512976Y-124295215D02*
X175367063Y-124172780D01*
X175367063Y-124172780D02*
X175324715Y-124075083D01*
X175324715Y-124075083D02*
X175318846Y-124007996D01*
X175318846Y-124007996D02*
X175343585Y-123904431D01*
X237514321Y-120662831D02*
X238041091Y-120417105D01*
X238009192Y-120948545D02*
X238509192Y-120082520D01*
X238509192Y-120082520D02*
X238179278Y-119892044D01*
X238179278Y-119892044D02*
X238072990Y-119885664D01*
X238072990Y-119885664D02*
X238007941Y-119903094D01*
X238007941Y-119903094D02*
X237919083Y-119961763D01*
X237919083Y-119961763D02*
X237847654Y-120085481D01*
X237847654Y-120085481D02*
X237841274Y-120191769D01*
X237841274Y-120191769D02*
X237858704Y-120256818D01*
X237858704Y-120256818D02*
X237917373Y-120345676D01*
X237917373Y-120345676D02*
X238247288Y-120536152D01*
X236689535Y-120186640D02*
X237184406Y-120472355D01*
X236936970Y-120329498D02*
X237436970Y-119463472D01*
X237436970Y-119463472D02*
X237448020Y-119634809D01*
X237448020Y-119634809D02*
X237482880Y-119764907D01*
X237482880Y-119764907D02*
X237541549Y-119853765D01*
X236653424Y-119011091D02*
X236570945Y-118963472D01*
X236570945Y-118963472D02*
X236464657Y-118957092D01*
X236464657Y-118957092D02*
X236399608Y-118974522D01*
X236399608Y-118974522D02*
X236310750Y-119033191D01*
X236310750Y-119033191D02*
X236174272Y-119174339D01*
X236174272Y-119174339D02*
X236055225Y-119380536D01*
X236055225Y-119380536D02*
X236001226Y-119569302D01*
X236001226Y-119569302D02*
X235994846Y-119675590D01*
X235994846Y-119675590D02*
X236012276Y-119740639D01*
X236012276Y-119740639D02*
X236070945Y-119829498D01*
X236070945Y-119829498D02*
X236153424Y-119877117D01*
X236153424Y-119877117D02*
X236259712Y-119883496D01*
X236259712Y-119883496D02*
X236324760Y-119866067D01*
X236324760Y-119866067D02*
X236413619Y-119807398D01*
X236413619Y-119807398D02*
X236550096Y-119666250D01*
X236550096Y-119666250D02*
X236669144Y-119460053D01*
X236669144Y-119460053D02*
X236723143Y-119271287D01*
X236723143Y-119271287D02*
X236729522Y-119164998D01*
X236729522Y-119164998D02*
X236712093Y-119099950D01*
X236712093Y-119099950D02*
X236653424Y-119011091D01*
X221915027Y-75831564D02*
X222441866Y-76077144D01*
X222014255Y-76394311D02*
X222999063Y-76220663D01*
X222999063Y-76220663D02*
X222932911Y-75845498D01*
X222932911Y-75845498D02*
X222869478Y-75759976D01*
X222869478Y-75759976D02*
X222814313Y-75721350D01*
X222814313Y-75721350D02*
X222712253Y-75690992D01*
X222712253Y-75690992D02*
X222571566Y-75715799D01*
X222571566Y-75715799D02*
X222486044Y-75779232D01*
X222486044Y-75779232D02*
X222447417Y-75834397D01*
X222447417Y-75834397D02*
X222417059Y-75936457D01*
X222417059Y-75936457D02*
X222483211Y-76311622D01*
X222742725Y-74766899D02*
X222825415Y-75235856D01*
X222825415Y-75235856D02*
X222364727Y-75365441D01*
X222364727Y-75365441D02*
X222403354Y-75310276D01*
X222403354Y-75310276D02*
X222433712Y-75208216D01*
X222433712Y-75208216D02*
X222392367Y-74973738D01*
X222392367Y-74973738D02*
X222328933Y-74888216D01*
X222328933Y-74888216D02*
X222273769Y-74849589D01*
X222273769Y-74849589D02*
X222171709Y-74819231D01*
X222171709Y-74819231D02*
X221937231Y-74860576D01*
X221937231Y-74860576D02*
X221851708Y-74924010D01*
X221851708Y-74924010D02*
X221813082Y-74979174D01*
X221813082Y-74979174D02*
X221782724Y-75081234D01*
X221782724Y-75081234D02*
X221824069Y-75315712D01*
X221824069Y-75315712D02*
X221887502Y-75401235D01*
X221887502Y-75401235D02*
X221942667Y-75439861D01*
X190476851Y-76414842D02*
X190065778Y-76003883D01*
X190576079Y-75852095D02*
X189591271Y-75678446D01*
X189591271Y-75678446D02*
X189525119Y-76053611D01*
X189525119Y-76053611D02*
X189555477Y-76155671D01*
X189555477Y-76155671D02*
X189594104Y-76210836D01*
X189594104Y-76210836D02*
X189679626Y-76274270D01*
X189679626Y-76274270D02*
X189820313Y-76299076D01*
X189820313Y-76299076D02*
X189922373Y-76268719D01*
X189922373Y-76268719D02*
X189977537Y-76230092D01*
X189977537Y-76230092D02*
X190040971Y-76144570D01*
X190040971Y-76144570D02*
X190107123Y-75769405D01*
X189434161Y-76569463D02*
X189318395Y-77226001D01*
X189318395Y-77226001D02*
X190377624Y-76977589D01*
X209095238Y-90350057D02*
X209190476Y-90302438D01*
X209190476Y-90302438D02*
X209285714Y-90207200D01*
X209285714Y-90207200D02*
X209428571Y-90064342D01*
X209428571Y-90064342D02*
X209523809Y-90016723D01*
X209523809Y-90016723D02*
X209619047Y-90016723D01*
X209571428Y-90254819D02*
X209666666Y-90207200D01*
X209666666Y-90207200D02*
X209761904Y-90111961D01*
X209761904Y-90111961D02*
X209809523Y-89921485D01*
X209809523Y-89921485D02*
X209809523Y-89588152D01*
X209809523Y-89588152D02*
X209761904Y-89397676D01*
X209761904Y-89397676D02*
X209666666Y-89302438D01*
X209666666Y-89302438D02*
X209571428Y-89254819D01*
X209571428Y-89254819D02*
X209380952Y-89254819D01*
X209380952Y-89254819D02*
X209285714Y-89302438D01*
X209285714Y-89302438D02*
X209190476Y-89397676D01*
X209190476Y-89397676D02*
X209142857Y-89588152D01*
X209142857Y-89588152D02*
X209142857Y-89921485D01*
X209142857Y-89921485D02*
X209190476Y-90111961D01*
X209190476Y-90111961D02*
X209285714Y-90207200D01*
X209285714Y-90207200D02*
X209380952Y-90254819D01*
X209380952Y-90254819D02*
X209571428Y-90254819D01*
X208571428Y-89683390D02*
X208666666Y-89635771D01*
X208666666Y-89635771D02*
X208714285Y-89588152D01*
X208714285Y-89588152D02*
X208761904Y-89492914D01*
X208761904Y-89492914D02*
X208761904Y-89445295D01*
X208761904Y-89445295D02*
X208714285Y-89350057D01*
X208714285Y-89350057D02*
X208666666Y-89302438D01*
X208666666Y-89302438D02*
X208571428Y-89254819D01*
X208571428Y-89254819D02*
X208380952Y-89254819D01*
X208380952Y-89254819D02*
X208285714Y-89302438D01*
X208285714Y-89302438D02*
X208238095Y-89350057D01*
X208238095Y-89350057D02*
X208190476Y-89445295D01*
X208190476Y-89445295D02*
X208190476Y-89492914D01*
X208190476Y-89492914D02*
X208238095Y-89588152D01*
X208238095Y-89588152D02*
X208285714Y-89635771D01*
X208285714Y-89635771D02*
X208380952Y-89683390D01*
X208380952Y-89683390D02*
X208571428Y-89683390D01*
X208571428Y-89683390D02*
X208666666Y-89731009D01*
X208666666Y-89731009D02*
X208714285Y-89778628D01*
X208714285Y-89778628D02*
X208761904Y-89873866D01*
X208761904Y-89873866D02*
X208761904Y-90064342D01*
X208761904Y-90064342D02*
X208714285Y-90159580D01*
X208714285Y-90159580D02*
X208666666Y-90207200D01*
X208666666Y-90207200D02*
X208571428Y-90254819D01*
X208571428Y-90254819D02*
X208380952Y-90254819D01*
X208380952Y-90254819D02*
X208285714Y-90207200D01*
X208285714Y-90207200D02*
X208238095Y-90159580D01*
X208238095Y-90159580D02*
X208190476Y-90064342D01*
X208190476Y-90064342D02*
X208190476Y-89873866D01*
X208190476Y-89873866D02*
X208238095Y-89778628D01*
X208238095Y-89778628D02*
X208285714Y-89731009D01*
X208285714Y-89731009D02*
X208380952Y-89683390D01*
X213778690Y-84647457D02*
X213873928Y-84599838D01*
X213873928Y-84599838D02*
X213969166Y-84504600D01*
X213969166Y-84504600D02*
X214112023Y-84361742D01*
X214112023Y-84361742D02*
X214207261Y-84314123D01*
X214207261Y-84314123D02*
X214302499Y-84314123D01*
X214254880Y-84552219D02*
X214350118Y-84504600D01*
X214350118Y-84504600D02*
X214445356Y-84409361D01*
X214445356Y-84409361D02*
X214492975Y-84218885D01*
X214492975Y-84218885D02*
X214492975Y-83885552D01*
X214492975Y-83885552D02*
X214445356Y-83695076D01*
X214445356Y-83695076D02*
X214350118Y-83599838D01*
X214350118Y-83599838D02*
X214254880Y-83552219D01*
X214254880Y-83552219D02*
X214064404Y-83552219D01*
X214064404Y-83552219D02*
X213969166Y-83599838D01*
X213969166Y-83599838D02*
X213873928Y-83695076D01*
X213873928Y-83695076D02*
X213826309Y-83885552D01*
X213826309Y-83885552D02*
X213826309Y-84218885D01*
X213826309Y-84218885D02*
X213873928Y-84409361D01*
X213873928Y-84409361D02*
X213969166Y-84504600D01*
X213969166Y-84504600D02*
X214064404Y-84552219D01*
X214064404Y-84552219D02*
X214254880Y-84552219D01*
X213445356Y-83647457D02*
X213397737Y-83599838D01*
X213397737Y-83599838D02*
X213302499Y-83552219D01*
X213302499Y-83552219D02*
X213064404Y-83552219D01*
X213064404Y-83552219D02*
X212969166Y-83599838D01*
X212969166Y-83599838D02*
X212921547Y-83647457D01*
X212921547Y-83647457D02*
X212873928Y-83742695D01*
X212873928Y-83742695D02*
X212873928Y-83837933D01*
X212873928Y-83837933D02*
X212921547Y-83980790D01*
X212921547Y-83980790D02*
X213492975Y-84552219D01*
X213492975Y-84552219D02*
X212873928Y-84552219D01*
X201332857Y-92584819D02*
X201666190Y-92108628D01*
X201904285Y-92584819D02*
X201904285Y-91584819D01*
X201904285Y-91584819D02*
X201523333Y-91584819D01*
X201523333Y-91584819D02*
X201428095Y-91632438D01*
X201428095Y-91632438D02*
X201380476Y-91680057D01*
X201380476Y-91680057D02*
X201332857Y-91775295D01*
X201332857Y-91775295D02*
X201332857Y-91918152D01*
X201332857Y-91918152D02*
X201380476Y-92013390D01*
X201380476Y-92013390D02*
X201428095Y-92061009D01*
X201428095Y-92061009D02*
X201523333Y-92108628D01*
X201523333Y-92108628D02*
X201904285Y-92108628D01*
X200380476Y-92584819D02*
X200951904Y-92584819D01*
X200666190Y-92584819D02*
X200666190Y-91584819D01*
X200666190Y-91584819D02*
X200761428Y-91727676D01*
X200761428Y-91727676D02*
X200856666Y-91822914D01*
X200856666Y-91822914D02*
X200951904Y-91870533D01*
X199428095Y-92584819D02*
X199999523Y-92584819D01*
X199713809Y-92584819D02*
X199713809Y-91584819D01*
X199713809Y-91584819D02*
X199809047Y-91727676D01*
X199809047Y-91727676D02*
X199904285Y-91822914D01*
X199904285Y-91822914D02*
X199999523Y-91870533D01*
X205785714Y-62431009D02*
X205642857Y-62478628D01*
X205642857Y-62478628D02*
X205595238Y-62526247D01*
X205595238Y-62526247D02*
X205547619Y-62621485D01*
X205547619Y-62621485D02*
X205547619Y-62764342D01*
X205547619Y-62764342D02*
X205595238Y-62859580D01*
X205595238Y-62859580D02*
X205642857Y-62907200D01*
X205642857Y-62907200D02*
X205738095Y-62954819D01*
X205738095Y-62954819D02*
X206119047Y-62954819D01*
X206119047Y-62954819D02*
X206119047Y-61954819D01*
X206119047Y-61954819D02*
X205785714Y-61954819D01*
X205785714Y-61954819D02*
X205690476Y-62002438D01*
X205690476Y-62002438D02*
X205642857Y-62050057D01*
X205642857Y-62050057D02*
X205595238Y-62145295D01*
X205595238Y-62145295D02*
X205595238Y-62240533D01*
X205595238Y-62240533D02*
X205642857Y-62335771D01*
X205642857Y-62335771D02*
X205690476Y-62383390D01*
X205690476Y-62383390D02*
X205785714Y-62431009D01*
X205785714Y-62431009D02*
X206119047Y-62431009D01*
X205261904Y-61954819D02*
X204690476Y-61954819D01*
X204976190Y-62954819D02*
X204976190Y-61954819D01*
X204404761Y-62050057D02*
X204357142Y-62002438D01*
X204357142Y-62002438D02*
X204261904Y-61954819D01*
X204261904Y-61954819D02*
X204023809Y-61954819D01*
X204023809Y-61954819D02*
X203928571Y-62002438D01*
X203928571Y-62002438D02*
X203880952Y-62050057D01*
X203880952Y-62050057D02*
X203833333Y-62145295D01*
X203833333Y-62145295D02*
X203833333Y-62240533D01*
X203833333Y-62240533D02*
X203880952Y-62383390D01*
X203880952Y-62383390D02*
X204452380Y-62954819D01*
X204452380Y-62954819D02*
X203833333Y-62954819D01*
X212595238Y-99350057D02*
X212690476Y-99302438D01*
X212690476Y-99302438D02*
X212785714Y-99207200D01*
X212785714Y-99207200D02*
X212928571Y-99064342D01*
X212928571Y-99064342D02*
X213023809Y-99016723D01*
X213023809Y-99016723D02*
X213119047Y-99016723D01*
X213071428Y-99254819D02*
X213166666Y-99207200D01*
X213166666Y-99207200D02*
X213261904Y-99111961D01*
X213261904Y-99111961D02*
X213309523Y-98921485D01*
X213309523Y-98921485D02*
X213309523Y-98588152D01*
X213309523Y-98588152D02*
X213261904Y-98397676D01*
X213261904Y-98397676D02*
X213166666Y-98302438D01*
X213166666Y-98302438D02*
X213071428Y-98254819D01*
X213071428Y-98254819D02*
X212880952Y-98254819D01*
X212880952Y-98254819D02*
X212785714Y-98302438D01*
X212785714Y-98302438D02*
X212690476Y-98397676D01*
X212690476Y-98397676D02*
X212642857Y-98588152D01*
X212642857Y-98588152D02*
X212642857Y-98921485D01*
X212642857Y-98921485D02*
X212690476Y-99111961D01*
X212690476Y-99111961D02*
X212785714Y-99207200D01*
X212785714Y-99207200D02*
X212880952Y-99254819D01*
X212880952Y-99254819D02*
X213071428Y-99254819D01*
X211690476Y-99254819D02*
X212261904Y-99254819D01*
X211976190Y-99254819D02*
X211976190Y-98254819D01*
X211976190Y-98254819D02*
X212071428Y-98397676D01*
X212071428Y-98397676D02*
X212166666Y-98492914D01*
X212166666Y-98492914D02*
X212261904Y-98540533D01*
X187365238Y-112990057D02*
X187460476Y-112942438D01*
X187460476Y-112942438D02*
X187555714Y-112847200D01*
X187555714Y-112847200D02*
X187698571Y-112704342D01*
X187698571Y-112704342D02*
X187793809Y-112656723D01*
X187793809Y-112656723D02*
X187889047Y-112656723D01*
X187841428Y-112894819D02*
X187936666Y-112847200D01*
X187936666Y-112847200D02*
X188031904Y-112751961D01*
X188031904Y-112751961D02*
X188079523Y-112561485D01*
X188079523Y-112561485D02*
X188079523Y-112228152D01*
X188079523Y-112228152D02*
X188031904Y-112037676D01*
X188031904Y-112037676D02*
X187936666Y-111942438D01*
X187936666Y-111942438D02*
X187841428Y-111894819D01*
X187841428Y-111894819D02*
X187650952Y-111894819D01*
X187650952Y-111894819D02*
X187555714Y-111942438D01*
X187555714Y-111942438D02*
X187460476Y-112037676D01*
X187460476Y-112037676D02*
X187412857Y-112228152D01*
X187412857Y-112228152D02*
X187412857Y-112561485D01*
X187412857Y-112561485D02*
X187460476Y-112751961D01*
X187460476Y-112751961D02*
X187555714Y-112847200D01*
X187555714Y-112847200D02*
X187650952Y-112894819D01*
X187650952Y-112894819D02*
X187841428Y-112894819D01*
X186508095Y-111894819D02*
X186984285Y-111894819D01*
X186984285Y-111894819D02*
X187031904Y-112371009D01*
X187031904Y-112371009D02*
X186984285Y-112323390D01*
X186984285Y-112323390D02*
X186889047Y-112275771D01*
X186889047Y-112275771D02*
X186650952Y-112275771D01*
X186650952Y-112275771D02*
X186555714Y-112323390D01*
X186555714Y-112323390D02*
X186508095Y-112371009D01*
X186508095Y-112371009D02*
X186460476Y-112466247D01*
X186460476Y-112466247D02*
X186460476Y-112704342D01*
X186460476Y-112704342D02*
X186508095Y-112799580D01*
X186508095Y-112799580D02*
X186555714Y-112847200D01*
X186555714Y-112847200D02*
X186650952Y-112894819D01*
X186650952Y-112894819D02*
X186889047Y-112894819D01*
X186889047Y-112894819D02*
X186984285Y-112847200D01*
X186984285Y-112847200D02*
X187031904Y-112799580D01*
X218225283Y-63786953D02*
X218804342Y-63837533D01*
X218510997Y-64281825D02*
X219377022Y-63781825D01*
X219377022Y-63781825D02*
X219186546Y-63451910D01*
X219186546Y-63451910D02*
X219097688Y-63393241D01*
X219097688Y-63393241D02*
X219032639Y-63375812D01*
X219032639Y-63375812D02*
X218926351Y-63382191D01*
X218926351Y-63382191D02*
X218802633Y-63453620D01*
X218802633Y-63453620D02*
X218743964Y-63542478D01*
X218743964Y-63542478D02*
X218726534Y-63607527D01*
X218726534Y-63607527D02*
X218732914Y-63713815D01*
X218732914Y-63713815D02*
X218923390Y-64043730D01*
X218662737Y-62544646D02*
X218757975Y-62709603D01*
X218757975Y-62709603D02*
X218764355Y-62815891D01*
X218764355Y-62815891D02*
X218746925Y-62880940D01*
X218746925Y-62880940D02*
X218670826Y-63034847D01*
X218670826Y-63034847D02*
X218529678Y-63171324D01*
X218529678Y-63171324D02*
X218199764Y-63361801D01*
X218199764Y-63361801D02*
X218093476Y-63368180D01*
X218093476Y-63368180D02*
X218028427Y-63350751D01*
X218028427Y-63350751D02*
X217939568Y-63292082D01*
X217939568Y-63292082D02*
X217844330Y-63127124D01*
X217844330Y-63127124D02*
X217837951Y-63020836D01*
X217837951Y-63020836D02*
X217855380Y-62955787D01*
X217855380Y-62955787D02*
X217914049Y-62866929D01*
X217914049Y-62866929D02*
X218120246Y-62747881D01*
X218120246Y-62747881D02*
X218226534Y-62741502D01*
X218226534Y-62741502D02*
X218291583Y-62758931D01*
X218291583Y-62758931D02*
X218380441Y-62817600D01*
X218380441Y-62817600D02*
X218475679Y-62982558D01*
X218475679Y-62982558D02*
X218482059Y-63088846D01*
X218482059Y-63088846D02*
X218464629Y-63153895D01*
X218464629Y-63153895D02*
X218405960Y-63242753D01*
X206941904Y-58084819D02*
X206941904Y-58894342D01*
X206941904Y-58894342D02*
X206894285Y-58989580D01*
X206894285Y-58989580D02*
X206846666Y-59037200D01*
X206846666Y-59037200D02*
X206751428Y-59084819D01*
X206751428Y-59084819D02*
X206560952Y-59084819D01*
X206560952Y-59084819D02*
X206465714Y-59037200D01*
X206465714Y-59037200D02*
X206418095Y-58989580D01*
X206418095Y-58989580D02*
X206370476Y-58894342D01*
X206370476Y-58894342D02*
X206370476Y-58084819D01*
X205370476Y-59084819D02*
X205941904Y-59084819D01*
X205656190Y-59084819D02*
X205656190Y-58084819D01*
X205656190Y-58084819D02*
X205751428Y-58227676D01*
X205751428Y-58227676D02*
X205846666Y-58322914D01*
X205846666Y-58322914D02*
X205941904Y-58370533D01*
X195666666Y-115584819D02*
X195999999Y-115108628D01*
X196238094Y-115584819D02*
X196238094Y-114584819D01*
X196238094Y-114584819D02*
X195857142Y-114584819D01*
X195857142Y-114584819D02*
X195761904Y-114632438D01*
X195761904Y-114632438D02*
X195714285Y-114680057D01*
X195714285Y-114680057D02*
X195666666Y-114775295D01*
X195666666Y-114775295D02*
X195666666Y-114918152D01*
X195666666Y-114918152D02*
X195714285Y-115013390D01*
X195714285Y-115013390D02*
X195761904Y-115061009D01*
X195761904Y-115061009D02*
X195857142Y-115108628D01*
X195857142Y-115108628D02*
X196238094Y-115108628D01*
X195333332Y-114584819D02*
X194714285Y-114584819D01*
X194714285Y-114584819D02*
X195047618Y-114965771D01*
X195047618Y-114965771D02*
X194904761Y-114965771D01*
X194904761Y-114965771D02*
X194809523Y-115013390D01*
X194809523Y-115013390D02*
X194761904Y-115061009D01*
X194761904Y-115061009D02*
X194714285Y-115156247D01*
X194714285Y-115156247D02*
X194714285Y-115394342D01*
X194714285Y-115394342D02*
X194761904Y-115489580D01*
X194761904Y-115489580D02*
X194809523Y-115537200D01*
X194809523Y-115537200D02*
X194904761Y-115584819D01*
X194904761Y-115584819D02*
X195190475Y-115584819D01*
X195190475Y-115584819D02*
X195285713Y-115537200D01*
X195285713Y-115537200D02*
X195333332Y-115489580D01*
%TO.C,Q7*%
D11*
X222230000Y-113900000D02*
G75*
G02*
X224068478Y-118338478I0J-2600000D01*
G01*
X220391522Y-118338478D02*
G75*
G02*
X222230000Y-113899999I1838478J1838478D01*
G01*
X224030000Y-118350000D02*
X220430000Y-118350000D01*
%TO.C,R9*%
X209460001Y-118870000D02*
X209460001Y-118539999D01*
X209460000Y-116130000D02*
X209460001Y-116460000D01*
X202920002Y-118869999D02*
X209460001Y-118870000D01*
X202920001Y-118540000D02*
X202920002Y-118869999D01*
X202920001Y-116460000D02*
X202920001Y-116129999D01*
X202920001Y-116129999D02*
X209460000Y-116130000D01*
%TO.C,R4*%
X186290000Y-89630000D02*
X186290000Y-89960000D01*
X186290000Y-92370000D02*
X186290000Y-92040000D01*
X192830000Y-89630000D02*
X186290000Y-89630000D01*
X192830000Y-89960000D02*
X192830000Y-89630000D01*
X192830000Y-92040000D02*
X192830000Y-92370000D01*
X192830000Y-92370000D02*
X186290000Y-92370000D01*
%TO.C,Q3*%
X212300000Y-63350000D02*
X208700000Y-63350000D01*
X208661522Y-63338478D02*
G75*
G02*
X210500000Y-58899999I1838478J1838478D01*
G01*
X210500000Y-58900000D02*
G75*
G02*
X212338478Y-63338478I0J-2600000D01*
G01*
%TO.C,Q4*%
X199030000Y-90350000D02*
X195430000Y-90350000D01*
X195391522Y-90338478D02*
G75*
G02*
X197230000Y-85899999I1838478J1838478D01*
G01*
X197230000Y-85900000D02*
G75*
G02*
X199068478Y-90338478I0J-2600000D01*
G01*
%TO.C,Q6*%
X207030000Y-109350000D02*
X203430000Y-109350000D01*
X203391522Y-109338478D02*
G75*
G02*
X205230000Y-104899999I1838478J1838478D01*
G01*
X205230000Y-104900000D02*
G75*
G02*
X207068478Y-109338478I0J-2600000D01*
G01*
%TO.C,R8*%
X170848604Y-123624347D02*
X175052436Y-118614418D01*
X171101399Y-123836467D02*
X170848604Y-123624347D01*
X172694772Y-125173465D02*
X172947566Y-125385585D01*
X172947566Y-125385585D02*
X177151398Y-120375655D01*
X175052436Y-118614418D02*
X175305230Y-118826536D01*
X177151398Y-120375655D02*
X176898602Y-120163534D01*
%TO.C,R10*%
X232483097Y-121551455D02*
X232648097Y-121265666D01*
X233853097Y-119178544D02*
X233688097Y-119464334D01*
X238146903Y-124821455D02*
X232483097Y-121551455D01*
X238311903Y-124535666D02*
X238146903Y-124821455D01*
X239351903Y-122734334D02*
X239516904Y-122448546D01*
X239516904Y-122448546D02*
X233853097Y-119178544D01*
%TO.C,R2*%
X196130000Y-98230000D02*
X196460000Y-98230000D01*
X196130000Y-104770000D02*
X196130000Y-98230000D01*
X196460000Y-104770000D02*
X196130000Y-104770000D01*
X198540000Y-104770000D02*
X198870000Y-104770000D01*
X198870000Y-98230000D02*
X198540000Y-98230000D01*
X198870000Y-104770000D02*
X198870000Y-98230000D01*
%TO.C,R5*%
X218082984Y-73017576D02*
X218407972Y-72960274D01*
X219218642Y-79458218D02*
X218082984Y-73017576D01*
X219543631Y-79400915D02*
X219218642Y-79458218D01*
X220781358Y-72541780D02*
X220456371Y-72599084D01*
X221592030Y-79039727D02*
X221917016Y-78982423D01*
X221917016Y-78982423D02*
X220781358Y-72541780D01*
%TO.C,R7*%
X188082984Y-79482424D02*
X189218643Y-73041781D01*
X188407971Y-79539728D02*
X188082984Y-79482424D01*
X189218643Y-73041781D02*
X189543630Y-73099085D01*
X190456371Y-79900916D02*
X190781358Y-79958220D01*
X190781358Y-79958220D02*
X191917017Y-73517577D01*
X191917017Y-73517577D02*
X191592030Y-73460273D01*
%TO.C,Q8*%
X210800000Y-95210000D02*
X207200000Y-95210000D01*
X207161522Y-95198478D02*
G75*
G02*
X209000000Y-90759999I1838478J1838478D01*
G01*
X209000000Y-90760000D02*
G75*
G02*
X210838478Y-95198478I0J-2600000D01*
G01*
%TO.C,Q2*%
X215483452Y-89507400D02*
X211883451Y-89507400D01*
X211844973Y-89495878D02*
G75*
G02*
X213683451Y-85057399I1838479J1838478D01*
G01*
X213683451Y-85057401D02*
G75*
G02*
X215521928Y-89495877I1J-2599999D01*
G01*
%TO.C,R11*%
X197420000Y-93130000D02*
X197420000Y-93460000D01*
X197420000Y-95870000D02*
X197420000Y-95540000D01*
X203960000Y-93130000D02*
X197420000Y-93130000D01*
X203960000Y-93460000D02*
X203960000Y-93130000D01*
X203960000Y-95540000D02*
X203960000Y-95870000D01*
X203960000Y-95870000D02*
X197420000Y-95870000D01*
%TO.C,BT2*%
X194220000Y-68540000D02*
X194220000Y-71000000D01*
X194220000Y-77000000D02*
X194220000Y-77630000D01*
X194220000Y-77630000D02*
X195660000Y-81580000D01*
X196300000Y-66460000D02*
X194220000Y-68540000D01*
X196300000Y-66460000D02*
X199800000Y-66460000D01*
X210200000Y-66460000D02*
X213700000Y-66460000D01*
X213700000Y-66460000D02*
X215780000Y-68540000D01*
X215780000Y-68540000D02*
X215780000Y-71000000D01*
X215780000Y-77000000D02*
X215780000Y-77630000D01*
X215780000Y-77630000D02*
X214340000Y-81580000D01*
X199000000Y-82550000D02*
G75*
G02*
X195674757Y-81588169I-1310000J1700000D01*
G01*
X214340000Y-81580000D02*
G75*
G02*
X211003354Y-82566530I-2030000J730001D01*
G01*
%TO.C,Q1*%
X214300000Y-104210000D02*
X210700000Y-104210000D01*
X210661522Y-104198478D02*
G75*
G02*
X212500000Y-99759999I1838478J1838478D01*
G01*
X212500000Y-99760000D02*
G75*
G02*
X214338478Y-104198478I0J-2600000D01*
G01*
%TO.C,Q5*%
X189070000Y-117850000D02*
X185470000Y-117850000D01*
X185431522Y-117838478D02*
G75*
G02*
X187270000Y-113399999I1838478J1838478D01*
G01*
X187270000Y-113400000D02*
G75*
G02*
X189108478Y-117838478I0J-2600000D01*
G01*
%TO.C,R6*%
X212722565Y-55972169D02*
X213008355Y-55807169D01*
X215095476Y-54602169D02*
X214809688Y-54767169D01*
X215992565Y-61635975D02*
X212722565Y-55972169D01*
X216278355Y-61470975D02*
X215992565Y-61635975D01*
X218079687Y-60430975D02*
X218365476Y-60265975D01*
X218365476Y-60265975D02*
X215095476Y-54602169D01*
%TO.C,U1*%
X187530000Y-93630000D02*
X189180000Y-93630000D01*
X187530000Y-103910000D02*
X187530000Y-93630000D01*
X191180000Y-93630000D02*
X192830000Y-93630000D01*
X192830000Y-93630000D02*
X192830000Y-103910000D01*
X192830000Y-103910000D02*
X187530000Y-103910000D01*
X191180000Y-93630000D02*
G75*
G02*
X189180000Y-93630000I-1000000J0D01*
G01*
%TO.C,R3*%
X192230000Y-116130000D02*
X192230000Y-116460000D01*
X192230000Y-118870000D02*
X192230000Y-118540000D01*
X198770000Y-116130000D02*
X192230000Y-116130000D01*
X198770000Y-116460000D02*
X198770000Y-116130000D01*
X198770000Y-118540000D02*
X198770000Y-118870000D01*
X198770000Y-118870000D02*
X192230000Y-118870000D01*
%TD*%
M02*
