%TF.GenerationSoftware,KiCad,Pcbnew,10.0.5*%
%TF.CreationDate,2026-09-04T14:01:11+05:30*%
%TF.ProjectId,Rocket_solder,526f636b-6574-45f7-936f-6c6465722e6b,rev?*%
%TF.SameCoordinates,Original*%
%TF.FileFunction,Profile,NP*%
%FSLAX46Y46*%
G04 Gerber Fmt 4.6, Leading zero omitted, Abs format (unit mm)*
G04 Created by KiCad (PCBNEW 10.0.5) date 2026-09-04 14:01:11*
%MOMM*%
%LPD*%
G01*
G04 APERTURE LIST*
%TA.AperFunction,Profile*%
%ADD10C,0.775656*%
%TD*%
G04 APERTURE END LIST*
D10*
X207636260Y-41046608D02*
X210092145Y-43895203D01*
X212369078Y-46942628D01*
X214468472Y-50186058D01*
X216391753Y-53622637D01*
X218140345Y-57249537D01*
X219715664Y-61063914D01*
X221119129Y-65062931D01*
X222352162Y-69243725D01*
X223416181Y-73603485D01*
X224312606Y-78139355D01*
X225042862Y-82848503D01*
X225608367Y-87728085D01*
X226010546Y-92775258D01*
X226250809Y-97987176D01*
X226330584Y-103361011D01*
X241843733Y-122752443D01*
X241835304Y-123022263D01*
X241810360Y-123286235D01*
X241769434Y-123544158D01*
X241713065Y-123795869D01*
X241641789Y-124041195D01*
X241556124Y-124279947D01*
X241456623Y-124511958D01*
X241343797Y-124737040D01*
X241218188Y-124955024D01*
X241080341Y-125165725D01*
X240930763Y-125368972D01*
X240770008Y-125564587D01*
X240598601Y-125752382D01*
X240417071Y-125932195D01*
X240225956Y-126103849D01*
X240025784Y-126267144D01*
X239817089Y-126421926D01*
X239600414Y-126568001D01*
X239376275Y-126705210D01*
X239145215Y-126833359D01*
X238907763Y-126952279D01*
X238664452Y-127061786D01*
X238415816Y-127161713D01*
X238162384Y-127251867D01*
X237904692Y-127332081D01*
X237643277Y-127402181D01*
X237378668Y-127461980D01*
X237111384Y-127511298D01*
X236841977Y-127549974D01*
X236570969Y-127577816D01*
X236298906Y-127594652D01*
X236026295Y-127600305D01*
X226330584Y-119843739D01*
X183669414Y-119843739D01*
X173973700Y-127600305D01*
X173429030Y-127577816D01*
X172888611Y-127511298D01*
X172356716Y-127402181D01*
X171837616Y-127251867D01*
X171335546Y-127061786D01*
X170854785Y-126833359D01*
X170399585Y-126568001D01*
X170182911Y-126421926D01*
X169974214Y-126267144D01*
X169774044Y-126103849D01*
X169582929Y-125932195D01*
X169401399Y-125752382D01*
X169229992Y-125564587D01*
X169069237Y-125368972D01*
X168919659Y-125165725D01*
X168781812Y-124955024D01*
X168656203Y-124737040D01*
X168543377Y-124511958D01*
X168443876Y-124279947D01*
X168358211Y-124041195D01*
X168286935Y-123795869D01*
X168230566Y-123544158D01*
X168189648Y-123286235D01*
X168164696Y-123022263D01*
X168156267Y-122752443D01*
X183669414Y-103361011D01*
X183749190Y-97987176D01*
X183989453Y-92775258D01*
X184391629Y-87728085D01*
X184957134Y-82848503D01*
X185687389Y-78139355D01*
X186583818Y-73603485D01*
X187647836Y-69243725D01*
X188880865Y-65062931D01*
X190284331Y-61063914D01*
X191859645Y-57249537D01*
X193608241Y-53622637D01*
X195531523Y-50186058D01*
X197630921Y-46942628D01*
X199907855Y-43895203D01*
X202363740Y-41046608D01*
X205000000Y-38399697D01*
X207636260Y-41046608D01*
X205079833Y-46546127D02*
X205158617Y-46552104D01*
X205236243Y-46561975D01*
X205312645Y-46575615D01*
X205387690Y-46592941D01*
X205461316Y-46613845D01*
X205533393Y-46638230D01*
X205603841Y-46666010D01*
X205672558Y-46697073D01*
X205739449Y-46731340D01*
X205804415Y-46768690D01*
X205867353Y-46809044D01*
X205928183Y-46852287D01*
X205986777Y-46898347D01*
X206043068Y-46947107D01*
X206096947Y-46998467D01*
X206148310Y-47052351D01*
X206197072Y-47108634D01*
X206243124Y-47167244D01*
X206286374Y-47228061D01*
X206326719Y-47291006D01*
X206364079Y-47355966D01*
X206398345Y-47422863D01*
X206429399Y-47491580D01*
X206457184Y-47562029D01*
X206481574Y-47634102D01*
X206502479Y-47707718D01*
X206519795Y-47782773D01*
X206533443Y-47859159D01*
X206543304Y-47936804D01*
X206549291Y-48015590D01*
X206551315Y-48095414D01*
X206549291Y-48175250D01*
X206543304Y-48254028D01*
X206533443Y-48331665D01*
X206519795Y-48408062D01*
X206502479Y-48483112D01*
X206481574Y-48556730D01*
X206457184Y-48628810D01*
X206429399Y-48699255D01*
X206398345Y-48767978D01*
X206364079Y-48834870D01*
X206326719Y-48899828D01*
X206286374Y-48962768D01*
X206243124Y-49023589D01*
X206197072Y-49082198D01*
X206148310Y-49138489D01*
X206096947Y-49192363D01*
X206043068Y-49243730D01*
X205986777Y-49292484D01*
X205928183Y-49338541D01*
X205867353Y-49381796D01*
X205804415Y-49422141D01*
X205739449Y-49459496D01*
X205672558Y-49493754D01*
X205603841Y-49524816D01*
X205533393Y-49552595D01*
X205461316Y-49576992D01*
X205387690Y-49597892D01*
X205312645Y-49615211D01*
X205236243Y-49628857D01*
X205158617Y-49638724D01*
X205079833Y-49644713D01*
X205000000Y-49646733D01*
X204920168Y-49644713D01*
X204841384Y-49638724D01*
X204763757Y-49628857D01*
X204687356Y-49615211D01*
X204612310Y-49597892D01*
X204538684Y-49576992D01*
X204466607Y-49552595D01*
X204396160Y-49524816D01*
X204327443Y-49493754D01*
X204260551Y-49459496D01*
X204195585Y-49422141D01*
X204132647Y-49381796D01*
X204071817Y-49338541D01*
X204013225Y-49292484D01*
X203956932Y-49243730D01*
X203903053Y-49192363D01*
X203851690Y-49138489D01*
X203802928Y-49082198D01*
X203756879Y-49023589D01*
X203713626Y-48962768D01*
X203673281Y-48899828D01*
X203635921Y-48834870D01*
X203601655Y-48767978D01*
X203570601Y-48699255D01*
X203542816Y-48628810D01*
X203518428Y-48556730D01*
X203497521Y-48483112D01*
X203480205Y-48408062D01*
X203466560Y-48331665D01*
X203456696Y-48254028D01*
X203450709Y-48175250D01*
X203448685Y-48095414D01*
X203450709Y-48015590D01*
X203456696Y-47936804D01*
X203466560Y-47859159D01*
X203480205Y-47782773D01*
X203497521Y-47707718D01*
X203518428Y-47634102D01*
X203542816Y-47562029D01*
X203570601Y-47491580D01*
X203601655Y-47422863D01*
X203635921Y-47355966D01*
X203673281Y-47291006D01*
X203713626Y-47228061D01*
X203756879Y-47167244D01*
X203802928Y-47108634D01*
X203851690Y-47052351D01*
X203903053Y-46998467D01*
X203956932Y-46947107D01*
X204013225Y-46898347D01*
X204071817Y-46852287D01*
X204132647Y-46809044D01*
X204195585Y-46768690D01*
X204260551Y-46731340D01*
X204327443Y-46697073D01*
X204396160Y-46666010D01*
X204466607Y-46638230D01*
X204538684Y-46613845D01*
X204612310Y-46592941D01*
X204687356Y-46575615D01*
X204763757Y-46561975D01*
X204841384Y-46552104D01*
X204920168Y-46546127D01*
X205000000Y-46544102D01*
X205079833Y-46546127D01*
M02*
