%TF.GenerationSoftware,KiCad,Pcbnew,10.0.5*%
%TF.CreationDate,2026-09-04T14:01:11+05:30*%
%TF.ProjectId,Rocket_solder,526f636b-6574-45f7-936f-6c6465722e6b,rev?*%
%TF.SameCoordinates,Original*%
%TF.FileFunction,Copper,L1,Top*%
%TF.FilePolarity,Positive*%
%FSLAX46Y46*%
G04 Gerber Fmt 4.6, Leading zero omitted, Abs format (unit mm)*
G04 Created by KiCad (PCBNEW 10.0.5) date 2026-09-04 14:01:11*
%MOMM*%
%LPD*%
G01*
G04 APERTURE LIST*
G04 Aperture macros list*
%AMRoundRect*
0 Rectangle with rounded corners*
0 $1 Rounding radius*
0 $2 $3 $4 $5 $6 $7 $8 $9 X,Y pos of 4 corners*
0 Add a 4 corners polygon primitive as box body*
4,1,4,$2,$3,$4,$5,$6,$7,$8,$9,$2,$3,0*
0 Add four circle primitives for the rounded corners*
1,1,$1+$1,$2,$3*
1,1,$1+$1,$4,$5*
1,1,$1+$1,$6,$7*
1,1,$1+$1,$8,$9*
0 Add four rect primitives between the rounded corners*
20,1,$1+$1,$2,$3,$4,$5,0*
20,1,$1+$1,$4,$5,$6,$7,0*
20,1,$1+$1,$6,$7,$8,$9,0*
20,1,$1+$1,$8,$9,$2,$3,0*%
%AMRotRect*
0 Rectangle, with rotation*
0 The origin of the aperture is its center*
0 $1 length*
0 $2 width*
0 $3 Rotation angle, in degrees counterclockwise*
0 Add horizontal line*
21,1,$1,$2,0,0,$3*%
G04 Aperture macros list end*
%ADD10C,0.150000*%
%TA.AperFunction,NonConductor*%
%ADD11C,0.150000*%
%TD*%
%TA.AperFunction,EtchedComponent*%
%ADD12C,0.000000*%
%TD*%
%TA.AperFunction,ComponentPad*%
%ADD13O,1.050000X1.500000*%
%TD*%
%TA.AperFunction,ComponentPad*%
%ADD14R,1.050000X1.500000*%
%TD*%
%TA.AperFunction,ComponentPad*%
%ADD15C,1.600000*%
%TD*%
%TA.AperFunction,ComponentPad*%
%ADD16RotRect,1.800000X1.800000X25.000000*%
%TD*%
%TA.AperFunction,ComponentPad*%
%ADD17C,1.800000*%
%TD*%
%TA.AperFunction,ComponentPad*%
%ADD18R,1.700000X1.700000*%
%TD*%
%TA.AperFunction,ComponentPad*%
%ADD19C,1.700000*%
%TD*%
%TA.AperFunction,ComponentPad*%
%ADD20RoundRect,0.250000X-0.550000X-0.550000X0.550000X-0.550000X0.550000X0.550000X-0.550000X0.550000X0*%
%TD*%
%TA.AperFunction,ComponentPad*%
%ADD21C,1.440000*%
%TD*%
%TA.AperFunction,ComponentPad*%
%ADD22C,2.000000*%
%TD*%
%TA.AperFunction,ComponentPad*%
%ADD23R,1.800000X1.800000*%
%TD*%
%TA.AperFunction,SMDPad,CuDef*%
%ADD24R,1.270000X5.080000*%
%TD*%
%TA.AperFunction,SMDPad,CuDef*%
%ADD25C,17.800000*%
%TD*%
%TA.AperFunction,ComponentPad*%
%ADD26C,1.500000*%
%TD*%
%TA.AperFunction,ComponentPad*%
%ADD27RotRect,1.800000X1.800000X340.000000*%
%TD*%
%TA.AperFunction,ComponentPad*%
%ADD28RoundRect,0.250000X0.550000X0.550000X-0.550000X0.550000X-0.550000X-0.550000X0.550000X-0.550000X0*%
%TD*%
%TA.AperFunction,ViaPad*%
%ADD29C,0.600000*%
%TD*%
%TA.AperFunction,Conductor*%
%ADD30C,0.200000*%
%TD*%
G04 APERTURE END LIST*
D10*
D11*
X218784398Y-100393628D02*
X218746303Y-100346009D01*
X218746303Y-100346009D02*
X218670112Y-100298390D01*
X218670112Y-100298390D02*
X218593922Y-100298390D01*
X218593922Y-100298390D02*
X218517731Y-100346009D01*
X218517731Y-100346009D02*
X218479636Y-100393628D01*
X218479636Y-100393628D02*
X218441541Y-100488866D01*
X218441541Y-100488866D02*
X218441541Y-100584104D01*
X218441541Y-100584104D02*
X218479636Y-100679342D01*
X218479636Y-100679342D02*
X218517731Y-100726961D01*
X218517731Y-100726961D02*
X218593922Y-100774580D01*
X218593922Y-100774580D02*
X218670112Y-100774580D01*
X218670112Y-100774580D02*
X218746303Y-100726961D01*
X218746303Y-100726961D02*
X218784398Y-100679342D01*
X218784398Y-100298390D02*
X218784398Y-100679342D01*
X218784398Y-100679342D02*
X218822493Y-100726961D01*
X218822493Y-100726961D02*
X218860588Y-100726961D01*
X218860588Y-100726961D02*
X218936779Y-100679342D01*
X218936779Y-100679342D02*
X218974874Y-100584104D01*
X218974874Y-100584104D02*
X218974874Y-100346009D01*
X218974874Y-100346009D02*
X218898684Y-100203152D01*
X218898684Y-100203152D02*
X218784398Y-100107914D01*
X218784398Y-100107914D02*
X218632017Y-100060295D01*
X218632017Y-100060295D02*
X218479636Y-100107914D01*
X218479636Y-100107914D02*
X218365350Y-100203152D01*
X218365350Y-100203152D02*
X218289160Y-100346009D01*
X218289160Y-100346009D02*
X218251064Y-100536485D01*
X218251064Y-100536485D02*
X218289160Y-100726961D01*
X218289160Y-100726961D02*
X218365350Y-100869819D01*
X218365350Y-100869819D02*
X218479636Y-100965057D01*
X218479636Y-100965057D02*
X218632017Y-101012676D01*
X218632017Y-101012676D02*
X218784398Y-100965057D01*
X218784398Y-100965057D02*
X218898684Y-100869819D01*
X219317731Y-100869819D02*
X219317731Y-99869819D01*
X219317731Y-99869819D02*
X219774874Y-100869819D01*
X219774874Y-100869819D02*
X219774874Y-99869819D01*
X220155826Y-100869819D02*
X220155826Y-100203152D01*
X220155826Y-99869819D02*
X220117730Y-99917438D01*
X220117730Y-99917438D02*
X220155826Y-99965057D01*
X220155826Y-99965057D02*
X220193921Y-99917438D01*
X220193921Y-99917438D02*
X220155826Y-99869819D01*
X220155826Y-99869819D02*
X220155826Y-99965057D01*
X220422492Y-100203152D02*
X220727254Y-100203152D01*
X220536778Y-99869819D02*
X220536778Y-100726961D01*
X220536778Y-100726961D02*
X220574873Y-100822200D01*
X220574873Y-100822200D02*
X220651063Y-100869819D01*
X220651063Y-100869819D02*
X220727254Y-100869819D01*
X220993921Y-100869819D02*
X220993921Y-100203152D01*
X220993921Y-99869819D02*
X220955825Y-99917438D01*
X220955825Y-99917438D02*
X220993921Y-99965057D01*
X220993921Y-99965057D02*
X221032016Y-99917438D01*
X221032016Y-99917438D02*
X220993921Y-99869819D01*
X220993921Y-99869819D02*
X220993921Y-99965057D01*
X221336777Y-100822200D02*
X221412968Y-100869819D01*
X221412968Y-100869819D02*
X221565349Y-100869819D01*
X221565349Y-100869819D02*
X221641539Y-100822200D01*
X221641539Y-100822200D02*
X221679635Y-100726961D01*
X221679635Y-100726961D02*
X221679635Y-100679342D01*
X221679635Y-100679342D02*
X221641539Y-100584104D01*
X221641539Y-100584104D02*
X221565349Y-100536485D01*
X221565349Y-100536485D02*
X221451063Y-100536485D01*
X221451063Y-100536485D02*
X221374873Y-100488866D01*
X221374873Y-100488866D02*
X221336777Y-100393628D01*
X221336777Y-100393628D02*
X221336777Y-100346009D01*
X221336777Y-100346009D02*
X221374873Y-100250771D01*
X221374873Y-100250771D02*
X221451063Y-100203152D01*
X221451063Y-100203152D02*
X221565349Y-100203152D01*
X221565349Y-100203152D02*
X221641539Y-100250771D01*
X222022492Y-100869819D02*
X222022492Y-99869819D01*
X222365349Y-100869819D02*
X222365349Y-100346009D01*
X222365349Y-100346009D02*
X222327254Y-100250771D01*
X222327254Y-100250771D02*
X222251063Y-100203152D01*
X222251063Y-100203152D02*
X222136777Y-100203152D01*
X222136777Y-100203152D02*
X222060587Y-100250771D01*
X222060587Y-100250771D02*
X222022492Y-100298390D01*
X223127254Y-99869819D02*
X222746302Y-99869819D01*
X222746302Y-99869819D02*
X222708206Y-100346009D01*
X222708206Y-100346009D02*
X222746302Y-100298390D01*
X222746302Y-100298390D02*
X222822492Y-100250771D01*
X222822492Y-100250771D02*
X223012968Y-100250771D01*
X223012968Y-100250771D02*
X223089159Y-100298390D01*
X223089159Y-100298390D02*
X223127254Y-100346009D01*
X223127254Y-100346009D02*
X223165349Y-100441247D01*
X223165349Y-100441247D02*
X223165349Y-100679342D01*
X223165349Y-100679342D02*
X223127254Y-100774580D01*
X223127254Y-100774580D02*
X223089159Y-100822200D01*
X223089159Y-100822200D02*
X223012968Y-100869819D01*
X223012968Y-100869819D02*
X222822492Y-100869819D01*
X222822492Y-100869819D02*
X222746302Y-100822200D01*
X222746302Y-100822200D02*
X222708206Y-100774580D01*
X223927254Y-100869819D02*
X223470111Y-100869819D01*
X223698683Y-100869819D02*
X223698683Y-99869819D01*
X223698683Y-99869819D02*
X223622492Y-100012676D01*
X223622492Y-100012676D02*
X223546302Y-100107914D01*
X223546302Y-100107914D02*
X223470111Y-100155533D01*
X224308207Y-100869819D02*
X224460588Y-100869819D01*
X224460588Y-100869819D02*
X224536778Y-100822200D01*
X224536778Y-100822200D02*
X224574874Y-100774580D01*
X224574874Y-100774580D02*
X224651064Y-100631723D01*
X224651064Y-100631723D02*
X224689159Y-100441247D01*
X224689159Y-100441247D02*
X224689159Y-100060295D01*
X224689159Y-100060295D02*
X224651064Y-99965057D01*
X224651064Y-99965057D02*
X224612969Y-99917438D01*
X224612969Y-99917438D02*
X224536778Y-99869819D01*
X224536778Y-99869819D02*
X224384397Y-99869819D01*
X224384397Y-99869819D02*
X224308207Y-99917438D01*
X224308207Y-99917438D02*
X224270112Y-99965057D01*
X224270112Y-99965057D02*
X224232016Y-100060295D01*
X224232016Y-100060295D02*
X224232016Y-100298390D01*
X224232016Y-100298390D02*
X224270112Y-100393628D01*
X224270112Y-100393628D02*
X224308207Y-100441247D01*
X224308207Y-100441247D02*
X224384397Y-100488866D01*
X224384397Y-100488866D02*
X224536778Y-100488866D01*
X224536778Y-100488866D02*
X224612969Y-100441247D01*
X224612969Y-100441247D02*
X224651064Y-100393628D01*
X224651064Y-100393628D02*
X224689159Y-100298390D01*
X225374874Y-99869819D02*
X225222493Y-99869819D01*
X225222493Y-99869819D02*
X225146302Y-99917438D01*
X225146302Y-99917438D02*
X225108207Y-99965057D01*
X225108207Y-99965057D02*
X225032017Y-100107914D01*
X225032017Y-100107914D02*
X224993921Y-100298390D01*
X224993921Y-100298390D02*
X224993921Y-100679342D01*
X224993921Y-100679342D02*
X225032017Y-100774580D01*
X225032017Y-100774580D02*
X225070112Y-100822200D01*
X225070112Y-100822200D02*
X225146302Y-100869819D01*
X225146302Y-100869819D02*
X225298683Y-100869819D01*
X225298683Y-100869819D02*
X225374874Y-100822200D01*
X225374874Y-100822200D02*
X225412969Y-100774580D01*
X225412969Y-100774580D02*
X225451064Y-100679342D01*
X225451064Y-100679342D02*
X225451064Y-100441247D01*
X225451064Y-100441247D02*
X225412969Y-100346009D01*
X225412969Y-100346009D02*
X225374874Y-100298390D01*
X225374874Y-100298390D02*
X225298683Y-100250771D01*
X225298683Y-100250771D02*
X225146302Y-100250771D01*
X225146302Y-100250771D02*
X225070112Y-100298390D01*
X225070112Y-100298390D02*
X225032017Y-100346009D01*
X225032017Y-100346009D02*
X224993921Y-100441247D01*
D12*
%TA.AperFunction,EtchedComponent*%
%TO.C,G\u002A\u002A\u002A*%
G36*
X197606174Y-58774880D02*
G01*
X197620450Y-58783269D01*
X197628800Y-58797941D01*
X197630276Y-58809167D01*
X197626130Y-58829830D01*
X197613458Y-58849402D01*
X197591915Y-58868292D01*
X197567203Y-58883662D01*
X197544529Y-58896132D01*
X197537367Y-58878990D01*
X197531368Y-58864899D01*
X197523573Y-58846929D01*
X197518301Y-58834931D01*
X197512349Y-58819861D01*
X197508897Y-58807862D01*
X197508583Y-58802319D01*
X197514060Y-58798045D01*
X197526357Y-58792380D01*
X197543057Y-58786184D01*
X197561743Y-58780321D01*
X197580000Y-58775650D01*
X197587627Y-58774133D01*
X197606174Y-58774880D01*
G37*
%TD.AperFunction*%
%TA.AperFunction,EtchedComponent*%
G36*
X197664266Y-58944384D02*
G01*
X197681627Y-58950562D01*
X197694113Y-58963499D01*
X197699861Y-58974720D01*
X197704418Y-58995017D01*
X197700405Y-59014060D01*
X197687619Y-59032081D01*
X197665857Y-59049310D01*
X197634918Y-59065980D01*
X197611346Y-59076015D01*
X197596424Y-59081232D01*
X197588188Y-59082194D01*
X197585092Y-59079603D01*
X197583188Y-59072708D01*
X197579711Y-59058785D01*
X197575210Y-59040067D01*
X197571666Y-59024970D01*
X197566406Y-59000558D01*
X197563927Y-58984188D01*
X197564115Y-58974848D01*
X197565603Y-58972074D01*
X197583595Y-58961162D01*
X197606760Y-58951769D01*
X197630763Y-58945511D01*
X197640474Y-58944166D01*
X197664266Y-58944384D01*
G37*
%TD.AperFunction*%
%TA.AperFunction,EtchedComponent*%
G36*
X195099449Y-58697633D02*
G01*
X195100054Y-58698402D01*
X195103191Y-58707978D01*
X195105063Y-58725084D01*
X195105731Y-58747834D01*
X195105256Y-58774346D01*
X195103699Y-58802735D01*
X195101121Y-58831118D01*
X195097584Y-58857611D01*
X195094310Y-58875233D01*
X195092409Y-58880529D01*
X195088484Y-58883805D01*
X195081105Y-58885092D01*
X195068838Y-58884419D01*
X195050253Y-58881818D01*
X195023918Y-58877316D01*
X195020883Y-58876777D01*
X194997389Y-58872042D01*
X194982957Y-58867772D01*
X194977163Y-58863830D01*
X194977044Y-58862695D01*
X194980036Y-58857134D01*
X194987655Y-58845019D01*
X194999085Y-58827587D01*
X195013510Y-58806077D01*
X195030115Y-58781727D01*
X195036015Y-58773161D01*
X195055161Y-58745565D01*
X195069725Y-58724996D01*
X195080439Y-58710599D01*
X195088036Y-58701520D01*
X195093249Y-58696902D01*
X195096809Y-58695891D01*
X195099449Y-58697633D01*
G37*
%TD.AperFunction*%
%TA.AperFunction,EtchedComponent*%
G36*
X194528948Y-58128012D02*
G01*
X194588423Y-58128539D01*
X194640939Y-58130113D01*
X194689013Y-58132979D01*
X194735156Y-58137383D01*
X194781885Y-58143573D01*
X194831713Y-58151793D01*
X194887155Y-58162290D01*
X194894928Y-58163839D01*
X194995037Y-58185703D01*
X195095360Y-58211343D01*
X195196909Y-58241109D01*
X195300695Y-58275351D01*
X195407728Y-58314420D01*
X195519020Y-58358664D01*
X195635581Y-58408435D01*
X195748091Y-58459291D01*
X195825057Y-58493937D01*
X195896211Y-58523806D01*
X195963501Y-58549605D01*
X196028880Y-58572042D01*
X196094297Y-58591824D01*
X196161703Y-58609660D01*
X196163978Y-58610222D01*
X196270096Y-58634080D01*
X196373063Y-58652312D01*
X196475342Y-58665186D01*
X196579400Y-58672967D01*
X196687701Y-58675919D01*
X196767608Y-58675250D01*
X196866356Y-58671620D01*
X196960431Y-58664897D01*
X197052273Y-58654749D01*
X197144324Y-58640844D01*
X197239024Y-58622849D01*
X197338814Y-58600432D01*
X197366485Y-58593692D01*
X197487479Y-58560865D01*
X197610255Y-58521954D01*
X197732887Y-58477731D01*
X197853448Y-58428966D01*
X197970013Y-58376428D01*
X198080654Y-58320888D01*
X198162294Y-58275577D01*
X198185227Y-58262496D01*
X198201445Y-58253967D01*
X198212250Y-58249442D01*
X198218948Y-58248368D01*
X198222718Y-58250067D01*
X198223449Y-58252883D01*
X198222317Y-58258634D01*
X198219019Y-58267964D01*
X198213251Y-58281517D01*
X198204711Y-58299939D01*
X198193096Y-58323873D01*
X198178103Y-58353964D01*
X198159428Y-58390856D01*
X198136770Y-58435195D01*
X198124063Y-58459949D01*
X198102659Y-58501840D01*
X198083019Y-58540754D01*
X198065524Y-58575908D01*
X198050551Y-58606520D01*
X198038480Y-58631805D01*
X198029690Y-58650982D01*
X198024561Y-58663266D01*
X198023429Y-58667846D01*
X198028869Y-58668693D01*
X198042873Y-58669532D01*
X198064500Y-58670341D01*
X198092806Y-58671098D01*
X198126851Y-58671782D01*
X198165692Y-58672372D01*
X198208389Y-58672844D01*
X198253997Y-58673178D01*
X198255091Y-58673184D01*
X198312012Y-58673563D01*
X198359906Y-58674041D01*
X198399249Y-58674632D01*
X198430519Y-58675350D01*
X198454193Y-58676208D01*
X198470750Y-58677220D01*
X198480665Y-58678401D01*
X198484418Y-58679764D01*
X198484458Y-58679852D01*
X198481601Y-58684750D01*
X198472236Y-58695084D01*
X198457117Y-58710160D01*
X198437000Y-58729280D01*
X198412638Y-58751750D01*
X198384788Y-58776873D01*
X198354204Y-58803954D01*
X198321641Y-58832297D01*
X198287853Y-58861205D01*
X198286189Y-58862615D01*
X198153999Y-58971720D01*
X198022940Y-59074114D01*
X197893311Y-59169622D01*
X197765407Y-59258072D01*
X197639523Y-59339290D01*
X197515957Y-59413101D01*
X197395004Y-59479331D01*
X197276961Y-59537807D01*
X197162123Y-59588355D01*
X197050786Y-59630800D01*
X196943247Y-59664970D01*
X196900692Y-59676452D01*
X196853723Y-59687994D01*
X196811365Y-59697265D01*
X196771631Y-59704490D01*
X196732534Y-59709895D01*
X196692087Y-59713706D01*
X196648303Y-59716151D01*
X196599195Y-59717454D01*
X196542777Y-59717842D01*
X196537088Y-59717839D01*
X196375299Y-59714760D01*
X196216015Y-59705693D01*
X196057887Y-59690444D01*
X195899564Y-59668816D01*
X195739695Y-59640614D01*
X195576930Y-59605643D01*
X195409919Y-59563705D01*
X195339040Y-59544209D01*
X195317723Y-59538117D01*
X195288805Y-59529725D01*
X195253789Y-59519476D01*
X195214175Y-59507813D01*
X195171467Y-59495178D01*
X195127166Y-59482012D01*
X195082774Y-59468759D01*
X195075249Y-59466506D01*
X194952925Y-59430238D01*
X194839024Y-59397255D01*
X194733090Y-59367450D01*
X194725974Y-59365517D01*
X195628932Y-59365517D01*
X195631700Y-59375459D01*
X195637599Y-59383781D01*
X195638772Y-59384992D01*
X195652653Y-59392590D01*
X195671392Y-59394103D01*
X195692494Y-59389472D01*
X195699842Y-59386451D01*
X195720254Y-59373427D01*
X195742110Y-59353392D01*
X195763705Y-59328305D01*
X195783335Y-59300126D01*
X195797886Y-59273795D01*
X195807585Y-59252817D01*
X195816259Y-59232600D01*
X195822614Y-59216221D01*
X195824550Y-59210319D01*
X195829271Y-59198102D01*
X195834339Y-59190920D01*
X195836179Y-59190119D01*
X195844802Y-59189235D01*
X195856024Y-59187307D01*
X195870085Y-59184495D01*
X195885176Y-59257414D01*
X195891403Y-59288010D01*
X195897839Y-59320508D01*
X195903808Y-59351431D01*
X195908631Y-59377306D01*
X195909483Y-59382043D01*
X195914805Y-59408814D01*
X195920432Y-59428251D01*
X195927507Y-59442487D01*
X195937174Y-59453656D01*
X195950577Y-59463893D01*
X195954846Y-59466686D01*
X195973063Y-59473338D01*
X195993676Y-59473371D01*
X196012806Y-59467122D01*
X196021546Y-59460891D01*
X196034664Y-59442213D01*
X196042121Y-59416610D01*
X196043852Y-59384842D01*
X196039793Y-59347668D01*
X196033650Y-59319528D01*
X196025822Y-59291480D01*
X196016467Y-59261570D01*
X196006315Y-59231805D01*
X195996092Y-59204191D01*
X195993408Y-59197609D01*
X196372505Y-59197609D01*
X196372996Y-59233545D01*
X196374592Y-59267674D01*
X196377295Y-59297749D01*
X196381103Y-59321518D01*
X196381533Y-59323409D01*
X196396067Y-59370945D01*
X196415530Y-59411391D01*
X196439614Y-59444339D01*
X196468015Y-59469383D01*
X196500426Y-59486114D01*
X196504640Y-59487566D01*
X196525024Y-59491490D01*
X196550909Y-59492607D01*
X196578771Y-59491089D01*
X196605082Y-59487107D01*
X196623887Y-59481800D01*
X196641409Y-59472789D01*
X196658604Y-59460332D01*
X196663881Y-59455428D01*
X196674632Y-59442945D01*
X196680362Y-59430986D01*
X196683096Y-59414973D01*
X196683437Y-59411171D01*
X196683503Y-59391473D01*
X196679363Y-59377766D01*
X196670187Y-59369719D01*
X196655141Y-59366999D01*
X196633395Y-59369276D01*
X196604115Y-59376217D01*
X196599210Y-59377587D01*
X196572874Y-59381684D01*
X196549568Y-59377827D01*
X196528673Y-59365640D01*
X196509569Y-59344747D01*
X196491636Y-59314773D01*
X196489941Y-59311380D01*
X196475526Y-59274812D01*
X196466023Y-59234975D01*
X196461492Y-59193958D01*
X196461990Y-59153854D01*
X196467574Y-59116755D01*
X196478301Y-59084752D01*
X196483449Y-59074852D01*
X196495776Y-59059404D01*
X196511783Y-59046828D01*
X196528320Y-59039302D01*
X196536602Y-59038104D01*
X196547508Y-59040542D01*
X196562371Y-59046724D01*
X196572735Y-59052282D01*
X196594674Y-59062945D01*
X196611937Y-59065875D01*
X196625288Y-59061137D01*
X196629666Y-59057152D01*
X196635599Y-59044088D01*
X196635873Y-59026250D01*
X196630837Y-59006225D01*
X196620844Y-58986603D01*
X196619904Y-58985219D01*
X196597688Y-58960466D01*
X196596650Y-58959794D01*
X196732178Y-58959794D01*
X196732185Y-58981109D01*
X196733564Y-59008801D01*
X196736204Y-59041376D01*
X196739991Y-59077336D01*
X196744812Y-59115185D01*
X196748102Y-59137836D01*
X196753020Y-59171677D01*
X196758134Y-59209480D01*
X196762910Y-59247132D01*
X196766812Y-59280520D01*
X196767571Y-59287556D01*
X196771828Y-59326289D01*
X196775587Y-59356594D01*
X196779049Y-59379519D01*
X196782418Y-59396116D01*
X196785895Y-59407435D01*
X196789682Y-59414527D01*
X196792581Y-59417505D01*
X196802839Y-59420959D01*
X196820712Y-59422324D01*
X196844566Y-59421716D01*
X196872769Y-59419252D01*
X196903687Y-59415046D01*
X196935688Y-59409214D01*
X196948222Y-59406498D01*
X196990143Y-59396549D01*
X197023582Y-59387600D01*
X197049471Y-59379321D01*
X197068739Y-59371381D01*
X197082317Y-59363449D01*
X197090473Y-59356009D01*
X197100432Y-59340376D01*
X197101572Y-59326922D01*
X197093974Y-59314491D01*
X197093453Y-59313962D01*
X197082205Y-59305882D01*
X197067610Y-59301699D01*
X197048251Y-59301363D01*
X197022713Y-59304822D01*
X196996182Y-59310452D01*
X196954999Y-59319289D01*
X196921615Y-59324693D01*
X196896315Y-59326637D01*
X196879381Y-59325091D01*
X196873223Y-59322380D01*
X196870264Y-59319002D01*
X196867800Y-59312982D01*
X196865656Y-59303101D01*
X196863653Y-59288137D01*
X196861614Y-59266870D01*
X196859362Y-59238077D01*
X196857803Y-59216223D01*
X196854613Y-59172303D01*
X196851642Y-59136095D01*
X196848659Y-59105815D01*
X196845434Y-59079678D01*
X196841735Y-59055901D01*
X196837332Y-59032699D01*
X196831993Y-59008289D01*
X196829546Y-58997794D01*
X196820671Y-58963938D01*
X196811861Y-58938673D01*
X196802583Y-58921101D01*
X196792303Y-58910325D01*
X196780488Y-58905449D01*
X196774331Y-58904940D01*
X196761677Y-58909067D01*
X196748860Y-58919730D01*
X196738413Y-58934348D01*
X196733658Y-58946354D01*
X196732178Y-58959794D01*
X196596650Y-58959794D01*
X196571454Y-58943475D01*
X196542563Y-58934636D01*
X196512375Y-58934338D01*
X196482253Y-58942972D01*
X196478534Y-58944711D01*
X196449108Y-58963184D01*
X196424675Y-58987737D01*
X196404627Y-59019226D01*
X196388353Y-59058504D01*
X196381587Y-59080800D01*
X196377661Y-59101464D01*
X196374838Y-59129319D01*
X196373120Y-59162118D01*
X196372505Y-59197609D01*
X195993408Y-59197609D01*
X195986526Y-59180735D01*
X195978343Y-59163443D01*
X195974986Y-59157716D01*
X195963532Y-59140457D01*
X196010263Y-59088531D01*
X196040794Y-59053648D01*
X196064632Y-59024150D01*
X196082308Y-58999238D01*
X196094351Y-58978118D01*
X196101293Y-58959993D01*
X196103401Y-58948650D01*
X196103164Y-58926417D01*
X196097450Y-58911946D01*
X196086285Y-58905245D01*
X196069692Y-58906326D01*
X196047698Y-58915195D01*
X196034340Y-58922763D01*
X196013067Y-58937213D01*
X195987745Y-58956664D01*
X195960747Y-58979110D01*
X195934444Y-59002541D01*
X195911208Y-59024947D01*
X195900787Y-59035894D01*
X195878011Y-59060815D01*
X195884411Y-59026843D01*
X195887732Y-59004773D01*
X195890472Y-58978009D01*
X195892563Y-58948571D01*
X195893937Y-58918480D01*
X195894508Y-58890730D01*
X197036287Y-58890730D01*
X197036510Y-58904298D01*
X197037439Y-58918304D01*
X197040173Y-58939176D01*
X197045979Y-58967536D01*
X197054955Y-59003802D01*
X197067200Y-59048395D01*
X197071730Y-59064165D01*
X197085235Y-59109700D01*
X197097125Y-59147059D01*
X197107934Y-59177327D01*
X197118193Y-59201590D01*
X197128432Y-59220932D01*
X197139183Y-59236438D01*
X197150978Y-59249193D01*
X197164348Y-59260283D01*
X197169624Y-59264059D01*
X197198215Y-59279606D01*
X197230212Y-59289908D01*
X197263132Y-59294633D01*
X197294488Y-59293451D01*
X197321796Y-59286032D01*
X197324713Y-59284692D01*
X197348380Y-59268057D01*
X197367511Y-59243661D01*
X197381918Y-59212199D01*
X197391410Y-59174365D01*
X197395800Y-59130852D01*
X197394898Y-59082354D01*
X197390585Y-59042776D01*
X197381111Y-58984229D01*
X197370943Y-58934813D01*
X197359925Y-58894170D01*
X197347904Y-58861941D01*
X197334724Y-58837767D01*
X197320230Y-58821290D01*
X197304266Y-58812151D01*
X197290003Y-58809880D01*
X197277535Y-58811627D01*
X197268840Y-58818566D01*
X197264244Y-58825327D01*
X197257605Y-58841179D01*
X197255310Y-58860814D01*
X197257386Y-58885653D01*
X197263861Y-58917117D01*
X197266217Y-58926365D01*
X197274852Y-58964361D01*
X197282158Y-59006487D01*
X197287753Y-59049653D01*
X197291254Y-59090773D01*
X197292279Y-59126760D01*
X197292089Y-59134985D01*
X197290108Y-59163105D01*
X197286034Y-59183125D01*
X197279081Y-59196363D01*
X197268460Y-59204135D01*
X197253383Y-59207758D01*
X197248269Y-59208207D01*
X197235860Y-59208002D01*
X197224991Y-59205127D01*
X197215273Y-59198802D01*
X197206316Y-59188249D01*
X197197731Y-59172690D01*
X197189129Y-59151346D01*
X197180121Y-59123439D01*
X197170318Y-59088191D01*
X197159331Y-59044822D01*
X197152500Y-59016635D01*
X197143158Y-58977980D01*
X197135514Y-58947434D01*
X197129159Y-58923836D01*
X197123685Y-58906026D01*
X197118682Y-58892843D01*
X197113742Y-58883127D01*
X197108455Y-58875717D01*
X197102415Y-58869452D01*
X197099844Y-58867137D01*
X197084365Y-58856158D01*
X197071151Y-58853623D01*
X197058092Y-58859536D01*
X197049386Y-58867209D01*
X197042074Y-58874968D01*
X197037925Y-58881881D01*
X197036287Y-58890730D01*
X195894508Y-58890730D01*
X195894528Y-58889757D01*
X195894267Y-58864422D01*
X195893088Y-58844496D01*
X195890925Y-58832010D01*
X195880410Y-58810152D01*
X195865575Y-58792444D01*
X195865245Y-58792204D01*
X197426846Y-58792204D01*
X197428329Y-58806935D01*
X197432538Y-58826542D01*
X197439612Y-58852382D01*
X197449688Y-58885810D01*
X197449917Y-58886552D01*
X197459918Y-58919259D01*
X197470340Y-58953898D01*
X197480823Y-58989217D01*
X197491006Y-59023965D01*
X197500530Y-59056890D01*
X197509035Y-59086740D01*
X197516160Y-59112263D01*
X197521547Y-59132209D01*
X197524834Y-59145324D01*
X197525710Y-59150087D01*
X197527694Y-59155788D01*
X197534614Y-59159078D01*
X197547920Y-59160261D01*
X197569065Y-59159640D01*
X197570864Y-59159537D01*
X197607670Y-59153783D01*
X197639753Y-59143013D01*
X197679759Y-59123858D01*
X197714084Y-59101788D01*
X197741774Y-59077632D01*
X197761876Y-59052224D01*
X197773438Y-59026394D01*
X197773465Y-59026294D01*
X197776440Y-58999870D01*
X197772744Y-58971330D01*
X197763379Y-58942741D01*
X197749347Y-58916168D01*
X197731651Y-58893679D01*
X197711293Y-58877339D01*
X197698311Y-58871377D01*
X197687375Y-58866497D01*
X197684363Y-58861001D01*
X197685098Y-58858122D01*
X197695598Y-58830599D01*
X197702034Y-58808910D01*
X197704969Y-58790584D01*
X197704966Y-58773153D01*
X197704838Y-58771512D01*
X197699490Y-58743945D01*
X197689005Y-58718974D01*
X197674747Y-58699764D01*
X197673210Y-58698320D01*
X197660173Y-58691618D01*
X197640585Y-58687702D01*
X197617023Y-58686695D01*
X197592063Y-58688723D01*
X197570249Y-58693328D01*
X197550756Y-58700148D01*
X197527774Y-58710041D01*
X197503458Y-58721864D01*
X197479965Y-58734477D01*
X197459451Y-58746735D01*
X197444072Y-58757499D01*
X197437364Y-58763711D01*
X197431502Y-58771948D01*
X197427949Y-58780994D01*
X197426846Y-58792204D01*
X195865245Y-58792204D01*
X195848057Y-58779690D01*
X195829493Y-58772693D01*
X195811520Y-58772259D01*
X195795774Y-58779189D01*
X195791421Y-58783149D01*
X195783557Y-58794463D01*
X195777082Y-58810704D01*
X195771787Y-58832875D01*
X195767463Y-58861980D01*
X195763901Y-58899023D01*
X195762180Y-58923296D01*
X195758163Y-58975398D01*
X195752918Y-59020655D01*
X195745835Y-59061294D01*
X195736301Y-59099542D01*
X195723706Y-59137628D01*
X195707437Y-59177779D01*
X195686884Y-59222223D01*
X195671663Y-59253025D01*
X195654660Y-59287561D01*
X195642160Y-59314979D01*
X195633888Y-59336377D01*
X195629570Y-59352857D01*
X195628932Y-59365517D01*
X194725974Y-59365517D01*
X194634668Y-59340714D01*
X194543303Y-59316938D01*
X194458537Y-59296014D01*
X194379916Y-59277832D01*
X194306983Y-59262285D01*
X194239284Y-59249264D01*
X194176361Y-59238660D01*
X194117760Y-59230365D01*
X194063024Y-59224269D01*
X194056025Y-59223620D01*
X193988717Y-59219539D01*
X193915602Y-59218731D01*
X193839770Y-59221127D01*
X193764314Y-59226659D01*
X193725019Y-59230901D01*
X193700581Y-59233863D01*
X193692552Y-59277345D01*
X193669841Y-59421406D01*
X193653914Y-59570224D01*
X193644986Y-59721684D01*
X193643939Y-59756914D01*
X193641093Y-59874550D01*
X193569809Y-59874550D01*
X193498525Y-59874550D01*
X193501728Y-59823456D01*
X193509415Y-59731919D01*
X193521215Y-59634119D01*
X193536738Y-59532162D01*
X193555592Y-59428155D01*
X193577385Y-59324205D01*
X193601726Y-59222418D01*
X193628223Y-59124901D01*
X193637059Y-59095059D01*
X193663641Y-59012107D01*
X193694889Y-58923130D01*
X193698462Y-58913659D01*
X194177361Y-58913659D01*
X194177444Y-58934581D01*
X194178208Y-58948288D01*
X194180193Y-58957070D01*
X194183942Y-58963217D01*
X194189996Y-58969018D01*
X194190562Y-58969507D01*
X194208009Y-58978617D01*
X194229714Y-58980949D01*
X194253216Y-58976449D01*
X194265798Y-58971154D01*
X194284013Y-58960069D01*
X194300605Y-58945716D01*
X194316600Y-58926802D01*
X194333022Y-58902037D01*
X194350894Y-58870131D01*
X194360041Y-58852392D01*
X194371793Y-58829192D01*
X194381995Y-58809161D01*
X194389901Y-58793753D01*
X194394768Y-58784419D01*
X194395954Y-58782291D01*
X194400430Y-58783500D01*
X194412047Y-58787477D01*
X194429074Y-58793575D01*
X194449781Y-58801148D01*
X194472435Y-58809549D01*
X194495306Y-58818133D01*
X194516664Y-58826252D01*
X194534778Y-58833262D01*
X194547915Y-58838514D01*
X194554346Y-58841364D01*
X194554613Y-58841534D01*
X194554326Y-58846430D01*
X194552311Y-58859027D01*
X194548856Y-58877737D01*
X194544251Y-58900970D01*
X194540738Y-58917930D01*
X194535046Y-58946558D01*
X194529998Y-58974907D01*
X194526022Y-59000359D01*
X194523543Y-59020293D01*
X194523042Y-59026551D01*
X194522338Y-59044775D01*
X194523242Y-59056659D01*
X194526442Y-59065324D01*
X194532626Y-59073893D01*
X194533775Y-59075269D01*
X194544662Y-59085690D01*
X194556467Y-59089842D01*
X194565170Y-59090306D01*
X194582402Y-59088470D01*
X194598951Y-59084007D01*
X194599755Y-59083683D01*
X194765462Y-59083683D01*
X194765660Y-59106469D01*
X194771569Y-59122319D01*
X194783593Y-59132185D01*
X194786583Y-59133453D01*
X194803876Y-59135118D01*
X194823654Y-59128609D01*
X194844975Y-59114618D01*
X194866901Y-59093838D01*
X194888490Y-59066963D01*
X194899759Y-59050029D01*
X194920899Y-59016110D01*
X194981585Y-59022821D01*
X195004397Y-59025398D01*
X195023447Y-59027653D01*
X195036934Y-59029365D01*
X195043054Y-59030313D01*
X195043228Y-59030378D01*
X195042191Y-59034942D01*
X195038694Y-59046929D01*
X195033226Y-59064722D01*
X195026280Y-59086706D01*
X195023028Y-59096835D01*
X195012611Y-59130747D01*
X195005845Y-59157217D01*
X195002637Y-59177542D01*
X195002893Y-59193017D01*
X195006517Y-59204939D01*
X195013417Y-59214603D01*
X195014401Y-59215612D01*
X195030951Y-59225936D01*
X195050977Y-59227599D01*
X195073980Y-59220575D01*
X195077370Y-59218917D01*
X195096709Y-59205540D01*
X195115534Y-59186577D01*
X195130477Y-59165507D01*
X195132235Y-59162263D01*
X195136961Y-59150313D01*
X195143005Y-59130806D01*
X195149919Y-59105527D01*
X195152779Y-59094121D01*
X195277580Y-59094121D01*
X195280271Y-59150135D01*
X195288508Y-59198566D01*
X195302424Y-59239648D01*
X195322155Y-59273613D01*
X195347835Y-59300695D01*
X195379599Y-59321126D01*
X195416573Y-59334871D01*
X195442903Y-59340493D01*
X195464033Y-59341251D01*
X195482924Y-59337147D01*
X195488578Y-59334977D01*
X195512978Y-59321371D01*
X195531453Y-59304111D01*
X195543123Y-59284605D01*
X195547108Y-59264262D01*
X195543604Y-59246894D01*
X195536077Y-59234133D01*
X195525104Y-59226796D01*
X195508381Y-59223708D01*
X195497502Y-59223390D01*
X195472268Y-59219749D01*
X195448365Y-59209847D01*
X195428926Y-59195210D01*
X195421775Y-59186467D01*
X195410214Y-59161273D01*
X195404001Y-59129281D01*
X195403102Y-59091531D01*
X195407483Y-59049061D01*
X195417111Y-59002909D01*
X195429021Y-58962676D01*
X195446257Y-58915196D01*
X195463293Y-58876718D01*
X195480429Y-58846749D01*
X195497963Y-58824798D01*
X195516195Y-58810374D01*
X195523930Y-58806526D01*
X195543633Y-58802149D01*
X195561975Y-58806579D01*
X195580108Y-58820121D01*
X195581862Y-58821892D01*
X195601669Y-58838035D01*
X195620806Y-58845098D01*
X195638859Y-58842951D01*
X195642564Y-58841271D01*
X195656517Y-58829531D01*
X195664523Y-58811467D01*
X195666819Y-58786434D01*
X195666369Y-58776595D01*
X195659962Y-58746854D01*
X195645113Y-58720789D01*
X195621487Y-58697853D01*
X195615638Y-58693564D01*
X195606250Y-58687280D01*
X195597938Y-58683156D01*
X195588384Y-58680737D01*
X195575270Y-58679569D01*
X195556276Y-58679200D01*
X195542099Y-58679172D01*
X195517724Y-58679405D01*
X195500198Y-58680380D01*
X195486870Y-58682513D01*
X195475091Y-58686219D01*
X195462911Y-58691578D01*
X195427902Y-58713329D01*
X195395447Y-58744023D01*
X195365725Y-58783401D01*
X195338915Y-58831202D01*
X195315193Y-58887167D01*
X195301639Y-58927390D01*
X195291391Y-58963524D01*
X195284371Y-58995989D01*
X195280073Y-59028290D01*
X195277991Y-59063933D01*
X195277580Y-59094121D01*
X195152779Y-59094121D01*
X195157258Y-59076259D01*
X195164574Y-59044789D01*
X195171421Y-59012898D01*
X195177353Y-58982373D01*
X195177604Y-58980987D01*
X195186922Y-58923106D01*
X195193981Y-58865749D01*
X195198773Y-58810014D01*
X195201291Y-58756999D01*
X195201528Y-58707801D01*
X195199477Y-58663518D01*
X195195130Y-58625248D01*
X195188480Y-58594088D01*
X195180311Y-58572622D01*
X195172270Y-58559700D01*
X195161429Y-58545284D01*
X195158138Y-58541400D01*
X195147345Y-58530708D01*
X195137032Y-58525861D01*
X195122545Y-58524700D01*
X195122110Y-58524700D01*
X195094492Y-58528977D01*
X195068697Y-58542061D01*
X195048209Y-58559766D01*
X195043292Y-58564887D01*
X195038852Y-58569852D01*
X195034396Y-58575510D01*
X195029430Y-58582710D01*
X195023462Y-58592301D01*
X195015998Y-58605133D01*
X195006545Y-58622055D01*
X194994609Y-58643916D01*
X194979697Y-58671565D01*
X194961317Y-58705852D01*
X194938974Y-58747626D01*
X194937622Y-58750154D01*
X194917548Y-58787516D01*
X194895237Y-58828732D01*
X194872194Y-58871040D01*
X194849927Y-58911680D01*
X194829940Y-58947891D01*
X194822282Y-58961662D01*
X194804054Y-58994641D01*
X194790116Y-59020649D01*
X194779908Y-59040888D01*
X194772869Y-59056563D01*
X194768440Y-59068878D01*
X194766059Y-59079036D01*
X194765462Y-59083683D01*
X194599755Y-59083683D01*
X194600008Y-59083581D01*
X194617279Y-59073018D01*
X194635475Y-59056499D01*
X194651879Y-59036850D01*
X194663371Y-59017758D01*
X194669788Y-59002178D01*
X194678261Y-58978705D01*
X194688405Y-58948631D01*
X194699832Y-58913249D01*
X194712156Y-58873851D01*
X194724991Y-58831730D01*
X194737950Y-58788180D01*
X194750647Y-58744492D01*
X194762695Y-58701960D01*
X194773707Y-58661876D01*
X194783298Y-58625534D01*
X194791081Y-58594225D01*
X194794716Y-58578418D01*
X194800942Y-58547209D01*
X194803859Y-58523272D01*
X194803247Y-58504888D01*
X194798887Y-58490340D01*
X194790559Y-58477909D01*
X194780625Y-58468098D01*
X194760662Y-58456401D01*
X194738230Y-58452869D01*
X194715359Y-58457295D01*
X194694079Y-58469469D01*
X194685114Y-58477907D01*
X194677260Y-58488668D01*
X194666425Y-58506595D01*
X194653428Y-58530139D01*
X194639089Y-58557752D01*
X194624225Y-58587886D01*
X194609657Y-58618992D01*
X194605028Y-58629266D01*
X194595922Y-58649370D01*
X194588013Y-58666236D01*
X194582203Y-58677980D01*
X194579508Y-58682619D01*
X194573887Y-58682444D01*
X194561118Y-58679093D01*
X194542798Y-58673121D01*
X194520521Y-58665082D01*
X194495884Y-58655529D01*
X194470484Y-58645016D01*
X194467753Y-58643843D01*
X194444583Y-58633848D01*
X194448143Y-58613733D01*
X194451370Y-58595241D01*
X194454722Y-58575650D01*
X194455245Y-58572550D01*
X194456631Y-58552389D01*
X194455573Y-58526496D01*
X194452405Y-58498234D01*
X194447458Y-58470964D01*
X194443745Y-58456374D01*
X194431972Y-58426555D01*
X194416295Y-58402545D01*
X194397739Y-58385045D01*
X194377330Y-58374755D01*
X194356092Y-58372376D01*
X194335051Y-58378606D01*
X194332215Y-58380185D01*
X194320951Y-58388410D01*
X194311722Y-58399284D01*
X194303884Y-58414251D01*
X194296791Y-58434754D01*
X194289797Y-58462236D01*
X194284512Y-58486906D01*
X194269891Y-58555801D01*
X194255477Y-58617558D01*
X194240649Y-58674509D01*
X194224787Y-58728984D01*
X194207270Y-58783317D01*
X194199801Y-58805127D01*
X194190753Y-58831687D01*
X194184526Y-58851881D01*
X194180596Y-58868239D01*
X194178440Y-58883294D01*
X194177534Y-58899576D01*
X194177361Y-58913659D01*
X193698462Y-58913659D01*
X193730051Y-58829914D01*
X193768374Y-58734246D01*
X193809104Y-58637910D01*
X193851489Y-58542694D01*
X193894777Y-58450381D01*
X193938214Y-58362759D01*
X193976414Y-58290120D01*
X193995135Y-58256120D01*
X194010377Y-58229806D01*
X194022814Y-58210312D01*
X194033119Y-58196771D01*
X194041964Y-58188318D01*
X194050024Y-58184086D01*
X194057971Y-58183211D01*
X194059429Y-58183342D01*
X194069679Y-58186687D01*
X194073821Y-58195471D01*
X194074160Y-58197892D01*
X194075834Y-58206674D01*
X194079926Y-58208178D01*
X194088479Y-58204295D01*
X194105538Y-58196731D01*
X194129522Y-58187789D01*
X194158091Y-58178215D01*
X194188906Y-58168754D01*
X194219626Y-58160153D01*
X194247910Y-58153158D01*
X194251453Y-58152368D01*
X194284124Y-58145427D01*
X194313048Y-58139913D01*
X194340010Y-58135668D01*
X194366793Y-58132537D01*
X194395185Y-58130361D01*
X194426968Y-58128986D01*
X194463930Y-58128254D01*
X194507854Y-58128007D01*
X194528948Y-58128012D01*
G37*
%TD.AperFunction*%
%TD*%
D13*
%TO.P,Q7,3,C_3*%
%TO.N,Net-(Q7-C)*%
X220960000Y-116500000D03*
%TO.P,Q7,2,B_2*%
%TO.N,/CLK_OUT*%
X222230000Y-116500000D03*
D14*
%TO.P,Q7,1,E_1*%
%TO.N,/LIGHT_ENABLE*%
X223500000Y-116500000D03*
%TD*%
D15*
%TO.P,R9,2*%
%TO.N,Net-(Q6-C)*%
X210000000Y-117500000D03*
%TO.P,R9,1*%
%TO.N,Net-(D5-K)*%
X202380001Y-117500000D03*
%TD*%
%TO.P,R4,1*%
%TO.N,+6V*%
X193370000Y-91000000D03*
%TO.P,R4,2*%
%TO.N,Net-(U1-DISCH)*%
X185750000Y-91000000D03*
%TD*%
D16*
%TO.P,D6,1,K_1*%
%TO.N,Net-(D6-K)*%
X228697978Y-116073450D03*
D17*
%TO.P,D6,2,A_2*%
%TO.N,+6V*%
X231000000Y-115000000D03*
%TD*%
D18*
%TO.P,M1,1,+_1*%
%TO.N,+6V*%
X204000000Y-87960000D03*
D19*
%TO.P,M1,2,-_2*%
%TO.N,Net-(M1--)*%
X204000000Y-90500000D03*
%TD*%
D20*
%TO.P,C1,1*%
%TO.N,+6V*%
X211597349Y-112500000D03*
D15*
%TO.P,C1,2*%
%TO.N,GND*%
X216597349Y-112500000D03*
%TD*%
D21*
%TO.P,RV1,1,1_1*%
%TO.N,Net-(U1-DISCH)*%
X223000000Y-111580000D03*
%TO.P,RV1,2,2_2*%
%TO.N,Net-(U1-THRES)*%
X225540000Y-109040000D03*
%TO.P,RV1,3,3_3*%
X223000000Y-106500000D03*
%TD*%
D22*
%TO.P,SW1,1,1_1*%
%TO.N,Net-(BT2-+)*%
X201000000Y-98000000D03*
X207500000Y-98000000D03*
%TO.P,SW1,2,2_2*%
%TO.N,+6V*%
X201000000Y-102500000D03*
X207500000Y-102500000D03*
%TD*%
D23*
%TO.P,D1,1,K_1*%
%TO.N,Net-(D1-K)*%
X219460000Y-85000000D03*
D17*
%TO.P,D1,2,A_2*%
%TO.N,+6V*%
X222000000Y-85000000D03*
%TD*%
D23*
%TO.P,D5,1,K_1*%
%TO.N,Net-(D5-K)*%
X203500000Y-113500000D03*
D17*
%TO.P,D5,2,A_2*%
%TO.N,+6V*%
X206040002Y-113499999D03*
%TD*%
D24*
%TO.P,BT1,1,+_1*%
%TO.N,Net-(BT1-+)*%
X194000000Y-74000000D03*
X215970000Y-74000000D03*
D25*
%TO.P,BT1,2,-_2*%
%TO.N,GND*%
X204985000Y-74000000D03*
%TD*%
D26*
%TO.P,R1,1*%
%TO.N,+6V*%
X185600000Y-109000000D03*
%TO.P,R1,2*%
%TO.N,Net-(R1-Pad2)*%
X189000000Y-109000000D03*
%TD*%
D23*
%TO.P,D2,1,K_1*%
%TO.N,Net-(D2-K)*%
X204500000Y-54500000D03*
D17*
%TO.P,D2,2,A_2*%
%TO.N,+6V*%
X207040000Y-54500000D03*
%TD*%
D23*
%TO.P,D3,1,K_1*%
%TO.N,Net-(D3-K)*%
X188460000Y-84500000D03*
D17*
%TO.P,D3,2,A_2*%
%TO.N,+6V*%
X191000000Y-84500000D03*
%TD*%
D27*
%TO.P,D4,1,K_1*%
%TO.N,Net-(D4-K)*%
X179113181Y-114631269D03*
D17*
%TO.P,D4,2,A_2*%
%TO.N,+6V*%
X181500000Y-115500000D03*
%TD*%
D20*
%TO.P,C2,1*%
%TO.N,Net-(U1-THRES)*%
X194097349Y-112000000D03*
D15*
%TO.P,C2,2*%
%TO.N,GND*%
X199097349Y-112000000D03*
%TD*%
D14*
%TO.P,Q3,1,E_1*%
%TO.N,/LIGHT_ENABLE*%
X211770000Y-61500000D03*
D13*
%TO.P,Q3,2,B_2*%
%TO.N,/CLK_OUT*%
X210500000Y-61500000D03*
%TO.P,Q3,3,C_3*%
%TO.N,Net-(Q3-C)*%
X209230000Y-61500000D03*
%TD*%
D14*
%TO.P,Q4,1,E_1*%
%TO.N,/LIGHT_ENABLE*%
X198500000Y-88500000D03*
D13*
%TO.P,Q4,2,B_2*%
%TO.N,/CLK_OUT*%
X197230000Y-88500000D03*
%TO.P,Q4,3,C_3*%
%TO.N,Net-(Q4-C)*%
X195960000Y-88500000D03*
%TD*%
D14*
%TO.P,Q6,1,E_1*%
%TO.N,/LIGHT_ENABLE*%
X206500000Y-107500000D03*
D13*
%TO.P,Q6,2,B_2*%
%TO.N,/CLK_OUT*%
X205230000Y-107500000D03*
%TO.P,Q6,3,C_3*%
%TO.N,Net-(Q6-C)*%
X203960000Y-107500000D03*
%TD*%
D15*
%TO.P,R8,1*%
%TO.N,Net-(D4-K)*%
X171550980Y-124918630D03*
%TO.P,R8,2*%
%TO.N,Net-(Q5-C)*%
X176449021Y-119081371D03*
%TD*%
%TO.P,R10,1*%
%TO.N,Net-(D6-K)*%
X239299557Y-123905000D03*
%TO.P,R10,2*%
%TO.N,Net-(Q7-C)*%
X232700443Y-120095000D03*
%TD*%
%TO.P,R2,1*%
%TO.N,Net-(R1-Pad2)*%
X197500000Y-105310000D03*
%TO.P,R2,2*%
%TO.N,GND*%
X197500000Y-97690000D03*
%TD*%
%TO.P,R5,1*%
%TO.N,Net-(D1-K)*%
X220661600Y-79752117D03*
%TO.P,R5,2*%
%TO.N,Net-(Q2-C)*%
X219338402Y-72247880D03*
%TD*%
%TO.P,R7,1*%
%TO.N,Net-(D3-K)*%
X189338401Y-80252118D03*
%TO.P,R7,2*%
%TO.N,Net-(Q4-C)*%
X190661600Y-72747883D03*
%TD*%
D14*
%TO.P,Q8,1,E_1*%
%TO.N,GND*%
X210270000Y-93360000D03*
D13*
%TO.P,Q8,2,B_2*%
%TO.N,Net-(Q8-B)*%
X209000000Y-93360000D03*
%TO.P,Q8,3,C_3*%
%TO.N,Net-(M1--)*%
X207730000Y-93360000D03*
%TD*%
D14*
%TO.P,Q2,1,E_1*%
%TO.N,/LIGHT_ENABLE*%
X214953452Y-87657400D03*
D13*
%TO.P,Q2,2,B_2*%
%TO.N,/CLK_OUT*%
X213683452Y-87657400D03*
%TO.P,Q2,3,C_3*%
%TO.N,Net-(Q2-C)*%
X212413452Y-87657400D03*
%TD*%
D15*
%TO.P,R11,1*%
%TO.N,Net-(Q8-B)*%
X204500000Y-94500000D03*
%TO.P,R11,2*%
%TO.N,/CLK_OUT*%
X196880000Y-94500000D03*
%TD*%
D14*
%TO.P,Q1,1,C_1*%
%TO.N,/LIGHT_ENABLE*%
X213770000Y-102360000D03*
D13*
%TO.P,Q1,2,B_2*%
%TO.N,Net-(Q1-B)*%
X212500000Y-102360000D03*
%TO.P,Q1,3,E_3*%
%TO.N,GND*%
X211230000Y-102360000D03*
%TD*%
D14*
%TO.P,Q5,1,E_1*%
%TO.N,/LIGHT_ENABLE*%
X188540000Y-116000000D03*
D13*
%TO.P,Q5,2,B_2*%
%TO.N,/CLK_OUT*%
X187270000Y-116000000D03*
%TO.P,Q5,3,C_3*%
%TO.N,Net-(Q5-C)*%
X186000000Y-116000000D03*
%TD*%
D15*
%TO.P,R6,1*%
%TO.N,Net-(D2-K)*%
X217449021Y-61418629D03*
%TO.P,R6,2*%
%TO.N,Net-(Q3-C)*%
X213639021Y-54819515D03*
%TD*%
D28*
%TO.P,U1,1,GND_1*%
%TO.N,GND*%
X193990000Y-94960000D03*
D15*
%TO.P,U1,2,TRIG_2*%
%TO.N,Net-(U1-THRES)*%
X193990000Y-97500000D03*
%TO.P,U1,3,OUT_3*%
%TO.N,/CLK_OUT*%
X193990000Y-100040000D03*
%TO.P,U1,4,~{RST}_4*%
%TO.N,+6V*%
X193990000Y-102580000D03*
%TO.P,U1,5,CONT_5*%
%TO.N,unconnected-(U1-CONT-Pad5)*%
X186370000Y-102580000D03*
%TO.P,U1,6,THRES_6*%
%TO.N,Net-(U1-THRES)*%
X186370000Y-100040000D03*
%TO.P,U1,7,DISCH_7*%
%TO.N,Net-(U1-DISCH)*%
X186370000Y-97500000D03*
%TO.P,U1,8,VCC_8*%
%TO.N,+6V*%
X186370000Y-94960000D03*
%TD*%
%TO.P,R3,1*%
%TO.N,Net-(R1-Pad2)*%
X199310000Y-117500000D03*
%TO.P,R3,2*%
%TO.N,Net-(Q1-B)*%
X191690000Y-117500000D03*
%TD*%
D29*
%TO.N,+6V*%
X195000000Y-81500000D03*
%TO.N,GND*%
X202000000Y-84500000D03*
X199500000Y-85000000D03*
%TO.N,Net-(BT2-+)*%
X198500000Y-91000000D03*
X194000000Y-78500000D03*
%TO.N,Net-(BT1-+)*%
X217500000Y-75000000D03*
X195150002Y-74000000D03*
%TO.N,/LIGHT_ENABLE*%
X213500000Y-65500000D03*
%TO.N,Net-(Q1-B)*%
X219000000Y-115500000D03*
X218881472Y-113500000D03*
%TD*%
%TO.N,+6V*%
D30*
X201000000Y-102500000D02*
X207500000Y-102500000D01*
X195000000Y-80530000D02*
X195785000Y-79745000D01*
X207040000Y-54500000D02*
X205000000Y-52460000D01*
X202000000Y-59285000D02*
X195785000Y-65500000D01*
X204140000Y-52460000D02*
X202000000Y-54600000D01*
X205147400Y-89107400D02*
X217892600Y-89107400D01*
X217892600Y-89107400D02*
X222000000Y-85000000D01*
X205000000Y-52460000D02*
X204140000Y-52460000D01*
X195785000Y-79745000D02*
X204000000Y-87960000D01*
X204000000Y-87960000D02*
X205147400Y-89107400D01*
X194070000Y-102500000D02*
X201000000Y-102500000D01*
X202000000Y-54600000D02*
X202000000Y-59285000D01*
X195000000Y-81500000D02*
X195000000Y-80530000D01*
X193990000Y-102580000D02*
X194070000Y-102500000D01*
X195785000Y-65500000D02*
X195785000Y-79745000D01*
%TO.N,GND*%
X192547843Y-102126522D02*
X193534365Y-101140000D01*
X197955635Y-104210000D02*
X194064365Y-104210000D01*
X202000000Y-84500000D02*
X204985000Y-81515000D01*
X199725000Y-85225000D02*
X199500000Y-85000000D01*
X194445635Y-101140000D02*
X197500000Y-98085635D01*
X199097349Y-105351714D02*
X197955635Y-104210000D01*
X208785000Y-91650000D02*
X203523654Y-91650000D01*
X199097349Y-112000000D02*
X199097349Y-105351714D01*
X194064365Y-104210000D02*
X192547843Y-102693478D01*
X192547843Y-102693478D02*
X192547843Y-102126522D01*
X197500000Y-98085635D02*
X197500000Y-97690000D01*
X204985000Y-81515000D02*
X204985000Y-74000000D01*
X210270000Y-93360000D02*
X210270000Y-93135000D01*
X199725000Y-87851346D02*
X199725000Y-85225000D01*
X194770000Y-94960000D02*
X197500000Y-97690000D01*
X193534365Y-101140000D02*
X194445635Y-101140000D01*
X210270000Y-93135000D02*
X208785000Y-91650000D01*
X193990000Y-94960000D02*
X194770000Y-94960000D01*
X203523654Y-91650000D02*
X199725000Y-87851346D01*
%TO.N,Net-(U1-DISCH)*%
X223000000Y-108000000D02*
X210600000Y-95600000D01*
X194774744Y-93860000D02*
X190010000Y-93860000D01*
X195975686Y-95600000D02*
X195090000Y-94714314D01*
X190010000Y-93860000D02*
X186370000Y-97500000D01*
X223000000Y-111580000D02*
X223000000Y-108000000D01*
X195090000Y-94714314D02*
X195090000Y-94175256D01*
X210600000Y-95600000D02*
X195975686Y-95600000D01*
X195090000Y-94175256D02*
X194774744Y-93860000D01*
%TO.N,Net-(U1-THRES)*%
X223275000Y-118600000D02*
X198854365Y-118600000D01*
X194097349Y-113842984D02*
X194097349Y-112000000D01*
X198854365Y-118600000D02*
X194097349Y-113842984D01*
X191450000Y-100040000D02*
X193990000Y-97500000D01*
X224325000Y-107825000D02*
X224325000Y-117550000D01*
X186370000Y-100040000D02*
X191450000Y-100040000D01*
X224325000Y-117550000D02*
X223275000Y-118600000D01*
X223000000Y-106500000D02*
X224325000Y-107825000D01*
%TO.N,Net-(BT2-+)*%
X199325000Y-90175000D02*
X199325000Y-87080000D01*
X194000000Y-81755000D02*
X194000000Y-78500000D01*
X199325000Y-87080000D02*
X194000000Y-81755000D01*
X198500000Y-91000000D02*
X199325000Y-90175000D01*
%TO.N,Net-(D1-K)*%
X220661600Y-79752117D02*
X220661600Y-83798400D01*
X220661600Y-83798400D02*
X219460000Y-85000000D01*
%TO.N,Net-(D5-K)*%
X202380001Y-115119999D02*
X202380001Y-117500000D01*
X203500000Y-113500000D02*
X203500000Y-114000000D01*
X203500000Y-114000000D02*
X202380001Y-115119999D01*
%TO.N,Net-(BT1-+)*%
X194000000Y-74000000D02*
X195150002Y-74000000D01*
X217500000Y-75000000D02*
X216970000Y-75000000D01*
X216970000Y-75000000D02*
X215970000Y-74000000D01*
%TO.N,Net-(R1-Pad2)*%
X189000000Y-109000000D02*
X193810000Y-109000000D01*
X197500000Y-115690000D02*
X197500000Y-105310000D01*
X193810000Y-109000000D02*
X197500000Y-105310000D01*
X199310000Y-117500000D02*
X197500000Y-115690000D01*
%TO.N,Net-(D2-K)*%
X216480392Y-60450000D02*
X217449021Y-61418629D01*
X204500000Y-54500000D02*
X210450000Y-60450000D01*
X217449021Y-61418629D02*
X217500000Y-61469608D01*
X210450000Y-60450000D02*
X216480392Y-60450000D01*
X217500000Y-61469608D02*
X217500000Y-61500000D01*
%TO.N,/LIGHT_ENABLE*%
X206500000Y-107500000D02*
X210540000Y-107500000D01*
X210540000Y-107500000D02*
X213770000Y-104270000D01*
X213770000Y-104270000D02*
X213770000Y-102360000D01*
X223500000Y-114000000D02*
X213770000Y-104270000D01*
X214953452Y-66953452D02*
X214953452Y-87657400D01*
X213500000Y-65500000D02*
X214953452Y-66953452D01*
X223500000Y-116500000D02*
X223500000Y-114000000D01*
%TO.N,/CLK_OUT*%
X205230000Y-108105000D02*
X205230000Y-107500000D01*
X208405000Y-64409235D02*
X214185000Y-70189235D01*
X214185000Y-70189235D02*
X214185000Y-86607400D01*
X222230000Y-116500000D02*
X222230000Y-116000000D01*
X214780000Y-108550000D02*
X205675000Y-108550000D01*
X222230000Y-116000000D02*
X214780000Y-108550000D01*
X209571726Y-60450000D02*
X208888274Y-60450000D01*
X187270000Y-116000000D02*
X187270000Y-106760000D01*
X210500000Y-61378274D02*
X209571726Y-60450000D01*
X205675000Y-108550000D02*
X205230000Y-108105000D01*
X208405000Y-60933274D02*
X208405000Y-64409235D01*
X214185000Y-86607400D02*
X213683452Y-87108948D01*
X213683452Y-87108948D02*
X213683452Y-87657400D01*
X208888274Y-60450000D02*
X208405000Y-60933274D01*
X187270000Y-106760000D02*
X193990000Y-100040000D01*
X210500000Y-61500000D02*
X210500000Y-61378274D01*
%TO.N,Net-(Q3-C)*%
X209230000Y-62000000D02*
X209230000Y-61500000D01*
X217873285Y-62550000D02*
X209780000Y-62550000D01*
X218549021Y-60962994D02*
X218549021Y-61874264D01*
X213639021Y-56052994D02*
X218549021Y-60962994D01*
X218549021Y-61874264D02*
X217873285Y-62550000D01*
X209780000Y-62550000D02*
X209230000Y-62000000D01*
X213639021Y-54819515D02*
X213639021Y-56052994D01*
%TO.N,Net-(Q4-C)*%
X193065000Y-85605000D02*
X193065000Y-75151283D01*
X195960000Y-88500000D02*
X193065000Y-85605000D01*
X193065000Y-75151283D02*
X190661600Y-72747883D01*
%TO.N,Net-(Q6-C)*%
X203960000Y-107621726D02*
X203960000Y-107500000D01*
X210000000Y-113661726D02*
X203960000Y-107621726D01*
X210000000Y-117500000D02*
X210000000Y-113661726D01*
%TO.N,Net-(Q2-C)*%
X215778452Y-77966548D02*
X215778452Y-88707400D01*
X213341726Y-88707400D02*
X212413452Y-87779126D01*
X219338402Y-72247880D02*
X219338402Y-74406598D01*
X212413452Y-87779126D02*
X212413452Y-87657400D01*
X215778452Y-88707400D02*
X213341726Y-88707400D01*
X219338402Y-74406598D02*
X215778452Y-77966548D01*
%TO.N,Net-(Q1-B)*%
X219000000Y-113618528D02*
X218881472Y-113500000D01*
X219000000Y-115500000D02*
X219000000Y-113618528D01*
%TO.N,Net-(U1-DISCH)*%
X186370000Y-97500000D02*
X184700001Y-95830001D01*
X184700001Y-95830001D02*
X184700001Y-91799999D01*
X184700001Y-91799999D02*
X185500000Y-91000000D01*
%TD*%
M02*
