%TF.GenerationSoftware,KiCad,Pcbnew,10.0.5*%
%TF.CreationDate,2026-09-04T14:01:11+05:30*%
%TF.ProjectId,Rocket_solder,526f636b-6574-45f7-936f-6c6465722e6b,rev?*%
%TF.SameCoordinates,Original*%
%TF.FileFunction,Soldermask,Bot*%
%TF.FilePolarity,Negative*%
%FSLAX46Y46*%
G04 Gerber Fmt 4.6, Leading zero omitted, Abs format (unit mm)*
G04 Created by KiCad (PCBNEW 10.0.5) date 2026-09-04 14:01:11*
%MOMM*%
%LPD*%
G01*
G04 APERTURE LIST*
G04 Aperture macros list*
%AMRoundRect*
0 Rectangle with rounded corners*
0 $1 Rounding radius*
0 $2 $3 $4 $5 $6 $7 $8 $9 X,Y pos of 4 corners*
0 Add a 4 corners polygon primitive as box body*
4,1,4,$2,$3,$4,$5,$6,$7,$8,$9,$2,$3,0*
0 Add four circle primitives for the rounded corners*
1,1,$1+$1,$2,$3*
1,1,$1+$1,$4,$5*
1,1,$1+$1,$6,$7*
1,1,$1+$1,$8,$9*
0 Add four rect primitives between the rounded corners*
20,1,$1+$1,$2,$3,$4,$5,0*
20,1,$1+$1,$4,$5,$6,$7,0*
20,1,$1+$1,$6,$7,$8,$9,0*
20,1,$1+$1,$8,$9,$2,$3,0*%
%AMRotRect*
0 Rectangle, with rotation*
0 The origin of the aperture is its center*
0 $1 length*
0 $2 width*
0 $3 Rotation angle, in degrees counterclockwise*
0 Add horizontal line*
21,1,$1,$2,0,0,$3*%
G04 Aperture macros list end*
%ADD10C,0.000000*%
%ADD11O,1.050000X1.500000*%
%ADD12R,1.050000X1.500000*%
%ADD13C,1.600000*%
%ADD14RotRect,1.800000X1.800000X25.000000*%
%ADD15C,1.800000*%
%ADD16R,1.700000X1.700000*%
%ADD17C,1.700000*%
%ADD18RoundRect,0.250000X-0.550000X-0.550000X0.550000X-0.550000X0.550000X0.550000X-0.550000X0.550000X0*%
%ADD19C,1.440000*%
%ADD20C,2.000000*%
%ADD21R,1.800000X1.800000*%
%ADD22C,1.500000*%
%ADD23RotRect,1.800000X1.800000X340.000000*%
%ADD24R,1.270000X5.080000*%
%ADD25C,17.800000*%
%ADD26RoundRect,0.250000X0.550000X0.550000X-0.550000X0.550000X-0.550000X-0.550000X0.550000X-0.550000X0*%
G04 APERTURE END LIST*
D10*
%TO.C,G\u002A\u002A\u002A*%
G36*
X222987808Y-95578922D02*
G01*
X222987781Y-96045696D01*
X222987641Y-96454615D01*
X222987293Y-96809744D01*
X222986643Y-97115149D01*
X222985597Y-97374896D01*
X222984060Y-97593053D01*
X222981938Y-97773684D01*
X222979137Y-97920857D01*
X222975562Y-98038637D01*
X222971119Y-98131090D01*
X222965714Y-98202283D01*
X222959252Y-98256282D01*
X222951639Y-98297153D01*
X222942781Y-98328962D01*
X222932583Y-98355776D01*
X222920951Y-98381661D01*
X222825338Y-98546993D01*
X222664008Y-98729969D01*
X222469749Y-98871452D01*
X222254256Y-98961273D01*
X222235423Y-98965272D01*
X222179456Y-98971991D01*
X222093615Y-98977774D01*
X221974632Y-98982659D01*
X221819239Y-98986683D01*
X221624168Y-98989885D01*
X221386148Y-98992302D01*
X221101913Y-98993972D01*
X220768193Y-98994934D01*
X220381720Y-98995225D01*
X219939225Y-98994883D01*
X219437439Y-98993945D01*
X218976288Y-98992870D01*
X218563125Y-98991805D01*
X218204369Y-98990667D01*
X217895899Y-98989348D01*
X217633594Y-98987741D01*
X217413335Y-98985737D01*
X217230999Y-98983230D01*
X217082467Y-98980110D01*
X216963619Y-98976272D01*
X216870333Y-98971606D01*
X216798488Y-98966006D01*
X216743965Y-98959363D01*
X216702643Y-98951570D01*
X216670400Y-98942519D01*
X216643117Y-98932103D01*
X216616673Y-98920213D01*
X216570972Y-98897359D01*
X216384193Y-98768514D01*
X216220291Y-98600852D01*
X216098855Y-98413539D01*
X216012193Y-98237068D01*
X216012193Y-95629894D01*
X216897278Y-95629894D01*
X216918956Y-95902900D01*
X216963221Y-96141256D01*
X217009319Y-96297471D01*
X217160012Y-96659996D01*
X217361651Y-96995658D01*
X217608679Y-97298206D01*
X217895540Y-97561389D01*
X218216675Y-97778958D01*
X218566529Y-97944660D01*
X218583252Y-97950956D01*
X218699242Y-97987688D01*
X218774806Y-97989714D01*
X218818360Y-97950160D01*
X218838321Y-97862155D01*
X218843104Y-97718827D01*
X218843104Y-97470689D01*
X218569397Y-97470572D01*
X218397132Y-97464199D01*
X218268205Y-97439422D01*
X218169400Y-97387902D01*
X218084809Y-97301297D01*
X217998523Y-97171265D01*
X217928417Y-97067246D01*
X217825094Y-96936057D01*
X217720753Y-96821667D01*
X217703907Y-96804826D01*
X217629748Y-96726006D01*
X217581484Y-96666706D01*
X217568871Y-96638682D01*
X217583979Y-96630595D01*
X217650580Y-96621224D01*
X217742075Y-96622889D01*
X217833356Y-96634387D01*
X217899311Y-96654515D01*
X217949756Y-96697450D01*
X218018688Y-96776448D01*
X218090910Y-96874211D01*
X218200041Y-97008729D01*
X218332687Y-97105922D01*
X218482808Y-97147962D01*
X218658835Y-97138775D01*
X218721590Y-97126773D01*
X218790355Y-97103418D01*
X218829340Y-97063350D01*
X218858913Y-96991586D01*
X218864972Y-96974748D01*
X218907316Y-96882348D01*
X218951861Y-96814595D01*
X218954921Y-96811196D01*
X218977655Y-96779543D01*
X218969653Y-96756758D01*
X218921027Y-96734445D01*
X218821891Y-96704207D01*
X218583870Y-96620577D01*
X218326606Y-96485702D01*
X218120991Y-96319966D01*
X217968667Y-96124758D01*
X217871280Y-95901465D01*
X217850728Y-95808394D01*
X217835393Y-95611131D01*
X217845754Y-95392982D01*
X217879284Y-95174315D01*
X217933458Y-94975499D01*
X218005750Y-94816902D01*
X218036838Y-94755842D01*
X218056058Y-94682995D01*
X218064055Y-94583815D01*
X218063592Y-94440318D01*
X218063042Y-94397706D01*
X218065998Y-94265537D01*
X218075016Y-94154992D01*
X218088648Y-94086501D01*
X218115990Y-94034190D01*
X218158544Y-94015356D01*
X218238969Y-94020908D01*
X218313704Y-94035196D01*
X218472037Y-94083564D01*
X218630083Y-94150158D01*
X218756846Y-94222888D01*
X218759270Y-94224611D01*
X218813163Y-94258380D01*
X218863865Y-94272007D01*
X218932685Y-94267202D01*
X219040929Y-94245674D01*
X219094464Y-94235304D01*
X219304450Y-94211201D01*
X219536009Y-94204560D01*
X219761943Y-94215434D01*
X219955049Y-94243876D01*
X219986431Y-94250809D01*
X220081194Y-94268424D01*
X220147724Y-94267299D01*
X220212185Y-94243630D01*
X220300740Y-94193613D01*
X220475108Y-94104152D01*
X220681477Y-94037732D01*
X220865144Y-94026340D01*
X220868827Y-94026903D01*
X220901449Y-94057702D01*
X220923997Y-94137121D01*
X220937270Y-94269650D01*
X220942062Y-94459777D01*
X220944821Y-94589428D01*
X220955561Y-94696794D01*
X220977946Y-94779221D01*
X221015687Y-94856711D01*
X221064008Y-94957275D01*
X221126054Y-95160912D01*
X221160490Y-95387030D01*
X221166150Y-95616611D01*
X221141865Y-95830638D01*
X221086470Y-96010090D01*
X221049108Y-96085341D01*
X220917980Y-96278169D01*
X220747800Y-96436931D01*
X220531518Y-96567315D01*
X220262080Y-96675010D01*
X220007534Y-96758827D01*
X220082215Y-96868877D01*
X220092414Y-96884154D01*
X220118302Y-96929051D01*
X220136155Y-96978437D01*
X220147456Y-97043928D01*
X220153691Y-97137135D01*
X220156343Y-97269674D01*
X220156897Y-97453158D01*
X220156898Y-97458897D01*
X220159201Y-97670718D01*
X220166064Y-97823479D01*
X220177728Y-97920457D01*
X220194434Y-97964925D01*
X220195785Y-97966270D01*
X220225888Y-97990094D01*
X220261952Y-97997747D01*
X220316701Y-97986748D01*
X220402860Y-97954617D01*
X220533154Y-97898871D01*
X220774640Y-97780158D01*
X221109040Y-97561729D01*
X221399008Y-97299349D01*
X221645242Y-96992349D01*
X221848441Y-96640060D01*
X221876928Y-96580062D01*
X221983422Y-96319450D01*
X222053271Y-96067555D01*
X222091498Y-95801899D01*
X222103124Y-95499999D01*
X222101436Y-95375014D01*
X222080603Y-95092675D01*
X222031939Y-94838580D01*
X221950325Y-94590692D01*
X221830642Y-94326970D01*
X221715446Y-94121260D01*
X221479893Y-93798918D01*
X221200262Y-93518493D01*
X220880819Y-93283427D01*
X220525832Y-93097160D01*
X220139568Y-92963135D01*
X219924292Y-92921028D01*
X219654272Y-92896950D01*
X219371016Y-92895858D01*
X219098011Y-92917760D01*
X218858744Y-92962664D01*
X218807759Y-92976623D01*
X218434989Y-93114153D01*
X218090010Y-93304076D01*
X217777990Y-93541225D01*
X217504095Y-93820433D01*
X217273491Y-94136534D01*
X217091344Y-94484359D01*
X216962823Y-94858743D01*
X216921717Y-95074713D01*
X216898196Y-95345934D01*
X216897278Y-95629894D01*
X216012193Y-95629894D01*
X216012193Y-95499999D01*
X216012193Y-92762930D01*
X216085939Y-92599840D01*
X216160490Y-92472440D01*
X216291981Y-92317153D01*
X216449899Y-92180288D01*
X216615373Y-92080361D01*
X216762932Y-92012192D01*
X219500001Y-92012192D01*
X222237070Y-92012192D01*
X222384628Y-92080361D01*
X222519570Y-92158515D01*
X222680303Y-92289957D01*
X222818091Y-92443237D01*
X222914062Y-92599840D01*
X222987808Y-92762930D01*
X222987808Y-95499999D01*
X222987808Y-95578922D01*
G37*
%TD*%
D11*
%TO.C,Q7*%
X220960000Y-116500000D03*
X222230000Y-116500000D03*
D12*
X223500000Y-116500000D03*
%TD*%
D13*
%TO.C,R9*%
X210000000Y-117500000D03*
X202380001Y-117500000D03*
%TD*%
%TO.C,R4*%
X193370000Y-91000000D03*
X185750000Y-91000000D03*
%TD*%
D14*
%TO.C,D6*%
X228697978Y-116073450D03*
D15*
X231000000Y-115000000D03*
%TD*%
D16*
%TO.C,M1*%
X204000000Y-87960000D03*
D17*
X204000000Y-90500000D03*
%TD*%
D18*
%TO.C,C1*%
X211597349Y-112500000D03*
D13*
X216597349Y-112500000D03*
%TD*%
D19*
%TO.C,RV1*%
X223000000Y-111580000D03*
X225540000Y-109040000D03*
X223000000Y-106500000D03*
%TD*%
D20*
%TO.C,SW1*%
X201000000Y-98000000D03*
X207500000Y-98000000D03*
X201000000Y-102500000D03*
X207500000Y-102500000D03*
%TD*%
D21*
%TO.C,D1*%
X219460000Y-85000000D03*
D15*
X222000000Y-85000000D03*
%TD*%
D21*
%TO.C,D5*%
X203500000Y-113500000D03*
D15*
X206040002Y-113499999D03*
%TD*%
D22*
%TO.C,R1*%
X185600000Y-109000000D03*
X189000000Y-109000000D03*
%TD*%
D21*
%TO.C,D2*%
X204500000Y-54500000D03*
D15*
X207040000Y-54500000D03*
%TD*%
D21*
%TO.C,D3*%
X188460000Y-84500000D03*
D15*
X191000000Y-84500000D03*
%TD*%
D23*
%TO.C,D4*%
X179113181Y-114631269D03*
D15*
X181500000Y-115500000D03*
%TD*%
D18*
%TO.C,C2*%
X194097349Y-112000000D03*
D13*
X199097349Y-112000000D03*
%TD*%
D12*
%TO.C,Q3*%
X211770000Y-61500000D03*
D11*
X210500000Y-61500000D03*
X209230000Y-61500000D03*
%TD*%
D12*
%TO.C,Q4*%
X198500000Y-88500000D03*
D11*
X197230000Y-88500000D03*
X195960000Y-88500000D03*
%TD*%
D12*
%TO.C,Q6*%
X206500000Y-107500000D03*
D11*
X205230000Y-107500000D03*
X203960000Y-107500000D03*
%TD*%
D13*
%TO.C,R8*%
X171550980Y-124918630D03*
X176449021Y-119081371D03*
%TD*%
%TO.C,R10*%
X239299557Y-123905000D03*
X232700443Y-120095000D03*
%TD*%
%TO.C,R2*%
X197500000Y-105310000D03*
X197500000Y-97690000D03*
%TD*%
%TO.C,R5*%
X220661600Y-79752117D03*
X219338402Y-72247880D03*
%TD*%
%TO.C,R7*%
X189338401Y-80252118D03*
X190661600Y-72747883D03*
%TD*%
D12*
%TO.C,Q8*%
X210270000Y-93360000D03*
D11*
X209000000Y-93360000D03*
X207730000Y-93360000D03*
%TD*%
D12*
%TO.C,Q2*%
X214953452Y-87657400D03*
D11*
X213683452Y-87657400D03*
X212413452Y-87657400D03*
%TD*%
D13*
%TO.C,R11*%
X204500000Y-94500000D03*
X196880000Y-94500000D03*
%TD*%
D24*
%TO.C,BT2*%
X215985000Y-74000000D03*
X194015000Y-74000000D03*
D25*
X205000000Y-74000000D03*
%TD*%
D12*
%TO.C,Q1*%
X213770000Y-102360000D03*
D11*
X212500000Y-102360000D03*
X211230000Y-102360000D03*
%TD*%
D12*
%TO.C,Q5*%
X188540000Y-116000000D03*
D11*
X187270000Y-116000000D03*
X186000000Y-116000000D03*
%TD*%
D13*
%TO.C,R6*%
X217449021Y-61418629D03*
X213639021Y-54819515D03*
%TD*%
D26*
%TO.C,U1*%
X193990000Y-94960000D03*
D13*
X193990000Y-97500000D03*
X193990000Y-100040000D03*
X193990000Y-102580000D03*
X186370000Y-102580000D03*
X186370000Y-100040000D03*
X186370000Y-97500000D03*
X186370000Y-94960000D03*
%TD*%
%TO.C,R3*%
X199310000Y-117500000D03*
X191690000Y-117500000D03*
%TD*%
M02*
