%TF.GenerationSoftware,KiCad,Pcbnew,10.0.5*%
%TF.CreationDate,2026-09-04T14:01:11+05:30*%
%TF.ProjectId,Rocket_solder,526f636b-6574-45f7-936f-6c6465722e6b,rev?*%
%TF.SameCoordinates,Original*%
%TF.FileFunction,Copper,L2,Bot*%
%TF.FilePolarity,Positive*%
%FSLAX46Y46*%
G04 Gerber Fmt 4.6, Leading zero omitted, Abs format (unit mm)*
G04 Created by KiCad (PCBNEW 10.0.5) date 2026-09-04 14:01:11*
%MOMM*%
%LPD*%
G01*
G04 APERTURE LIST*
G04 Aperture macros list*
%AMRoundRect*
0 Rectangle with rounded corners*
0 $1 Rounding radius*
0 $2 $3 $4 $5 $6 $7 $8 $9 X,Y pos of 4 corners*
0 Add a 4 corners polygon primitive as box body*
4,1,4,$2,$3,$4,$5,$6,$7,$8,$9,$2,$3,0*
0 Add four circle primitives for the rounded corners*
1,1,$1+$1,$2,$3*
1,1,$1+$1,$4,$5*
1,1,$1+$1,$6,$7*
1,1,$1+$1,$8,$9*
0 Add four rect primitives between the rounded corners*
20,1,$1+$1,$2,$3,$4,$5,0*
20,1,$1+$1,$4,$5,$6,$7,0*
20,1,$1+$1,$6,$7,$8,$9,0*
20,1,$1+$1,$8,$9,$2,$3,0*%
%AMRotRect*
0 Rectangle, with rotation*
0 The origin of the aperture is its center*
0 $1 length*
0 $2 width*
0 $3 Rotation angle, in degrees counterclockwise*
0 Add horizontal line*
21,1,$1,$2,0,0,$3*%
G04 Aperture macros list end*
%TA.AperFunction,ComponentPad*%
%ADD10O,1.050000X1.500000*%
%TD*%
%TA.AperFunction,ComponentPad*%
%ADD11R,1.050000X1.500000*%
%TD*%
%TA.AperFunction,ComponentPad*%
%ADD12C,1.600000*%
%TD*%
%TA.AperFunction,ComponentPad*%
%ADD13RotRect,1.800000X1.800000X25.000000*%
%TD*%
%TA.AperFunction,ComponentPad*%
%ADD14C,1.800000*%
%TD*%
%TA.AperFunction,ComponentPad*%
%ADD15R,1.700000X1.700000*%
%TD*%
%TA.AperFunction,ComponentPad*%
%ADD16C,1.700000*%
%TD*%
%TA.AperFunction,ComponentPad*%
%ADD17RoundRect,0.250000X-0.550000X-0.550000X0.550000X-0.550000X0.550000X0.550000X-0.550000X0.550000X0*%
%TD*%
%TA.AperFunction,ComponentPad*%
%ADD18C,1.440000*%
%TD*%
%TA.AperFunction,ComponentPad*%
%ADD19C,2.000000*%
%TD*%
%TA.AperFunction,ComponentPad*%
%ADD20R,1.800000X1.800000*%
%TD*%
%TA.AperFunction,ComponentPad*%
%ADD21C,1.500000*%
%TD*%
%TA.AperFunction,ComponentPad*%
%ADD22RotRect,1.800000X1.800000X340.000000*%
%TD*%
%TA.AperFunction,SMDPad,CuDef*%
%ADD23R,1.270000X5.080000*%
%TD*%
%TA.AperFunction,SMDPad,CuDef*%
%ADD24C,17.800000*%
%TD*%
%TA.AperFunction,ComponentPad*%
%ADD25RoundRect,0.250000X0.550000X0.550000X-0.550000X0.550000X-0.550000X-0.550000X0.550000X-0.550000X0*%
%TD*%
%TA.AperFunction,ViaPad*%
%ADD26C,0.600000*%
%TD*%
%TA.AperFunction,Conductor*%
%ADD27C,0.200000*%
%TD*%
G04 APERTURE END LIST*
D10*
%TO.P,Q7,3,C_3*%
%TO.N,Net-(Q7-C)*%
X220960000Y-116500000D03*
%TO.P,Q7,2,B_2*%
%TO.N,/CLK_OUT*%
X222230000Y-116500000D03*
D11*
%TO.P,Q7,1,E_1*%
%TO.N,/LIGHT_ENABLE*%
X223500000Y-116500000D03*
%TD*%
D12*
%TO.P,R9,2*%
%TO.N,Net-(Q6-C)*%
X210000000Y-117500000D03*
%TO.P,R9,1*%
%TO.N,Net-(D5-K)*%
X202380001Y-117500000D03*
%TD*%
%TO.P,R4,1*%
%TO.N,+6V*%
X193370000Y-91000000D03*
%TO.P,R4,2*%
%TO.N,Net-(U1-DISCH)*%
X185750000Y-91000000D03*
%TD*%
D13*
%TO.P,D6,1,K_1*%
%TO.N,Net-(D6-K)*%
X228697978Y-116073450D03*
D14*
%TO.P,D6,2,A_2*%
%TO.N,+6V*%
X231000000Y-115000000D03*
%TD*%
D15*
%TO.P,M1,1,+_1*%
%TO.N,+6V*%
X204000000Y-87960000D03*
D16*
%TO.P,M1,2,-_2*%
%TO.N,Net-(M1--)*%
X204000000Y-90500000D03*
%TD*%
D17*
%TO.P,C1,1*%
%TO.N,+6V*%
X211597349Y-112500000D03*
D12*
%TO.P,C1,2*%
%TO.N,GND*%
X216597349Y-112500000D03*
%TD*%
D18*
%TO.P,RV1,1,1_1*%
%TO.N,Net-(U1-DISCH)*%
X223000000Y-111580000D03*
%TO.P,RV1,2,2_2*%
%TO.N,Net-(U1-THRES)*%
X225540000Y-109040000D03*
%TO.P,RV1,3,3_3*%
X223000000Y-106500000D03*
%TD*%
D19*
%TO.P,SW1,1,1_1*%
%TO.N,Net-(BT2-+)*%
X201000000Y-98000000D03*
X207500000Y-98000000D03*
%TO.P,SW1,2,2_2*%
%TO.N,+6V*%
X201000000Y-102500000D03*
X207500000Y-102500000D03*
%TD*%
D20*
%TO.P,D1,1,K_1*%
%TO.N,Net-(D1-K)*%
X219460000Y-85000000D03*
D14*
%TO.P,D1,2,A_2*%
%TO.N,+6V*%
X222000000Y-85000000D03*
%TD*%
D20*
%TO.P,D5,1,K_1*%
%TO.N,Net-(D5-K)*%
X203500000Y-113500000D03*
D14*
%TO.P,D5,2,A_2*%
%TO.N,+6V*%
X206040002Y-113499999D03*
%TD*%
D21*
%TO.P,R1,1*%
%TO.N,+6V*%
X185600000Y-109000000D03*
%TO.P,R1,2*%
%TO.N,Net-(R1-Pad2)*%
X189000000Y-109000000D03*
%TD*%
D20*
%TO.P,D2,1,K_1*%
%TO.N,Net-(D2-K)*%
X204500000Y-54500000D03*
D14*
%TO.P,D2,2,A_2*%
%TO.N,+6V*%
X207040000Y-54500000D03*
%TD*%
D20*
%TO.P,D3,1,K_1*%
%TO.N,Net-(D3-K)*%
X188460000Y-84500000D03*
D14*
%TO.P,D3,2,A_2*%
%TO.N,+6V*%
X191000000Y-84500000D03*
%TD*%
D22*
%TO.P,D4,1,K_1*%
%TO.N,Net-(D4-K)*%
X179113181Y-114631269D03*
D14*
%TO.P,D4,2,A_2*%
%TO.N,+6V*%
X181500000Y-115500000D03*
%TD*%
D17*
%TO.P,C2,1*%
%TO.N,Net-(U1-THRES)*%
X194097349Y-112000000D03*
D12*
%TO.P,C2,2*%
%TO.N,GND*%
X199097349Y-112000000D03*
%TD*%
D11*
%TO.P,Q3,1,E_1*%
%TO.N,/LIGHT_ENABLE*%
X211770000Y-61500000D03*
D10*
%TO.P,Q3,2,B_2*%
%TO.N,/CLK_OUT*%
X210500000Y-61500000D03*
%TO.P,Q3,3,C_3*%
%TO.N,Net-(Q3-C)*%
X209230000Y-61500000D03*
%TD*%
D11*
%TO.P,Q4,1,E_1*%
%TO.N,/LIGHT_ENABLE*%
X198500000Y-88500000D03*
D10*
%TO.P,Q4,2,B_2*%
%TO.N,/CLK_OUT*%
X197230000Y-88500000D03*
%TO.P,Q4,3,C_3*%
%TO.N,Net-(Q4-C)*%
X195960000Y-88500000D03*
%TD*%
D11*
%TO.P,Q6,1,E_1*%
%TO.N,/LIGHT_ENABLE*%
X206500000Y-107500000D03*
D10*
%TO.P,Q6,2,B_2*%
%TO.N,/CLK_OUT*%
X205230000Y-107500000D03*
%TO.P,Q6,3,C_3*%
%TO.N,Net-(Q6-C)*%
X203960000Y-107500000D03*
%TD*%
D12*
%TO.P,R8,1*%
%TO.N,Net-(D4-K)*%
X171550980Y-124918630D03*
%TO.P,R8,2*%
%TO.N,Net-(Q5-C)*%
X176449021Y-119081371D03*
%TD*%
%TO.P,R10,1*%
%TO.N,Net-(D6-K)*%
X239299557Y-123905000D03*
%TO.P,R10,2*%
%TO.N,Net-(Q7-C)*%
X232700443Y-120095000D03*
%TD*%
%TO.P,R2,1*%
%TO.N,Net-(R1-Pad2)*%
X197500000Y-105310000D03*
%TO.P,R2,2*%
%TO.N,GND*%
X197500000Y-97690000D03*
%TD*%
%TO.P,R5,1*%
%TO.N,Net-(D1-K)*%
X220661600Y-79752117D03*
%TO.P,R5,2*%
%TO.N,Net-(Q2-C)*%
X219338402Y-72247880D03*
%TD*%
%TO.P,R7,1*%
%TO.N,Net-(D3-K)*%
X189338401Y-80252118D03*
%TO.P,R7,2*%
%TO.N,Net-(Q4-C)*%
X190661600Y-72747883D03*
%TD*%
D11*
%TO.P,Q8,1,E_1*%
%TO.N,GND*%
X210270000Y-93360000D03*
D10*
%TO.P,Q8,2,B_2*%
%TO.N,Net-(Q8-B)*%
X209000000Y-93360000D03*
%TO.P,Q8,3,C_3*%
%TO.N,Net-(M1--)*%
X207730000Y-93360000D03*
%TD*%
D11*
%TO.P,Q2,1,E_1*%
%TO.N,/LIGHT_ENABLE*%
X214953452Y-87657400D03*
D10*
%TO.P,Q2,2,B_2*%
%TO.N,/CLK_OUT*%
X213683452Y-87657400D03*
%TO.P,Q2,3,C_3*%
%TO.N,Net-(Q2-C)*%
X212413452Y-87657400D03*
%TD*%
D12*
%TO.P,R11,1*%
%TO.N,Net-(Q8-B)*%
X204500000Y-94500000D03*
%TO.P,R11,2*%
%TO.N,/CLK_OUT*%
X196880000Y-94500000D03*
%TD*%
D23*
%TO.P,BT2,1,+_1*%
%TO.N,Net-(BT2-+)*%
X215985000Y-74000000D03*
X194015000Y-74000000D03*
D24*
%TO.P,BT2,2,-_2*%
%TO.N,Net-(BT1-+)*%
X205000000Y-74000000D03*
%TD*%
D11*
%TO.P,Q1,1,C_1*%
%TO.N,/LIGHT_ENABLE*%
X213770000Y-102360000D03*
D10*
%TO.P,Q1,2,B_2*%
%TO.N,Net-(Q1-B)*%
X212500000Y-102360000D03*
%TO.P,Q1,3,E_3*%
%TO.N,GND*%
X211230000Y-102360000D03*
%TD*%
D11*
%TO.P,Q5,1,E_1*%
%TO.N,/LIGHT_ENABLE*%
X188540000Y-116000000D03*
D10*
%TO.P,Q5,2,B_2*%
%TO.N,/CLK_OUT*%
X187270000Y-116000000D03*
%TO.P,Q5,3,C_3*%
%TO.N,Net-(Q5-C)*%
X186000000Y-116000000D03*
%TD*%
D12*
%TO.P,R6,1*%
%TO.N,Net-(D2-K)*%
X217449021Y-61418629D03*
%TO.P,R6,2*%
%TO.N,Net-(Q3-C)*%
X213639021Y-54819515D03*
%TD*%
D25*
%TO.P,U1,1,GND_1*%
%TO.N,GND*%
X193990000Y-94960000D03*
D12*
%TO.P,U1,2,TRIG_2*%
%TO.N,Net-(U1-THRES)*%
X193990000Y-97500000D03*
%TO.P,U1,3,OUT_3*%
%TO.N,/CLK_OUT*%
X193990000Y-100040000D03*
%TO.P,U1,4,~{RST}_4*%
%TO.N,+6V*%
X193990000Y-102580000D03*
%TO.P,U1,5,CONT_5*%
%TO.N,unconnected-(U1-CONT-Pad5)*%
X186370000Y-102580000D03*
%TO.P,U1,6,THRES_6*%
%TO.N,Net-(U1-THRES)*%
X186370000Y-100040000D03*
%TO.P,U1,7,DISCH_7*%
%TO.N,Net-(U1-DISCH)*%
X186370000Y-97500000D03*
%TO.P,U1,8,VCC_8*%
%TO.N,+6V*%
X186370000Y-94960000D03*
%TD*%
%TO.P,R3,1*%
%TO.N,Net-(R1-Pad2)*%
X199310000Y-117500000D03*
%TO.P,R3,2*%
%TO.N,Net-(Q1-B)*%
X191690000Y-117500000D03*
%TD*%
D26*
%TO.N,+6V*%
X195000000Y-81500000D03*
%TO.N,GND*%
X202000000Y-84500000D03*
X199500000Y-85000000D03*
%TO.N,Net-(BT2-+)*%
X198500000Y-91000000D03*
X194000000Y-78500000D03*
%TO.N,Net-(BT1-+)*%
X217500000Y-75000000D03*
X195150002Y-74000000D03*
%TO.N,/LIGHT_ENABLE*%
X213500000Y-65500000D03*
%TO.N,Net-(Q1-B)*%
X219000000Y-115500000D03*
X218881472Y-113500000D03*
%TD*%
%TO.N,Net-(D6-K)*%
D27*
X239299557Y-123905000D02*
X234389557Y-118995000D01*
X234389557Y-118995000D02*
X231619528Y-118995000D01*
X231619528Y-118995000D02*
X228697978Y-116073450D01*
%TO.N,+6V*%
X187040000Y-94960000D02*
X191000000Y-91000000D01*
X193990000Y-102580000D02*
X186370000Y-94960000D01*
X191000000Y-91000000D02*
X193120000Y-91000000D01*
X206040002Y-113499999D02*
X210597350Y-113499999D01*
X186370000Y-94960000D02*
X187040000Y-94960000D01*
X194000000Y-81500000D02*
X195000000Y-81500000D01*
X185600000Y-109000000D02*
X192020000Y-102580000D01*
X213197349Y-114100000D02*
X211597349Y-112500000D01*
X211597349Y-112500000D02*
X211597349Y-106597349D01*
X181500000Y-113100000D02*
X185600000Y-109000000D01*
X191000000Y-91000000D02*
X191000000Y-84500000D01*
X192020000Y-102580000D02*
X193990000Y-102580000D01*
X191000000Y-84500000D02*
X194000000Y-81500000D01*
X231000000Y-115000000D02*
X230100000Y-114100000D01*
X230100000Y-114100000D02*
X213197349Y-114100000D01*
X181500000Y-115500000D02*
X181500000Y-113100000D01*
X210597350Y-113499999D02*
X211597349Y-112500000D01*
X211597349Y-106597349D02*
X207500000Y-102500000D01*
%TO.N,Net-(M1--)*%
X206860000Y-93360000D02*
X204000000Y-90500000D01*
X207730000Y-93360000D02*
X206860000Y-93360000D01*
%TO.N,GND*%
X211230000Y-105664314D02*
X216597349Y-111031663D01*
X207155000Y-96700000D02*
X198490000Y-96700000D01*
X198490000Y-96700000D02*
X197500000Y-97690000D01*
X199805735Y-85305735D02*
X201194265Y-85305735D01*
X210270000Y-93585000D02*
X207155000Y-96700000D01*
X199097349Y-112000000D02*
X199000000Y-112000000D01*
X211230000Y-102360000D02*
X211230000Y-105664314D01*
X199500000Y-85000000D02*
X199805735Y-85305735D01*
X210270000Y-93360000D02*
X210270000Y-101400000D01*
X210270000Y-101400000D02*
X211230000Y-102360000D01*
X201194265Y-85305735D02*
X202000000Y-84500000D01*
X210270000Y-93360000D02*
X210270000Y-93585000D01*
X216597349Y-111031663D02*
X216597349Y-112500000D01*
%TO.N,Net-(U1-THRES)*%
X181002943Y-116700000D02*
X180300000Y-115997057D01*
X181002943Y-114300000D02*
X181002943Y-109997057D01*
X181997057Y-116700000D02*
X181002943Y-116700000D01*
X194097349Y-112000000D02*
X186697057Y-112000000D01*
X186697057Y-112000000D02*
X181997057Y-116700000D01*
X223000000Y-106500000D02*
X225540000Y-109040000D01*
X187470000Y-101140000D02*
X186370000Y-100040000D01*
X180300000Y-115002943D02*
X181002943Y-114300000D01*
X187470000Y-103530000D02*
X187470000Y-101140000D01*
X181002943Y-109997057D02*
X187470000Y-103530000D01*
X180300000Y-115997057D02*
X180300000Y-115002943D01*
%TO.N,Net-(BT2-+)*%
X201000000Y-98000000D02*
X200210000Y-98790000D01*
X196400000Y-96535635D02*
X198500000Y-94435635D01*
X195800000Y-75785000D02*
X194015000Y-74000000D01*
X194015000Y-71974235D02*
X194015000Y-74000000D01*
X201000000Y-98000000D02*
X207500000Y-98000000D01*
X198500000Y-94435635D02*
X198500000Y-91000000D01*
X215985000Y-74000000D02*
X215985000Y-71260000D01*
X200210000Y-98790000D02*
X197044365Y-98790000D01*
X194000000Y-78500000D02*
X195800000Y-76700000D01*
X197044365Y-98790000D02*
X196400000Y-98145635D01*
X195800000Y-76700000D02*
X195800000Y-75785000D01*
X215985000Y-71260000D02*
X209525000Y-64800000D01*
X196400000Y-98145635D02*
X196400000Y-96535635D01*
X200994617Y-64994617D02*
X194015000Y-71974235D01*
X201189235Y-64800000D02*
X209525000Y-64800000D01*
X200994617Y-64994617D02*
X201189235Y-64800000D01*
%TO.N,Net-(BT1-+)*%
X195150002Y-74000000D02*
X197990002Y-76840000D01*
X216920000Y-76840000D02*
X217500000Y-76260000D01*
X217500000Y-76260000D02*
X217500000Y-75000000D01*
X197990002Y-76840000D02*
X216920000Y-76840000D01*
%TO.N,Net-(R1-Pad2)*%
X199310000Y-117190000D02*
X199500000Y-117000000D01*
%TO.N,Net-(D3-K)*%
X188460000Y-81130519D02*
X189338401Y-80252118D01*
X188460000Y-84500000D02*
X188460000Y-81130519D01*
%TO.N,Net-(D4-K)*%
X171550980Y-124918630D02*
X171550980Y-122193470D01*
X171550980Y-122193470D02*
X179113181Y-114631269D01*
%TO.N,/LIGHT_ENABLE*%
X188540000Y-116000000D02*
X198121726Y-116000000D01*
X206500000Y-107621726D02*
X206500000Y-107500000D01*
X211770000Y-63770000D02*
X213500000Y-65500000D01*
X199110000Y-89110000D02*
X213725852Y-89110000D01*
X213770000Y-89136904D02*
X213770000Y-102360000D01*
X214953452Y-87882400D02*
X214953452Y-87657400D01*
X198121726Y-116000000D02*
X206500000Y-107621726D01*
X214953452Y-87953452D02*
X213770000Y-89136904D01*
X214953452Y-87657400D02*
X214953452Y-87953452D01*
X213725852Y-89110000D02*
X214953452Y-87882400D01*
X198500000Y-88500000D02*
X199110000Y-89110000D01*
X211770000Y-61500000D02*
X211770000Y-63770000D01*
%TO.N,/CLK_OUT*%
X213133452Y-86607400D02*
X213683452Y-87157400D01*
X213683452Y-87157400D02*
X213683452Y-87657400D01*
X205230000Y-107000000D02*
X205230000Y-107500000D01*
X193990000Y-100040000D02*
X195500000Y-98530000D01*
X198517600Y-86607400D02*
X213133452Y-86607400D01*
X196880000Y-94500000D02*
X196880000Y-92620000D01*
X197230000Y-92270000D02*
X197230000Y-88500000D01*
X200400000Y-106450000D02*
X204680000Y-106450000D01*
X193990000Y-100040000D02*
X200400000Y-106450000D01*
X204680000Y-106450000D02*
X205230000Y-107000000D01*
X195500000Y-95880000D02*
X196880000Y-94500000D01*
X195500000Y-98530000D02*
X195500000Y-95880000D01*
X197230000Y-87895000D02*
X198517600Y-86607400D01*
X196880000Y-92620000D02*
X197230000Y-92270000D01*
X197230000Y-88500000D02*
X197230000Y-87895000D01*
%TO.N,Net-(Q5-C)*%
X176449021Y-119081371D02*
X182918629Y-119081371D01*
X182918629Y-119081371D02*
X186000000Y-116000000D01*
%TO.N,Net-(Q7-C)*%
X232700444Y-120095000D02*
X227605128Y-120095000D01*
X221888274Y-117550000D02*
X220960000Y-116621726D01*
X225060128Y-117550000D02*
X221888274Y-117550000D01*
X220960000Y-116621726D02*
X220960000Y-116500000D01*
X227605128Y-120095000D02*
X225060128Y-117550000D01*
%TO.N,Net-(Q8-B)*%
X208500000Y-94500000D02*
X209000000Y-94000000D01*
X204500000Y-94500000D02*
X208500000Y-94500000D01*
X209000000Y-94000000D02*
X209000000Y-93360000D01*
%TO.N,Net-(Q1-B)*%
X218881472Y-113500000D02*
X218881472Y-109346472D01*
X192790000Y-118600000D02*
X215900000Y-118600000D01*
X215900000Y-118600000D02*
X219000000Y-115500000D01*
X191690000Y-117500000D02*
X192790000Y-118600000D01*
X212500000Y-102965000D02*
X212500000Y-102360000D01*
X218881472Y-109346472D02*
X212500000Y-102965000D01*
%TD*%
M02*
