M48
; DRILL file KiCad 10.0.5 date 2026-09-04T14:01:08
; FORMAT={-:-/ absolute / metric / decimal}
; #@! TF.CreationDate,2026-09-04T14:01:08+05:30
; #@! TF.GenerationSoftware,Kicad,Pcbnew,10.0.5
; #@! TF.FileFunction,Plated,1,2,PTH
FMAT,2
METRIC
; #@! TA.AperFunction,Plated,PTH,ViaDrill
T1C0.300
; #@! TA.AperFunction,Plated,PTH,ComponentDrill
T2C0.750
; #@! TA.AperFunction,Plated,PTH,ComponentDrill
T3C0.800
; #@! TA.AperFunction,Plated,PTH,ComponentDrill
T4C0.900
; #@! TA.AperFunction,Plated,PTH,ComponentDrill
T5C1.000
; #@! TA.AperFunction,Plated,PTH,ComponentDrill
T6C1.100
%
G90
G05
T1
X194.0Y-78.5
X195.0Y-81.5
X195.15Y-74.0
X198.5Y-91.0
X199.5Y-85.0
X202.0Y-84.5
X213.5Y-65.5
X217.5Y-75.0
X218.881Y-113.5
X219.0Y-115.5
T2
X186.0Y-116.0
X187.27Y-116.0
X188.54Y-116.0
X195.96Y-88.5
X197.23Y-88.5
X198.5Y-88.5
X203.96Y-107.5
X205.23Y-107.5
X206.5Y-107.5
X207.73Y-93.36
X209.0Y-93.36
X209.23Y-61.5
X210.27Y-93.36
X210.5Y-61.5
X211.23Y-102.36
X211.77Y-61.5
X212.413Y-87.657
X212.5Y-102.36
X213.683Y-87.657
X213.77Y-102.36
X214.953Y-87.657
X220.96Y-116.5
X222.23Y-116.5
X223.5Y-116.5
T3
X171.551Y-124.919
X176.449Y-119.081
X185.6Y-109.0
X185.75Y-91.0
X186.37Y-94.96
X186.37Y-97.5
X186.37Y-100.04
X186.37Y-102.58
X189.0Y-109.0
X189.338Y-80.252
X190.662Y-72.748
X191.69Y-117.5
X193.37Y-91.0
X193.99Y-94.96
X193.99Y-97.5
X193.99Y-100.04
X193.99Y-102.58
X194.097Y-112.0
X196.88Y-94.5
X197.5Y-97.69
X197.5Y-105.31
X199.097Y-112.0
X199.31Y-117.5
X202.38Y-117.5
X204.5Y-94.5
X210.0Y-117.5
X211.597Y-112.5
X213.639Y-54.82
X216.597Y-112.5
X217.449Y-61.419
X219.338Y-72.248
X220.662Y-79.752
X223.0Y-106.5
X223.0Y-111.58
X225.54Y-109.04
X232.7Y-120.095
X239.3Y-123.905
T4
X179.113Y-114.631
X181.5Y-115.5
X188.46Y-84.5
X191.0Y-84.5
X203.5Y-113.5
X204.5Y-54.5
X206.04Y-113.5
X207.04Y-54.5
X219.46Y-85.0
X222.0Y-85.0
X228.698Y-116.073
X231.0Y-115.0
T5
X204.0Y-87.96
X204.0Y-90.5
T6
X201.0Y-98.0
X201.0Y-102.5
X207.5Y-98.0
X207.5Y-102.5
M30
